<svg viewBox="0 0 1017 400" xmlns="http://www.w3.org/2000/svg"><g><g><g><g><g><line x1="74.78125" y1="376" x2="69.78125" y2="376" style="visibility: inherit;" fill="rgb(0, 0, 0)" stroke="rgb(204, 204, 204)" stroke-width="1px"></line><line x1="74.78125" y1="344.66666666666663" x2="69.78125" y2="344.66666666666663" style="visibility: inherit;" fill="rgb(0, 0, 0)" stroke="rgb(204, 204, 204)" stroke-width="1px"></line><line x1="74.78125" y1="313.33333333333337" x2="69.78125" y2="313.33333333333337" style="visibility: inherit;" fill="rgb(0, 0, 0)" stroke="rgb(204, 204, 204)" stroke-width="1px"></line><line x1="74.78125" y1="282" x2="69.78125" y2="282" style="visibility: inherit;" fill="rgb(0, 0, 0)" stroke="rgb(204, 204, 204)" stroke-width="1px"></line><line x1="74.78125" y1="250.66666666666669" x2="69.78125" y2="250.66666666666669" style="visibility: inherit;" fill="rgb(0, 0, 0)" stroke="rgb(204, 204, 204)" stroke-width="1px"></line><line x1="74.78125" y1="219.33333333333334" x2="69.78125" y2="219.33333333333334" style="visibility: inherit;" fill="rgb(0, 0, 0)" stroke="rgb(204, 204, 204)" stroke-width="1px"></line><line x1="74.78125" y1="188" x2="69.78125" y2="188" style="visibility: inherit;" fill="rgb(0, 0, 0)" stroke="rgb(204, 204, 204)" stroke-width="1px"></line><line x1="74.78125" y1="156.66666666666669" x2="69.78125" y2="156.66666666666669" style="visibility: inherit;" fill="rgb(0, 0, 0)" stroke="rgb(204, 204, 204)" stroke-width="1px"></line><line x1="74.78125" y1="125.33333333333334" x2="69.78125" y2="125.33333333333334" style="visibility: inherit;" fill="rgb(0, 0, 0)" stroke="rgb(204, 204, 204)" stroke-width="1px"></line><line x1="74.78125" y1="94" x2="69.78125" y2="94" style="visibility: inherit;" fill="rgb(0, 0, 0)" stroke="rgb(204, 204, 204)" stroke-width="1px"></line><line x1="74.78125" y1="62.66666666666669" x2="69.78125" y2="62.66666666666669" style="visibility: inherit;" fill="rgb(0, 0, 0)" stroke="rgb(204, 204, 204)" stroke-width="1px"></line><line x1="74.78125" y1="31.333333333333346" x2="69.78125" y2="31.333333333333346" style="visibility: inherit;" fill="rgb(0, 0, 0)" stroke="rgb(204, 204, 204)" stroke-width="1px"></line><line x1="74.78125" y1="0" x2="69.78125" y2="0" style="visibility: inherit;" fill="rgb(0, 0, 0)" stroke="rgb(204, 204, 204)" stroke-width="1px"></line></g><g transform="translate(64.78125, 0)"><text x="0" y="376" dx="0em" dy="0.3em" style="text-anchor: end; visibility: hidden; font-family: Roboto, sans-serif; font-size: 12px; font-weight: 200;" fill="rgb(255, 255, 255)" stroke="none" stroke-width="1px">-1e-4</text><text x="0" y="344.66666666666663" dx="0em" dy="0.3em" style="text-anchor: end; visibility: inherit; font-family: Roboto, sans-serif; font-size: 12px; font-weight: 200;" fill="rgb(255, 255, 255)" stroke="none" stroke-width="1px">0</text><text x="0" y="313.33333333333337" dx="0em" dy="0.3em" style="text-anchor: end; visibility: inherit; font-family: Roboto, sans-serif; font-size: 12px; font-weight: 200;" fill="rgb(255, 255, 255)" stroke="none" stroke-width="1px">1e-4</text><text x="0" y="282" dx="0em" dy="0.3em" style="text-anchor: end; visibility: inherit; font-family: Roboto, sans-serif; font-size: 12px; font-weight: 200;" fill="rgb(255, 255, 255)" stroke="none" stroke-width="1px">2e-4</text><text x="0" y="250.66666666666669" dx="0em" dy="0.3em" style="text-anchor: end; visibility: inherit; font-family: Roboto, sans-serif; font-size: 12px; font-weight: 200;" fill="rgb(255, 255, 255)" stroke="none" stroke-width="1px">3e-4</text><text x="0" y="219.33333333333334" dx="0em" dy="0.3em" style="text-anchor: end; visibility: inherit; font-family: Roboto, sans-serif; font-size: 12px; font-weight: 200;" fill="rgb(255, 255, 255)" stroke="none" stroke-width="1px">4e-4</text><text x="0" y="188" dx="0em" dy="0.3em" style="text-anchor: end; visibility: inherit; font-family: Roboto, sans-serif; font-size: 12px; font-weight: 200;" fill="rgb(255, 255, 255)" stroke="none" stroke-width="1px">5e-4</text><text x="0" y="156.66666666666669" dx="0em" dy="0.3em" style="text-anchor: end; visibility: inherit; font-family: Roboto, sans-serif; font-size: 12px; font-weight: 200;" fill="rgb(255, 255, 255)" stroke="none" stroke-width="1px">6e-4</text><text x="0" y="125.33333333333334" dx="0em" dy="0.3em" style="text-anchor: end; visibility: inherit; font-family: Roboto, sans-serif; font-size: 12px; font-weight: 200;" fill="rgb(255, 255, 255)" stroke="none" stroke-width="1px">7e-4</text><text x="0" y="94" dx="0em" dy="0.3em" style="text-anchor: end; visibility: inherit; font-family: Roboto, sans-serif; font-size: 12px; font-weight: 200;" fill="rgb(255, 255, 255)" stroke="none" stroke-width="1px">8e-4</text><text x="0" y="62.66666666666669" dx="0em" dy="0.3em" style="text-anchor: end; visibility: inherit; font-family: Roboto, sans-serif; font-size: 12px; font-weight: 200;" fill="rgb(255, 255, 255)" stroke="none" stroke-width="1px">9e-4</text><text x="0" y="31.333333333333346" dx="0em" dy="0.3em" style="text-anchor: end; visibility: inherit; font-family: Roboto, sans-serif; font-size: 12px; font-weight: 200;" fill="rgb(255, 255, 255)" stroke="none" stroke-width="1px">1e-3</text><text x="0" y="0" dx="0em" dy="0.3em" style="text-anchor: end; visibility: hidden; font-family: Roboto, sans-serif; font-size: 12px; font-weight: 200;" fill="rgb(255, 255, 255)" stroke="none" stroke-width="1px">1.1e-3</text></g><line x1="74.78125" y1="0" x2="74.78125" y2="376" fill="rgb(0, 0, 0)" stroke="rgb(204, 204, 204)" stroke-width="1px"></line></g></g><g transform="translate(74, 0)" clip-path="url(#clip_0)"><clipPath id="clip_0"><rect width="942" height="376"></rect></clipPath><g><g><g><line x1="0" y1="0" x2="0" y2="376" fill="rgb(0, 0, 0)" stroke="rgb(189, 189, 189)" stroke-width="1px" opacity="0.25"></line><line x1="78.51822916666666" y1="0" x2="78.51822916666666" y2="376" fill="rgb(0, 0, 0)" stroke="rgb(189, 189, 189)" stroke-width="1px" opacity="0.25"></line><line x1="157.03645833333331" y1="0" x2="157.03645833333331" y2="376" fill="rgb(0, 0, 0)" stroke="rgb(189, 189, 189)" stroke-width="1px" opacity="0.25"></line><line x1="235.5546875" y1="0" x2="235.5546875" y2="376" fill="rgb(0, 0, 0)" stroke="rgb(189, 189, 189)" stroke-width="1px" opacity="0.25"></line><line x1="314.07291666666663" y1="0" x2="314.07291666666663" y2="376" fill="rgb(0, 0, 0)" stroke="rgb(189, 189, 189)" stroke-width="1px" opacity="0.25"></line><line x1="392.59114583333337" y1="0" x2="392.59114583333337" y2="376" fill="rgb(0, 0, 0)" stroke="rgb(189, 189, 189)" stroke-width="1px" opacity="0.25"></line><line x1="471.109375" y1="0" x2="471.109375" y2="376" fill="rgb(0, 0, 0)" stroke="rgb(189, 189, 189)" stroke-width="1px" opacity="0.25"></line><line x1="549.6276041666667" y1="0" x2="549.6276041666667" y2="376" fill="rgb(0, 0, 0)" stroke="rgb(189, 189, 189)" stroke-width="1px" opacity="0.25"></line><line x1="628.1458333333333" y1="0" x2="628.1458333333333" y2="376" fill="rgb(0, 0, 0)" stroke="rgb(189, 189, 189)" stroke-width="1px" opacity="0.25"></line><line x1="706.6640625" y1="0" x2="706.6640625" y2="376" fill="rgb(0, 0, 0)" stroke="rgb(189, 189, 189)" stroke-width="1px" opacity="0.25"></line><line x1="785.1822916666667" y1="0" x2="785.1822916666667" y2="376" fill="rgb(0, 0, 0)" stroke="rgb(189, 189, 189)" stroke-width="1px" opacity="0.25"></line><line x1="863.7005208333333" y1="0" x2="863.7005208333333" y2="376" fill="rgb(0, 0, 0)" stroke="rgb(189, 189, 189)" stroke-width="1px" opacity="0.25"></line><line x1="942.21875" y1="0" x2="942.21875" y2="376" fill="rgb(0, 0, 0)" stroke="rgb(189, 189, 189)" stroke-width="1px" opacity="0.25"></line></g><g><line x1="0" y1="376" x2="942.21875" y2="376" fill="rgb(0, 0, 0)" stroke="rgb(189, 189, 189)" stroke-width="1px" opacity="0.25"></line><line x1="0" y1="344.66666666666663" x2="942.21875" y2="344.66666666666663" fill="rgb(0, 0, 0)" stroke="rgb(189, 189, 189)" stroke-width="1px" opacity="0.25"></line><line x1="0" y1="313.33333333333337" x2="942.21875" y2="313.33333333333337" fill="rgb(0, 0, 0)" stroke="rgb(189, 189, 189)" stroke-width="1px" opacity="0.25"></line><line x1="0" y1="282" x2="942.21875" y2="282" fill="rgb(0, 0, 0)" stroke="rgb(189, 189, 189)" stroke-width="1px" opacity="0.25"></line><line x1="0" y1="250.66666666666669" x2="942.21875" y2="250.66666666666669" fill="rgb(0, 0, 0)" stroke="rgb(189, 189, 189)" stroke-width="1px" opacity="0.25"></line><line x1="0" y1="219.33333333333334" x2="942.21875" y2="219.33333333333334" fill="rgb(0, 0, 0)" stroke="rgb(189, 189, 189)" stroke-width="1px" opacity="0.25"></line><line x1="0" y1="188" x2="942.21875" y2="188" fill="rgb(0, 0, 0)" stroke="rgb(189, 189, 189)" stroke-width="1px" opacity="0.25"></line><line x1="0" y1="156.66666666666669" x2="942.21875" y2="156.66666666666669" fill="rgb(0, 0, 0)" stroke="rgb(189, 189, 189)" stroke-width="1px" opacity="0.25"></line><line x1="0" y1="125.33333333333334" x2="942.21875" y2="125.33333333333334" fill="rgb(0, 0, 0)" stroke="rgb(189, 189, 189)" stroke-width="1px" opacity="0.25"></line><line x1="0" y1="94" x2="942.21875" y2="94" fill="rgb(0, 0, 0)" stroke="rgb(189, 189, 189)" stroke-width="1px" opacity="0.25"></line><line x1="0" y1="62.66666666666669" x2="942.21875" y2="62.66666666666669" fill="rgb(0, 0, 0)" stroke="rgb(189, 189, 189)" stroke-width="1px" opacity="0.25"></line><line x1="0" y1="31.333333333333346" x2="942.21875" y2="31.333333333333346" fill="rgb(0, 0, 0)" stroke="rgb(189, 189, 189)" stroke-width="1px" opacity="0.25"></line><line x1="0" y1="0" x2="942.21875" y2="0" fill="rgb(0, 0, 0)" stroke="rgb(189, 189, 189)" stroke-width="1px" opacity="0.25"></line></g></g></g><g><g><line x1="0" y1="344.66666666666663" x2="942.21875" y2="344.66666666666663" fill="rgb(0, 0, 0)" stroke="rgb(153, 153, 153)" stroke-width="1.5px"></line></g></g><g><g><line x1="78.51822916666666" y1="0" x2="78.51822916666666" y2="376" fill="rgb(0, 0, 0)" stroke="rgb(153, 153, 153)" stroke-width="1.5px"></line></g></g><g><g><g><g><g><path stroke="rgb(255, 112, 67)" stroke-width="2px" d="M78.51822916666666,31.333318450798604L79.30341145833333,31.333318450798604L80.08859375,31.333318450798604L80.87377604166666,31.33331845079869L81.65895833333333,31.33331845079869L82.44414062499999,31.333318450798604L83.22932291666666,31.333318450798604L84.01450520833333,31.333318450798604L84.79968749999999,31.333318450798604L85.58486979166666,31.333318450798604L86.37005208333333,31.333318450798604L87.15523437499999,31.333318450798522L88.72559895833334,31.333318450798522L89.51078125000001,31.333318450798604L90.29596354166667,31.333318450798604L91.08114583333334,31.333318450798522L91.86632812500001,31.333318450798522L92.65151041666667,31.333318450798604L93.43669270833334,31.33331845079869L94.22187500000001,31.333318450798604L95.00705729166667,31.333318450798604L95.79223958333334,31.333318450798604L96.577421875,31.333318450798604L98.14778645833334,31.333318450798604L98.93296875,31.333318450798604L99.71815104166667,31.333318450798604L100.50333333333334,31.33331845079869L101.288515625,31.333318450798604L102.07369791666667,31.333318450798604L102.85888020833333,31.33331845079869L103.6440625,31.333318450798604L104.42924479166668,31.33331845079869L105.21442708333333,31.333318450798604L105.999609375,31.33331845079869L106.78479166666666,31.33331845079869L107.56997395833334,31.33331845079869L108.35515625000001,31.33331845079869L109.14033854166667,31.33331845079869L109.92552083333334,31.33331845079873L111.49588541666667,31.33331845079869L112.28106770833334,31.33331845079869L113.06625,31.33331845079869L113.85143229166667,31.33331845079869L114.63661458333334,31.33331845079869L115.421796875,31.33331845079869L116.20697916666667,31.33331845079869L116.99216145833333,31.33331845079869L117.77734375,31.33331845079869L118.56252604166666,31.333318450798604L119.34770833333334,31.333318450798604L120.132890625,31.33331845079869L120.91807291666666,31.33331845079869L121.70325520833335,31.333318450798604L122.4884375,31.33331845079869L123.27361979166666,31.33331845079873L124.05880208333332,31.33331845079869L125.62916666666666,31.33331845079869L126.41434895833332,31.333318450798604L127.19953125,31.333318450798604L127.98471354166666,31.33331845079869L129.55507812500002,31.33331845079869L130.34026041666667,31.33331845079869L131.12544270833334,31.33331845079869L131.910625,31.33331845079869L132.69580729166668,31.33331845079869L133.48098958333333,31.333318450798604L134.266171875,31.333318450798604L135.05135416666667,31.333318450798604L135.83653645833334,31.333318450798604L136.62171874999999,31.333318450798604L137.40690104166669,31.33331845079869L138.19208333333333,31.33331845079869L138.977265625,31.33331845079869L139.76244791666667,31.33331845079873L140.54763020833335,31.33331845079873L141.3328125,31.33331845079873L142.1179947916667,31.33331845079873L142.90317708333333,31.33331845079873L143.688359375,31.33331845079873L144.47354166666665,31.33331845079873L145.25872395833335,31.33331845079873L146.04390625,31.33331845079873L146.82908854166666,31.33331845079873L147.61427083333334,31.33331845079873L148.399453125,31.33331845079873L149.18463541666665,31.33331845079873L150.755,31.33331845079873L151.54018229166667,31.33331845079873L152.3253645833333,31.33331845079873L153.110546875,31.33331845079873L153.89572916666665,31.33331845079873L154.68091145833333,31.33331845079873L155.46609375,31.33331845079873L156.25127604166667,31.33331845079873L157.03645833333331,31.33331845079873L157.82164062500001,31.33331845079873L158.60682291666666,31.33331845079873L159.39200520833333,31.33331845079873L160.1771875,31.33331845079873L160.96236979166667,31.33331845079873L161.74755208333332,31.33331845079873L162.532734375,31.33331845079873L163.31791666666666,31.33331845079873L164.10309895833333,31.33331845079873L164.88828124999998,31.33331845079873L165.67346354166668,31.33331845079873L166.45864583333332,31.33331845079873L168.02901041666667,31.33331845079873L168.81419270833334,31.33331845079873L169.59937499999998,31.33331845079873L170.38455729166668,31.33331845079873L171.16973958333332,31.33331845079873L171.954921875,31.33331845079873L172.74010416666667,31.33331845079873L173.52528645833334,31.33331845079873L174.31046874999998,31.33331845079873L175.09565104166666,31.33331845079873L175.88083333333333,31.33331845079873L176.666015625,31.33331845079873L177.45119791666667,31.33331845079873L178.23638020833334,31.33331845079873L179.02156250000002,31.33331845079873L179.80674479166666,31.33331845079873L180.59192708333333,31.33331845079873L181.377109375,31.33331845079873L182.16229166666668,31.33331845079873L182.94747395833332,31.33331845079873L183.73265625000002,31.33331845079873L184.51783854166666,31.33331845079873L185.30302083333333,31.33331845079873L186.088203125,31.33331845079873L186.87338541666668,31.33331845079873L187.65856770833332,31.33331845079873L188.44375000000002,31.33331845079873L189.22893229166667,31.33331845079873L190.01411458333334,31.33331845079873L190.799296875,31.33331845079873L191.58447916666668,31.33331845079873L192.36966145833333,31.33331845079873L193.15484375,31.33331845079873L193.94002604166667,31.33331845079873L194.72520833333334,31.33331845079873L196.29557291666669,31.33331845079873L197.8659375,31.33331845079873L198.65111979166667,31.33331845079873L199.43630208333335,31.33331845079873L200.221484375,31.33331845079873L201.0066666666667,31.33331845079873L201.79184895833333,31.33331845079873L202.57703125,31.33331845079873L203.36221354166665,31.33331845079873L204.14739583333335,31.33331845079873L204.932578125,31.33331845079873L205.71776041666666,31.33331845079873L206.50294270833334,31.33331845079873L207.288125,31.33331845079873L208.07330729166665,31.33331845079873L208.85848958333335,31.33331845079873L209.643671875,31.33331845079873L210.42885416666667,31.33331845079873L211.2140364583333,31.33331845079873L211.99921875,31.33331845079873L212.78440104166665,31.33331845079873L213.56958333333333,31.33331845079873L214.354765625,31.33331845079873L215.13994791666667,31.33331845079873L215.92513020833331,31.33331845079873L216.71031250000001,31.33331845079873L217.49549479166666,31.33331845079873L218.28067708333333,31.33331845079873L219.065859375,31.33331845079873L219.85104166666667,31.33331845079873L220.63622395833332,31.33331845079873L221.42140625,31.33331845079873L222.20658854166666,31.33331845079873L222.99177083333333,31.33331845079873L223.77695312499998,31.33331845079873L224.56213541666668,31.33331845079873L226.1325,31.33331845079873L226.91768229166667,31.33331845079873L227.70286458333334,31.33331845079873L228.48804687499998,31.33331845079873L229.27322916666668,31.33331845079873L230.05841145833332,31.33331845079873L230.84359375,31.33331845079873L231.62877604166667,31.33331845079873L232.41395833333334,31.33331845079873L233.19914062499998,31.33331845079873L233.98432291666666,31.33331845079873L234.76950520833333,31.33331845079873L235.5546875,31.33331845079873L237.12505208333332,31.33331845079873L237.91023437500002,31.33331845079873L238.6954166666667,31.33331845079873L239.48059895833333,31.33331845079873L240.26578125,31.33331845079873L241.05096354166668,31.33331845079873L241.83614583333332,31.33331845079873L242.62132812500002,31.33331845079873L243.4065104166667,31.33331845079873L244.19169270833333,31.33331845079873L244.976875,31.33331845079873L245.76205729166665,31.33331845079873L246.54723958333332,31.33331845079873L247.33242187500002,31.33331845079873L248.11760416666664,31.33331845079873L248.90278645833334,31.33331845079873L249.68796875,31.33331845079873L250.47315104166665,31.33331845079873L251.25833333333333,31.33331845079873L252.04351562500003,31.33331845079873L252.82869791666664,31.33331845079873L253.61388020833334,31.33331845079873L254.3990625,31.33331845079873L255.18424479166666,31.33331845079873L255.96942708333333,31.33331845079873L256.75460937500003,31.33331845079873L257.53979166666664,31.33331845079873L258.3249739583333,31.33331845079873L259.11015625000005,31.33331845079873L259.89533854166666,31.33331845079873L260.68052083333333,31.33331845079873L261.465703125,31.33331845079873L262.2508854166667,31.33331845079873L263.03606770833335,31.33331845079873L263.82125,31.33331845079873L264.60643229166664,31.33331845079873L265.39161458333336,31.33331845079873L266.176796875,31.33331845079873L267.7471614583333,31.33331845079873L268.53234375,31.33331845079873L269.31752604166667,31.33331845079873L270.10270833333334,31.33331845079873L270.88789062499995,31.33331845079873L271.6730729166667,31.33331845079873L272.45825520833336,31.33331845079873L273.24343749999997,31.33331845079873L274.02861979166664,31.33331845079873L274.81380208333337,31.33331845079873L275.598984375,31.33331845079873L276.38416666666666,31.33331845079873L277.16934895833333,31.33331845079873L277.95453125,31.33331845079873L278.7397135416667,31.33331845079873L280.31007812499996,31.33331845079873L281.0952604166667,31.33331845079873L281.88044270833336,31.33331845079873L282.665625,31.33331845079873L283.45080729166665,31.33331845079873L284.2359895833334,31.33331845079873L285.021171875,31.33331845079873L285.80635416666667,31.33331845079873L286.59153645833334,31.33331845079873L288.1619010416667,31.33331845079873L288.9470833333333,31.33331845079873L289.73226562499997,31.33331845079873L290.5174479166667,31.33331845079873L291.3026302083333,31.33331845079873L292.87299479166666,31.33331845079873L293.6581770833333,31.33331845079873L294.443359375,31.33331845079873L295.2285416666667,31.33331845079873L296.01372395833334,31.33331845079873L296.79890625,31.33331845079873L297.5840885416667,31.33331845079873L298.3692708333333,31.33331845079873L299.15445312500003,31.33331845079873L299.9396354166667,31.33331845079873L300.7248177083333,31.33331845079873L301.51,31.33331845079873L302.29518229166666,31.33331845079873L303.08036458333333,31.33331845079873L303.865546875,31.33331845079873L304.6507291666666,31.33331845079873L305.43591145833335,31.33331845079873L306.22109375,31.33331845079873L307.00627604166664,31.33331845079873L307.7914583333333,31.33331845079873L308.57664062500004,31.33331845079873L309.36182291666665,31.33331845079873L310.1470052083333,31.33331845079873L310.9321875,31.33331845079873L311.71736979166667,31.33331845079873L312.50255208333334,31.33331845079873L313.287734375,31.33331845079873L314.07291666666663,31.33331845079873L314.85809895833336,31.33331845079873L315.64328125000003,31.33331845079873L316.42846354166664,31.33331845079873L317.2136458333333,31.33331845079873L317.99882812500005,31.33331845079873L318.78401041666666,31.33331845079873L319.56919270833333,31.33331845079873L320.354375,31.33331845079873L321.1395572916667,31.33331845079873L322.709921875,31.33331845079873L323.49510416666664,31.33331845079873L324.28028645833336,31.33331845079873L325.06546875,31.33331845079873L325.85065104166665,31.33331845079873L326.6358333333333,31.33331845079873L327.421015625,31.33331845079873L328.20619791666667,31.33331845079873L328.99138020833334,31.33331845079873L329.77656249999995,31.33331845079873L330.5617447916667,31.33331845079873L331.34692708333336,31.33331845079873L332.13210937499997,31.33331845079873L332.91729166666664,31.33331845079873L333.70247395833337,31.33331845079873L334.48765625,31.33331845079873L335.27283854166666,31.33331845079873L336.05802083333333,31.33331845079873L336.843203125,31.33331845079873L337.6283854166667,31.33331845079873L338.41356770833335,31.33331845079873L339.19874999999996,31.33331845079873L339.9839322916667,31.33331845079873L340.76911458333336,31.33331845079873L341.554296875,31.33331845079873L342.33947916666665,31.33331845079873L343.1246614583334,31.33331845079873L343.90984375,31.33331845079873L345.48020833333334,31.33331845079873L346.265390625,31.33331845079873L347.0505729166667,31.33331845079873L347.8357552083333,31.33331845079873L348.62093749999997,31.33331845079873L349.4061197916667,31.33331845079873L350.1913020833333,31.33331845079873L350.976484375,31.33331845079873L351.76166666666666,31.33331845079873L352.5468489583333,31.33331845079873L353.33203125,31.33331845079873L354.1172135416667,31.33331845079873L354.90239583333334,31.33331845079873L355.687578125,31.33331845079873L356.4727604166667,31.33331845079873L357.2579427083333,31.33331845079873L358.04312500000003,31.33331845079873L358.8283072916667,31.33331845079873L359.6134895833333,31.33331845079873L360.398671875,31.33331845079873L361.18385416666666,31.33331845079873L361.96903645833333,31.33331845079873L362.75421875,31.33331845079873L363.5394010416666,31.33331845079873L364.32458333333335,31.33331845079873L365.109765625,31.33331845079873L365.89494791666664,31.33331845079873L366.6801302083333,31.33331845079873L367.46531250000004,31.33331845079873L368.25049479166665,31.33331845079873L370.60604166666667,31.33331845079873L371.39122395833334,31.33331845079873L372.17640625,31.33331845079873L372.96158854166663,31.33331845079873L373.74677083333336,31.33331845079873L374.53195312500003,31.33331845079873L375.31713541666664,31.33331845079873L376.1023177083333,31.33331845079873L376.88750000000005,31.33331845079873L377.67268229166666,31.33331845079873L378.45786458333333,31.33331845079873L379.243046875,31.33331845079873L380.0282291666667,31.33331845079873L380.81341145833335,31.33331845079873L381.59859375,31.33331845079873L382.38377604166664,31.33331845079873L383.954140625,31.33331845079873L384.73932291666665,31.33331845079873L385.5245052083333,31.33331845079873L386.3096875,31.33331845079873L387.09486979166667,31.33331845079873L387.88005208333334,31.33331845079873L388.66523437499995,31.33331845079873L389.4504166666667,31.33331845079873L390.23559895833336,31.33331845079873L391.02078124999997,31.33331845079873L391.80596354166664,31.33331845079873L392.59114583333337,31.33331845079873L393.376328125,31.33331845079873L394.16151041666666,31.33331845079873L394.94669270833333,31.33331845079873L395.731875,31.33331845079873L396.5170572916667,31.33331845079873L397.30223958333335,31.33331845079873L398.08742187499996,31.33331845079873L398.8726041666667,31.33331845079873L399.65778645833336,31.33331845079873L400.44296875,31.33331845079873L401.22815104166665,31.33331845079873L402.0133333333334,31.33331845079873L402.798515625,31.33331845079873L403.58369791666667,31.33331845079873L404.36888020833334,31.33331845079873L405.1540625,31.33331845079873L405.9392447916667,31.33331845079873L406.7244270833333,31.33331845079873L407.50960937499997,31.33331845079873L408.2947916666667,31.33331845079873L409.0799739583333,31.33331845079873L409.86515625,31.33331845079873L410.65033854166666,31.33331845079873L411.4355208333333,31.33331845079873L412.220703125,31.33331845079873L413.0058854166667,31.33331845079873L413.79106770833334,31.33331845079873L414.57625,31.33331845079873L415.3614322916667,31.33331845079873L416.1466145833333,31.33331845079873L416.93179687500003,31.33331845079873L417.7169791666667,31.33331845079873L418.5021614583333,31.33331845079873L419.28734375,31.33331845079873L420.07252604166666,31.33331845079873L420.85770833333333,31.33331845079873L421.642890625,31.33331845079873L422.4280729166666,31.33331845079873L423.21325520833335,31.33331845079873L423.9984375,31.33331845079873L424.78361979166664,31.33331845079873L425.5688020833333,31.33331845079873L426.35398437500004,31.33331845079873L427.13916666666665,31.33331845079873L427.9243489583333,31.33331845079873L428.70953125,31.33331845079873L429.49471354166667,31.33331845079873L431.065078125,31.33331845079873L431.85026041666663,31.33331845079873L432.63544270833336,31.33331845079873L433.42062500000003,31.33331845079873L434.20580729166664,31.33331845079873L434.9909895833333,31.33331845079873L435.77617187500005,31.33331845079873L436.56135416666666,31.33331845079873L438.13171875,31.33331845079873L438.9169010416667,31.33331845079873L439.70208333333335,31.33331845079873L440.487265625,31.33331845079873L441.27244791666664,31.33331845079873L442.05763020833336,31.33331845079873L442.8428125,31.33331845079873L443.62799479166665,31.33331845079873L444.4131770833333,31.33331845079873L445.198359375,31.33331845079873L445.98354166666667,31.33331845079873L446.76872395833334,31.33331845079873L447.55390624999995,31.33331845079873L448.3390885416667,31.33331845079873L449.12427083333336,31.33331845079873L449.90945312499997,31.33331845079873L450.69463541666664,31.33331845079873L451.47981770833337,31.33331845079873L453.05018229166666,31.33331845079873L453.83536458333333,31.33331845079873L454.620546875,31.33331845079873L455.4057291666667,31.33331845079873L456.19091145833335,31.33331845079873L456.97609374999996,31.33331845079873L457.7612760416667,31.33331845079873L458.54645833333336,31.33331845079873L459.331640625,31.33331845079873L460.11682291666665,31.33331845079873L460.9020052083334,31.33331845079873L461.6871875,31.33331845079873L462.47236979166667,31.33331845079873L463.25755208333334,31.33331845079873L464.042734375,31.33331845079873L465.6130989583333,31.33331845079873L466.39828124999997,31.33331845079873L467.1834635416667,31.33331845079873L467.9686458333333,31.33331845079873L468.753828125,31.33331845079873L469.53901041666666,31.33331845079873L470.3241927083333,31.33331845079873L471.109375,31.33331845079873L471.8945572916667,31.33331845079873L472.67973958333334,31.33331845079873L473.46492187499996,31.33331845079873L474.25010416666663,31.33331845079873L475.82046875000003,31.33331845079873L476.6056510416667,31.33331845079873L477.3908333333334,31.33331845079873L478.17601562499993,31.33331845079873L478.96119791666666,31.33331845079873L479.74638020833333,31.33331845079873L480.5315625,31.33331845079873L481.3167447916667,31.33331845079873L482.10192708333335,31.33331845079873L483.67229166666664,31.33331845079873L484.4574739583333,31.33331845079873L485.24265625000004,31.33331845079873L486.0278385416667,31.33331845079873L486.8130208333334,31.33331845079873L487.59820312499994,31.33331845079873L488.38338541666667,31.33331845079873L489.16856770833334,31.33331845079873L489.95375,31.33331845079873L491.5241145833333,31.33331845079873L492.309296875,31.33331845079873L493.09447916666664,31.33331845079873L493.8796614583333,144.13332472043123L494.66484375000005,211.81332848221072L495.4500260416667,252.42133073927843L496.2352083333333,276.78613209351903L497.02039062499995,291.4050129060634L497.8055729166667,300.17634139359L498.59075520833335,305.43913848610595L499.3759375,308.59681674161556L500.1611197916667,310.4914236949213L500.9463020833333,311.62818786690474L501.731484375,312.31024637009483L502.51666666666665,312.71948147200885L503.3018489583333,312.9650225331573L504.08703125000005,313.1123471698463L504.8722135416667,313.20074195185975L505.6573958333333,313.25377882106784L506.44257812499995,313.2856009425927L507.2277604166667,313.30469421550754L508.01294270833336,313.3161501792565L508.798125,313.3230237575059L509.5833072916667,313.3271479044555L510.3684895833333,313.32962239262525L511.153671875,313.33110708552715L511.93885416666666,313.3319979012682L512.7240364583333,313.3325323907129L513.5092187500001,313.33285308437974L514.2944010416667,313.3330455005798L515.0795833333333,313.3331609502998L515.864765625,313.3332302201319L516.6499479166666,313.3332717820311L517.4351302083334,313.3332967191706L518.2203125000001,313.33331168145435L519.0054947916666,313.3333206588246L519.7906770833333,313.33332604524674L520.5758593749999,313.33332927709995L521.3610416666667,313.33333121621195L522.1462239583334,313.3333323796791L522.93140625,313.3333330777595L523.7165885416666,313.3333334966076L524.5017708333334,313.3333337479165L525.286953125,313.3333338987019L526.0721354166667,313.33333398917307L526.8573177083333,313.3333340434558L527.6425,313.33333407602544L528.4276822916667,313.33333409556724L529.2128645833333,313.33333410729233L529.998046875,313.33333411432733L530.7832291666667,313.33333411854835L531.5684114583333,313.333334121081L532.35359375,313.33333412260055L533.1387760416667,313.33333412351226L533.9239583333333,313.3333341240593L535.4943229166666,313.3333341243876L537.0646875,313.33333412458455L537.8498697916666,313.3333341247027L538.6350520833333,313.33333412477356L539.4202343750001,313.33333412481613L540.2054166666667,313.33333412484166L540.9905989583334,313.33333412485695L541.7757812499999,313.33333412486616L542.5609635416666,313.33333412487167L543.3461458333334,313.33333412487497L544.131328125,313.33333412487696L544.9165104166667,313.33333412487815L545.7016927083333,313.33333412487883L546.4868749999999,313.3333341248793L547.2720572916667,313.3333341248795L548.0572395833333,313.3333341248797L548.842421875,313.3333341248798L549.6276041666667,313.33333412487985L550.4127864583332,313.33333412487985L551.19796875,313.3333341248799L551.9831510416667,313.3333341248799L552.7683333333333,313.3333341248799L553.553515625,313.3333341248799L554.3386979166667,313.3333341248799L555.1238802083333,313.3333341248799L555.9090625,313.3333341248799L556.6942447916666,313.3333341248799L557.4794270833333,313.3333341248799L558.2646093750001,313.3333341248799L559.0497916666667,313.3333341248799L559.8349739583333,313.3333341248799L560.6201562499999,313.3333341248799L561.4053385416667,313.3333341248799L562.1905208333334,313.3333341248799L562.975703125,313.3333341248799L563.7608854166667,313.3333341248799L564.5460677083333,313.3333341248799L565.33125,313.3333341248799L566.1164322916667,313.3333341248799L566.9016145833333,313.3333341248799L567.686796875,313.3333341248799L568.4719791666668,313.3333341248799L569.2571614583333,313.3333341248799L570.04234375,313.3333341248799L570.8275260416667,313.3333341248799L571.6127083333333,313.3333341248799L572.3978906250001,313.3333341248799L573.1830729166667,313.3333341248799L573.9682552083333,313.3333341248799L574.7534375,313.3333341248799L575.5386197916666,313.3333341248799L576.3238020833334,313.3333341248799L577.1089843750001,313.3333341248799L577.8941666666666,313.3333341248799L578.6793489583333,313.3333341248799L579.4645312499999,313.3333341248799L580.2497135416667,313.3333341248799L581.0348958333334,313.3333341248799L581.820078125,313.3333341248799L582.6052604166666,313.3333341248799L583.3904427083334,313.3333341248799L584.175625,313.3333341248799L584.9608072916667,313.3333341248799L585.7459895833333,313.3333341248799L587.3163541666667,313.3333341248799L588.1015364583333,313.3333341248799L588.88671875,313.3333341248799L589.6719010416667,313.3333341248799L590.4570833333333,313.3333341248799L591.242265625,313.3333341248799L592.0274479166667,313.3333341248799L592.8126302083333,313.3333341248799L593.5978125,313.3333341248799L594.3829947916666,313.3333341248799L595.1681770833334,313.3333341248799L595.953359375,313.3333341248799L596.7385416666666,313.3333341248799L597.5237239583333,313.3333341248799L598.3089062500001,313.3333341248799L599.0940885416667,313.3333341248799L599.8792708333334,313.3333341248799L600.6644531249999,313.3333341248799L601.4496354166666,313.3333341248799L602.2348177083334,313.3333341248799L603.8051822916667,313.3333341248799L604.5903645833333,313.3333341248799L605.3755468749999,313.3333341248799L606.1607291666667,313.3333341248799L606.9459114583333,313.3333341248799L607.73109375,313.3333341248799L608.5162760416667,313.3333341248799L609.3014583333332,313.3333341248799L610.086640625,313.3333341248799L610.8718229166667,313.3333341248799L611.6570052083333,313.3333341248799L612.4421875,313.3333341248799L613.2273697916667,313.3333341248799L614.0125520833333,313.3333341248799L614.797734375,313.3333341248799L615.5829166666666,313.3333341248799L616.3680989583333,313.3333341248799L617.1532812500001,313.3333341248799L617.9384635416667,313.3333341248799L618.7236458333333,313.3333341248799L619.5088281249999,313.3333341248799L620.2940104166667,313.3333341248799L621.0791927083334,313.3333341248799L621.864375,313.3333341248799L622.6495572916667,313.3333341248799L623.4347395833333,313.3333341248799L624.219921875,313.3333341248799L625.0051041666667,313.3333341248799L625.7902864583333,313.3333341248799L626.57546875,313.3333341248799L627.3606510416668,313.3333341248799L628.1458333333333,313.3333341248799L629.7161979166667,313.3333341248799L630.5013802083333,313.3333341248799L631.2865625000001,313.3333341248799L632.0717447916667,313.3333341248799L632.8569270833333,313.3333341248799L633.642109375,313.3333341248799L634.4272916666666,313.3333341248799L635.2124739583334,313.3333341248799L635.9976562500001,313.3333341248799L636.7828385416666,313.3333341248799L637.5680208333333,313.3333341248799L638.3532031249999,313.3333341248799L639.1383854166667,313.3333341248799L639.9235677083334,313.3333341248799L640.70875,313.3333341248799L641.4939322916666,313.3333341248799L642.2791145833334,313.3333341248799L643.064296875,313.3333341248799L643.8494791666667,324.61333383992314L644.6346614583333,331.3813336689491L645.41984375,335.44213356636465L646.2050260416667,337.878613504814L646.9902083333333,339.3405014678836L647.775390625,340.2176342457254L648.5605729166667,340.7439139124304L649.3457552083333,341.0596817124534L650.1309375,341.24914239246726L650.9161197916667,341.36281880047557L651.7013020833333,341.4310246452805L652.486484375,341.4719481521635L653.2716666666666,341.4965022562933L654.0568489583334,341.51123471877116L654.84203125,341.5200741962579L655.6272135416666,341.52537788275L656.4123958333333,341.5285600946452L657.1975781250001,341.5304694217823L657.9827604166667,341.53161501806454L658.7679427083334,341.532302375834L659.5531249999999,341.53271479049556L660.3383072916666,341.53296223929254L661.1234895833334,341.5331107085707L661.908671875,341.5331997901376L662.6938541666667,341.5332532390778L663.4790364583333,341.53328530844186L664.2642187499999,341.53330455006034L665.0494010416667,341.53331609503135L666.619765625,341.53332302201403L667.4049479166667,341.5333271782036L668.1901302083332,341.53332967191733L668.9753125,341.53333116814565L669.7604947916667,341.5333320658826L670.5456770833333,341.53333260452473L671.330859375,341.53333292771003L672.1160416666667,341.5333331216212L672.9012239583333,341.5333332379679L673.68640625,341.53333330777593L674.4715885416666,341.5333333496608L676.0419531250001,341.53333337479165L676.8271354166667,341.53333338987017L677.6123177083333,341.5333333989173L678.3974999999999,341.53333340434557L679.1826822916667,341.5333334076026L679.9678645833334,341.53333340955675L680.753046875,341.5333334107292L681.5382291666667,341.53333341143275L682.3234114583333,341.53333341185487L683.10859375,341.5333334121081L683.8937760416667,341.53333341226005L684.6789583333333,341.5333334123512L685.464140625,341.5333334124059L687.0345052083333,341.53333341243876L687.8196875,341.53333341245843L688.6048697916667,341.5333334124703L689.3900520833333,341.53333341247736L690.1752343750001,341.5333334124816L690.9604166666667,341.5333334124841L691.7455989583333,341.5333334124857L692.53078125,341.5333334124866L693.3159635416666,341.53333341248714L694.8863281250001,341.5333334124875L695.6715104166666,341.5333334124877L696.4566927083333,341.5333334124878L697.2418749999999,341.53333341248793L698.0270572916667,341.53333341248793L698.8122395833334,341.53333341248793L699.597421875,341.533333412488L700.3826041666666,341.533333412488L701.1677864583334,341.533333412488L701.95296875,341.533333412488L702.7381510416667,341.533333412488L703.5233333333333,341.533333412488L704.308515625,341.533333412488L705.0936979166667,341.533333412488L705.8788802083333,341.533333412488L706.6640625,341.533333412488L708.2344270833333,341.533333412488L709.019609375,341.533333412488L709.8047916666667,341.533333412488L710.5899739583333,341.533333412488L711.37515625,341.533333412488L712.1603385416666,341.533333412488L712.9455208333334,341.533333412488L713.730703125,341.533333412488L714.5158854166666,341.533333412488L715.3010677083333,341.533333412488L716.0862500000001,341.533333412488L716.8714322916667,341.533333412488L717.6566145833334,341.533333412488L718.4417968749999,341.533333412488L719.2269791666666,341.533333412488L720.0121614583334,341.533333412488L720.79734375,341.533333412488L721.5825260416667,341.533333412488L722.3677083333333,341.533333412488L723.1528906249999,341.533333412488L723.9380729166667,341.533333412488L724.7232552083333,341.533333412488L725.5084375,341.533333412488L726.2936197916667,341.533333412488L727.0788020833332,341.533333412488L727.863984375,341.533333412488L728.6491666666667,341.533333412488L729.4343489583333,341.533333412488L730.21953125,341.533333412488L731.0047135416667,341.533333412488L731.7898958333333,341.533333412488L732.575078125,341.533333412488L733.3602604166666,341.533333412488L734.1454427083333,341.533333412488L734.9306250000001,341.533333412488L735.7158072916667,341.533333412488L736.5009895833333,341.533333412488L737.2861718749999,341.533333412488L738.0713541666667,341.533333412488L739.64171875,341.533333412488L740.4269010416667,341.533333412488L741.2120833333333,341.533333412488L741.997265625,341.533333412488L743.5676302083333,341.533333412488L744.3528125,341.533333412488L745.1379947916668,341.533333412488L745.9231770833333,341.533333412488L746.708359375,341.533333412488L748.2787239583333,341.533333412488L749.0639062500001,341.533333412488L749.8490885416667,341.533333412488L750.6342708333333,341.533333412488L751.419453125,341.533333412488L752.2046354166666,341.533333412488L752.9898177083334,341.533333412488L753.7750000000001,341.533333412488L754.5601822916666,341.533333412488L755.3453645833333,341.533333412488L757.7009114583334,341.533333412488L758.48609375,341.533333412488L759.2712760416666,341.533333412488L760.0564583333334,341.533333412488L760.841640625,341.533333412488L761.6268229166667,342.6613333811425L762.4120052083333,343.33813336233527L763.1971875,343.7442133510509L763.9823697916667,343.9878613442803L764.7675520833333,344.13405014021794L766.3379166666667,344.22176341778055L767.1230989583333,344.2743913843181L767.90828125,344.30596816424065L768.6934635416667,344.32491423219415L769.4786458333333,344.33628187296625L770.263828125,344.34310245742955L771.0490104166666,344.3471948081075L771.8341927083334,344.3496502185143L772.619375,344.3511234647583L773.4045572916666,344.35200741250475L774.1897395833333,344.35253778115265L774.9749218750001,344.35285600234135L775.7601041666667,344.3530469350546L776.5452864583334,344.3531614946825L777.3304687499999,344.3532302304593L778.9008333333334,344.3532714719254L779.686015625,344.353296216805L780.4711979166667,344.35331106373275L781.2563802083333,344.35331997188945L782.0415624999999,344.3533253167834L782.8267447916667,344.3533285237198L783.6119270833333,344.35333044788166L784.397109375,344.3533316023788L785.1822916666667,344.35333229507705L785.9674739583332,344.35333271069595L786.75265625,344.35333296006735L788.3230208333333,344.3533331096902L789.108203125,344.35333319946386L789.8933854166667,344.3533332533281L790.6785677083333,344.3533332856466L791.46375,344.3533333050378L793.0341145833333,344.35333331667243L793.8192968750001,344.3533333236532L795.3896614583333,344.3533333278417L796.1748437499999,344.3533333303548L796.9600260416667,344.35333333186264L797.7452083333334,344.35333333276736L798.530390625,344.35333333331016L799.3155729166667,344.3533333336359L800.1007552083333,344.3533333338313L800.8859375,344.3533333339485L801.6711197916667,344.35333333401894L802.4563020833333,344.3533333340611L803.241484375,344.3533333340864L804.0266666666668,344.3533333341016L804.8118489583333,344.35333333411074L805.59703125,344.3533333341162L806.3822135416667,344.3533333341195L807.1673958333333,344.3533333341215L807.9525781250001,344.3533333341227L808.7377604166667,344.35333333412336L809.5229427083333,344.35333333412376L810.308125,344.35333333412404L811.0933072916666,344.3533333341242L811.8784895833334,344.3533333341243L812.6636718750001,344.35333333412433L813.4488541666666,344.3533333341244L814.2340364583333,344.3533333341244L815.8044010416667,344.3533333341244L816.5895833333334,344.3533333341244L817.374765625,344.3533333341244L818.1599479166666,344.3533333341244L818.9451302083334,344.3533333341244L819.7303125,344.3533333341244L820.5154947916667,344.3533333341244L821.3006770833333,344.3533333341244L822.085859375,344.3533333341244L822.8710416666667,344.3533333341244L823.6562239583333,344.3533333341244L824.44140625,344.3533333341244L825.2265885416667,344.3533333341244L826.0117708333333,344.3533333341244L826.796953125,344.3533333341244L827.5821354166667,344.3533333341244L828.3673177083333,344.3533333341244L829.1525,344.3533333341244L829.9376822916666,344.3533333341244L831.508046875,344.3533333341244L832.2932291666666,344.3533333341244L833.0784114583333,344.3533333341244L833.8635937500001,344.3533333341244L834.6487760416667,344.3533333341244L835.4339583333334,344.3533333341244L836.2191406249999,344.3533333341244L837.7895052083334,344.3533333341244L838.5746875,344.3533333341244L839.3598697916667,344.3533333341244L840.1450520833333,344.3533333341244L840.9302343749999,344.3533333341244L841.7154166666667,344.3533333341244L842.5005989583333,344.3533333341244L844.0709635416667,344.3533333341244L844.8561458333332,344.3533333341244L845.641328125,344.3533333341244L846.4265104166667,344.3533333341244L847.2116927083333,344.3533333341244L847.996875,344.3533333341244L848.7820572916667,344.3533333341244L849.5672395833333,344.3533333341244L850.352421875,344.3533333341244L851.9227864583333,344.3533333341244L852.7079687500001,344.3533333341244L853.4931510416667,344.3533333341244L854.2783333333333,344.3533333341244L855.0635156249999,344.3533333341244L855.8486979166667,344.3533333341244L856.6338802083334,344.3533333341244L857.4190625,344.3533333341244L858.2042447916667,344.3533333341244L858.9894270833333,344.3533333341244L859.774609375,344.3533333341244L860.5597916666667,344.3533333341244L861.3449739583333,344.3533333341244L862.13015625,344.3533333341244L862.9153385416668,344.3533333341244L863.7005208333333,344.3533333341244L864.485703125,344.3533333341244L865.2708854166667,344.3533333341244L866.0560677083333,344.3533333341244L866.8412500000001,344.3533333341244L867.6264322916667,344.3533333341244L868.4116145833333,344.3533333341244L869.196796875,344.3533333341244L870.7671614583334,344.3533333341244L871.5523437500001,344.3533333341244L872.3375260416666,344.3533333341244L873.1227083333333,344.3533333341244L873.9078906249999,344.3533333341244L874.6930729166667,344.3533333341244L875.4782552083334,344.3533333341244L876.2634375,344.3533333341244L877.0486197916666,344.3533333341244L878.618984375,344.3533333341244L879.4041666666667,344.46613333366156L880.1893489583333,344.5338133333838L880.97453125,344.5744213332172L881.7597135416667,344.5987861331172L882.5448958333333,344.61340501305716L883.330078125,344.62217634102115L884.1152604166667,344.62743913779957L884.9004427083333,344.63059681586657L885.685625,344.63249142270683L886.4708072916667,344.633628186811L887.2559895833333,344.63431024527347L888.041171875,344.63471948035095L888.8263541666666,344.6349650213974L890.39671875,344.6351123460253L891.1819010416666,344.6352007408021L891.9670833333333,344.6352537776681L892.7522656250001,344.6352855997877L893.5374479166667,344.6353046930595L894.3226302083334,344.6353161490226L895.1078124999999,344.6353230226004L895.8929947916666,344.6353271467471L896.6781770833334,344.63532962123514L897.463359375,344.63533110592795L898.2485416666667,344.6353319967436L899.0337239583333,344.6353325312331L899.8189062499999,344.6353328519267L900.6040885416667,344.6353330443429L901.3892708333333,344.6353331597926L902.174453125,344.63533322906244L902.9596354166667,344.6353332706243L903.7448177083332,344.63533329556145L904.53,344.6353333105237L905.3151822916667,344.6353333195011L906.1003645833333,344.63533332488754" style="fill: none;" fill="none"></path></g></g></g></g><g opacity="0.2"><g><g><g><path stroke="rgb(255, 112, 67)" stroke-width="2px" d="M78.51822916666666,31.333318450798604L79.30341145833333,31.333318450798604L80.08859375,31.333318450798604L80.87377604166666,31.333318450798604L81.65895833333333,31.333318450798604L82.44414062499999,31.333318450798604L83.22932291666666,31.333318450798604L84.01450520833333,31.333318450798604L84.79968749999999,31.333318450798604L85.58486979166666,31.333318450798604L86.37005208333333,31.333318450798604L87.15523437499999,31.333318450798604L88.72559895833334,31.333318450798604L89.51078125000001,31.333318450798604L90.29596354166667,31.333318450798604L91.08114583333334,31.333318450798604L91.86632812500001,31.333318450798604L92.65151041666667,31.333318450798604L93.43669270833334,31.333318450798604L94.22187500000001,31.333318450798604L95.00705729166667,31.333318450798604L95.79223958333334,31.333318450798604L96.577421875,31.333318450798604L98.14778645833334,31.333318450798604L98.93296875,31.333318450798604L99.71815104166667,31.333318450798604L100.50333333333334,31.333318450798604L101.288515625,31.333318450798604L102.07369791666667,31.333318450798604L102.85888020833333,31.333318450798604L103.6440625,31.333318450798604L104.42924479166668,31.333318450798604L105.21442708333333,31.333318450798604L105.999609375,31.333318450798604L106.78479166666666,31.333318450798604L107.56997395833334,31.333318450798604L108.35515625000001,31.333318450798604L109.14033854166667,31.333318450798604L109.92552083333334,31.333318450798604L111.49588541666667,31.333318450798604L112.28106770833334,31.333318450798604L113.06625,31.333318450798604L113.85143229166667,31.333318450798604L114.63661458333334,31.333318450798604L115.421796875,31.333318450798604L116.20697916666667,31.333318450798604L116.99216145833333,31.333318450798604L117.77734375,31.333318450798604L118.56252604166666,31.333318450798604L119.34770833333334,31.333318450798604L120.132890625,31.333318450798604L120.91807291666666,31.333318450798604L121.70325520833335,31.333318450798604L122.4884375,31.333318450798604L123.27361979166666,31.333318450798604L124.05880208333332,31.333318450798604L125.62916666666666,31.333318450798604L126.41434895833332,31.333318450798604L127.19953125,31.333318450798604L127.98471354166666,31.333318450798604L129.55507812500002,31.333318450798604L130.34026041666667,31.333318450798604L131.12544270833334,31.333318450798604L131.910625,31.333318450798604L132.69580729166668,31.333318450798604L133.48098958333333,31.333318450798604L134.266171875,31.333318450798604L135.05135416666667,31.333318450798604L135.83653645833334,31.333318450798604L136.62171874999999,31.333318450798604L137.40690104166669,31.333318450798604L138.19208333333333,31.333318450798604L138.977265625,31.333318450798604L139.76244791666667,31.333318450798604L140.54763020833335,31.333318450798604L141.3328125,31.333318450798604L142.1179947916667,31.333318450798604L142.90317708333333,31.333318450798604L143.688359375,31.333318450798604L144.47354166666665,31.333318450798604L145.25872395833335,31.333318450798604L146.04390625,31.333318450798604L146.82908854166666,31.333318450798604L147.61427083333334,31.333318450798604L148.399453125,31.333318450798604L149.18463541666665,31.333318450798604L150.755,31.333318450798604L151.54018229166667,31.333318450798604L152.3253645833333,31.333318450798604L153.110546875,31.333318450798604L153.89572916666665,31.333318450798604L154.68091145833333,31.333318450798604L155.46609375,31.333318450798604L156.25127604166667,31.333318450798604L157.03645833333331,31.333318450798604L157.82164062500001,31.333318450798604L158.60682291666666,31.333318450798604L159.39200520833333,31.333318450798604L160.1771875,31.333318450798604L160.96236979166667,31.333318450798604L161.74755208333332,31.333318450798604L162.532734375,31.333318450798604L163.31791666666666,31.333318450798604L164.10309895833333,31.333318450798604L164.88828124999998,31.333318450798604L165.67346354166668,31.333318450798604L166.45864583333332,31.333318450798604L168.02901041666667,31.333318450798604L168.81419270833334,31.333318450798604L169.59937499999998,31.333318450798604L170.38455729166668,31.333318450798604L171.16973958333332,31.333318450798604L171.954921875,31.333318450798604L172.74010416666667,31.333318450798604L173.52528645833334,31.333318450798604L174.31046874999998,31.333318450798604L175.09565104166666,31.333318450798604L175.88083333333333,31.333318450798604L176.666015625,31.333318450798604L177.45119791666667,31.333318450798604L178.23638020833334,31.333318450798604L179.02156250000002,31.333318450798604L179.80674479166666,31.333318450798604L180.59192708333333,31.333318450798604L181.377109375,31.333318450798604L182.16229166666668,31.333318450798604L182.94747395833332,31.333318450798604L183.73265625000002,31.333318450798604L184.51783854166666,31.333318450798604L185.30302083333333,31.333318450798604L186.088203125,31.333318450798604L186.87338541666668,31.333318450798604L187.65856770833332,31.333318450798604L188.44375000000002,31.333318450798604L189.22893229166667,31.333318450798604L190.01411458333334,31.333318450798604L190.799296875,31.333318450798604L191.58447916666668,31.333318450798604L192.36966145833333,31.333318450798604L193.15484375,31.333318450798604L193.94002604166667,31.333318450798604L194.72520833333334,31.333318450798604L196.29557291666669,31.333318450798604L197.8659375,31.333318450798604L198.65111979166667,31.333318450798604L199.43630208333335,31.333318450798604L200.221484375,31.333318450798604L201.0066666666667,31.333318450798604L201.79184895833333,31.333318450798604L202.57703125,31.333318450798604L203.36221354166665,31.333318450798604L204.14739583333335,31.333318450798604L204.932578125,31.333318450798604L205.71776041666666,31.333318450798604L206.50294270833334,31.333318450798604L207.288125,31.333318450798604L208.07330729166665,31.333318450798604L208.85848958333335,31.333318450798604L209.643671875,31.333318450798604L210.42885416666667,31.333318450798604L211.2140364583333,31.333318450798604L211.99921875,31.333318450798604L212.78440104166665,31.333318450798604L213.56958333333333,31.333318450798604L214.354765625,31.333318450798604L215.13994791666667,31.333318450798604L215.92513020833331,31.333318450798604L216.71031250000001,31.333318450798604L217.49549479166666,31.333318450798604L218.28067708333333,31.333318450798604L219.065859375,31.333318450798604L219.85104166666667,31.333318450798604L220.63622395833332,31.333318450798604L221.42140625,31.333318450798604L222.20658854166666,31.333318450798604L222.99177083333333,31.333318450798604L223.77695312499998,31.333318450798604L224.56213541666668,31.333318450798604L226.1325,31.333318450798604L226.91768229166667,31.333318450798604L227.70286458333334,31.333318450798604L228.48804687499998,31.333318450798604L229.27322916666668,31.333318450798604L230.05841145833332,31.333318450798604L230.84359375,31.333318450798604L231.62877604166667,31.333318450798604L232.41395833333334,31.333318450798604L233.19914062499998,31.333318450798604L233.98432291666666,31.333318450798604L234.76950520833333,31.333318450798604L235.5546875,31.333318450798604L237.12505208333332,31.333318450798604L237.91023437500002,31.333318450798604L238.6954166666667,31.333318450798604L239.48059895833333,31.333318450798604L240.26578125,31.333318450798604L241.05096354166668,31.333318450798604L241.83614583333332,31.333318450798604L242.62132812500002,31.333318450798604L243.4065104166667,31.333318450798604L244.19169270833333,31.333318450798604L244.976875,31.333318450798604L245.76205729166665,31.333318450798604L246.54723958333332,31.333318450798604L247.33242187500002,31.333318450798604L248.11760416666664,31.333318450798604L248.90278645833334,31.333318450798604L249.68796875,31.333318450798604L250.47315104166665,31.333318450798604L251.25833333333333,31.333318450798604L252.04351562500003,31.333318450798604L252.82869791666664,31.333318450798604L253.61388020833334,31.333318450798604L254.3990625,31.333318450798604L255.18424479166666,31.333318450798604L255.96942708333333,31.333318450798604L256.75460937500003,31.333318450798604L257.53979166666664,31.333318450798604L258.3249739583333,31.333318450798604L259.11015625000005,31.333318450798604L259.89533854166666,31.333318450798604L260.68052083333333,31.333318450798604L261.465703125,31.333318450798604L262.2508854166667,31.333318450798604L263.03606770833335,31.333318450798604L263.82125,31.333318450798604L264.60643229166664,31.333318450798604L265.39161458333336,31.333318450798604L266.176796875,31.333318450798604L267.7471614583333,31.333318450798604L268.53234375,31.333318450798604L269.31752604166667,31.333318450798604L270.10270833333334,31.333318450798604L270.88789062499995,31.333318450798604L271.6730729166667,31.333318450798604L272.45825520833336,31.333318450798604L273.24343749999997,31.333318450798604L274.02861979166664,31.333318450798604L274.81380208333337,31.333318450798604L275.598984375,31.333318450798604L276.38416666666666,31.333318450798604L277.16934895833333,31.333318450798604L277.95453125,31.333318450798604L278.7397135416667,31.333318450798604L280.31007812499996,31.333318450798604L281.0952604166667,31.333318450798604L281.88044270833336,31.333318450798604L282.665625,31.333318450798604L283.45080729166665,31.333318450798604L284.2359895833334,31.333318450798604L285.021171875,31.333318450798604L285.80635416666667,31.333318450798604L286.59153645833334,31.333318450798604L288.1619010416667,31.333318450798604L288.9470833333333,31.333318450798604L289.73226562499997,31.333318450798604L290.5174479166667,31.333318450798604L291.3026302083333,31.333318450798604L292.87299479166666,31.333318450798604L293.6581770833333,31.333318450798604L294.443359375,31.333318450798604L295.2285416666667,31.333318450798604L296.01372395833334,31.333318450798604L296.79890625,31.333318450798604L297.5840885416667,31.333318450798604L298.3692708333333,31.333318450798604L299.15445312500003,31.333318450798604L299.9396354166667,31.333318450798604L300.7248177083333,31.333318450798604L301.51,31.333318450798604L302.29518229166666,31.333318450798604L303.08036458333333,31.333318450798604L303.865546875,31.333318450798604L304.6507291666666,31.333318450798604L305.43591145833335,31.333318450798604L306.22109375,31.333318450798604L307.00627604166664,31.333318450798604L307.7914583333333,31.333318450798604L308.57664062500004,31.333318450798604L309.36182291666665,31.333318450798604L310.1470052083333,31.333318450798604L310.9321875,31.333318450798604L311.71736979166667,31.333318450798604L312.50255208333334,31.333318450798604L313.287734375,31.333318450798604L314.07291666666663,31.333318450798604L314.85809895833336,31.333318450798604L315.64328125000003,31.333318450798604L316.42846354166664,31.333318450798604L317.2136458333333,31.333318450798604L317.99882812500005,31.333318450798604L318.78401041666666,31.333318450798604L319.56919270833333,31.333318450798604L320.354375,31.333318450798604L321.1395572916667,31.333318450798604L322.709921875,31.333318450798604L323.49510416666664,31.333318450798604L324.28028645833336,31.333318450798604L325.06546875,31.333318450798604L325.85065104166665,31.333318450798604L326.6358333333333,31.333318450798604L327.421015625,31.333318450798604L328.20619791666667,31.333318450798604L328.99138020833334,31.333318450798604L329.77656249999995,31.333318450798604L330.5617447916667,31.333318450798604L331.34692708333336,31.333318450798604L332.13210937499997,31.333318450798604L332.91729166666664,31.333318450798604L333.70247395833337,31.333318450798604L334.48765625,31.333318450798604L335.27283854166666,31.333318450798604L336.05802083333333,31.333318450798604L336.843203125,31.333318450798604L337.6283854166667,31.333318450798604L338.41356770833335,31.333318450798604L339.19874999999996,31.333318450798604L339.9839322916667,31.333318450798604L340.76911458333336,31.333318450798604L341.554296875,31.333318450798604L342.33947916666665,31.333318450798604L343.1246614583334,31.333318450798604L343.90984375,31.333318450798604L345.48020833333334,31.333318450798604L346.265390625,31.333318450798604L347.0505729166667,31.333318450798604L347.8357552083333,31.333318450798604L348.62093749999997,31.333318450798604L349.4061197916667,31.333318450798604L350.1913020833333,31.333318450798604L350.976484375,31.333318450798604L351.76166666666666,31.333318450798604L352.5468489583333,31.333318450798604L353.33203125,31.333318450798604L354.1172135416667,31.333318450798604L354.90239583333334,31.333318450798604L355.687578125,31.333318450798604L356.4727604166667,31.333318450798604L357.2579427083333,31.333318450798604L358.04312500000003,31.333318450798604L358.8283072916667,31.333318450798604L359.6134895833333,31.333318450798604L360.398671875,31.333318450798604L361.18385416666666,31.333318450798604L361.96903645833333,31.333318450798604L362.75421875,31.333318450798604L363.5394010416666,31.333318450798604L364.32458333333335,31.333318450798604L365.109765625,31.333318450798604L365.89494791666664,31.333318450798604L366.6801302083333,31.333318450798604L367.46531250000004,31.333318450798604L368.25049479166665,31.333318450798604L370.60604166666667,31.333318450798604L371.39122395833334,31.333318450798604L372.17640625,31.333318450798604L372.96158854166663,31.333318450798604L373.74677083333336,31.333318450798604L374.53195312500003,31.333318450798604L375.31713541666664,31.333318450798604L376.1023177083333,31.333318450798604L376.88750000000005,31.333318450798604L377.67268229166666,31.333318450798604L378.45786458333333,31.333318450798604L379.243046875,31.333318450798604L380.0282291666667,31.333318450798604L380.81341145833335,31.333318450798604L381.59859375,31.333318450798604L382.38377604166664,31.333318450798604L383.954140625,31.333318450798604L384.73932291666665,31.333318450798604L385.5245052083333,31.333318450798604L386.3096875,31.333318450798604L387.09486979166667,31.333318450798604L387.88005208333334,31.333318450798604L388.66523437499995,31.333318450798604L389.4504166666667,31.333318450798604L390.23559895833336,31.333318450798604L391.02078124999997,31.333318450798604L391.80596354166664,31.333318450798604L392.59114583333337,31.333318450798604L393.376328125,31.333318450798604L394.16151041666666,31.333318450798604L394.94669270833333,31.333318450798604L395.731875,31.333318450798604L396.5170572916667,31.333318450798604L397.30223958333335,31.333318450798604L398.08742187499996,31.333318450798604L398.8726041666667,31.333318450798604L399.65778645833336,31.333318450798604L400.44296875,31.333318450798604L401.22815104166665,31.333318450798604L402.0133333333334,31.333318450798604L402.798515625,31.333318450798604L403.58369791666667,31.333318450798604L404.36888020833334,31.333318450798604L405.1540625,31.333318450798604L405.9392447916667,31.333318450798604L406.7244270833333,31.333318450798604L407.50960937499997,31.333318450798604L408.2947916666667,31.333318450798604L409.0799739583333,31.333318450798604L409.86515625,31.333318450798604L410.65033854166666,31.333318450798604L411.4355208333333,31.333318450798604L412.220703125,31.333318450798604L413.0058854166667,31.333318450798604L413.79106770833334,31.333318450798604L414.57625,31.333318450798604L415.3614322916667,31.333318450798604L416.1466145833333,31.333318450798604L416.93179687500003,31.333318450798604L417.7169791666667,31.333318450798604L418.5021614583333,31.333318450798604L419.28734375,31.333318450798604L420.07252604166666,31.333318450798604L420.85770833333333,31.333318450798604L421.642890625,31.333318450798604L422.4280729166666,31.333318450798604L423.21325520833335,31.333318450798604L423.9984375,31.333318450798604L424.78361979166664,31.333318450798604L425.5688020833333,31.333318450798604L426.35398437500004,31.333318450798604L427.13916666666665,31.333318450798604L427.9243489583333,31.333318450798604L428.70953125,31.333318450798604L429.49471354166667,31.333318450798604L431.065078125,31.333318450798604L431.85026041666663,31.333318450798604L432.63544270833336,31.333318450798604L433.42062500000003,31.333318450798604L434.20580729166664,31.333318450798604L434.9909895833333,31.333318450798604L435.77617187500005,31.333318450798604L436.56135416666666,31.333318450798604L438.13171875,31.333318450798604L438.9169010416667,31.333318450798604L439.70208333333335,31.333318450798604L440.487265625,31.333318450798604L441.27244791666664,31.333318450798604L442.05763020833336,31.333318450798604L442.8428125,31.333318450798604L443.62799479166665,31.333318450798604L444.4131770833333,31.333318450798604L445.198359375,31.333318450798604L445.98354166666667,31.333318450798604L446.76872395833334,31.333318450798604L447.55390624999995,31.333318450798604L448.3390885416667,31.333318450798604L449.12427083333336,31.333318450798604L449.90945312499997,31.333318450798604L450.69463541666664,31.333318450798604L451.47981770833337,31.333318450798604L453.05018229166666,31.333318450798604L453.83536458333333,31.333318450798604L454.620546875,31.333318450798604L455.4057291666667,31.333318450798604L456.19091145833335,31.333318450798604L456.97609374999996,31.333318450798604L457.7612760416667,31.333318450798604L458.54645833333336,31.333318450798604L459.331640625,31.333318450798604L460.11682291666665,31.333318450798604L460.9020052083334,31.333318450798604L461.6871875,31.333318450798604L462.47236979166667,31.333318450798604L463.25755208333334,31.333318450798604L464.042734375,31.333318450798604L465.6130989583333,31.333318450798604L466.39828124999997,31.333318450798604L467.1834635416667,31.333318450798604L467.9686458333333,31.333318450798604L468.753828125,31.333318450798604L469.53901041666666,31.333318450798604L470.3241927083333,31.333318450798604L471.109375,31.333318450798604L471.8945572916667,31.333318450798604L472.67973958333334,31.333318450798604L473.46492187499996,31.333318450798604L474.25010416666663,31.333318450798604L475.82046875000003,31.333318450798604L476.6056510416667,31.333318450798604L477.3908333333334,31.333318450798604L478.17601562499993,31.333318450798604L478.96119791666666,31.333318450798604L479.74638020833333,31.333318450798604L480.5315625,31.333318450798604L481.3167447916667,31.333318450798604L482.10192708333335,31.333318450798604L483.67229166666664,31.333318450798604L484.4574739583333,31.333318450798604L485.24265625000004,31.333318450798604L486.0278385416667,31.333318450798604L486.8130208333334,31.333318450798604L487.59820312499994,31.333318450798604L488.38338541666667,31.333318450798604L489.16856770833334,31.333318450798604L489.95375,31.333318450798604L491.5241145833333,31.333318450798604L492.309296875,31.333318450798604L493.09447916666664,31.333318450798604L493.8796614583333,313.3333341248799L494.66484375000005,313.3333341248799L495.4500260416667,313.3333341248799L496.2352083333333,313.3333341248799L497.02039062499995,313.3333341248799L497.8055729166667,313.3333341248799L498.59075520833335,313.3333341248799L499.3759375,313.3333341248799L500.1611197916667,313.3333341248799L500.9463020833333,313.3333341248799L501.731484375,313.3333341248799L502.51666666666665,313.3333341248799L503.3018489583333,313.3333341248799L504.08703125000005,313.3333341248799L504.8722135416667,313.3333341248799L505.6573958333333,313.3333341248799L506.44257812499995,313.3333341248799L507.2277604166667,313.3333341248799L508.01294270833336,313.3333341248799L508.798125,313.3333341248799L509.5833072916667,313.3333341248799L510.3684895833333,313.3333341248799L511.153671875,313.3333341248799L511.93885416666666,313.3333341248799L512.7240364583333,313.3333341248799L513.5092187500001,313.3333341248799L514.2944010416667,313.3333341248799L515.0795833333333,313.3333341248799L515.864765625,313.3333341248799L516.6499479166666,313.3333341248799L517.4351302083334,313.3333341248799L518.2203125000001,313.3333341248799L519.0054947916666,313.3333341248799L519.7906770833333,313.3333341248799L520.5758593749999,313.3333341248799L521.3610416666667,313.3333341248799L522.1462239583334,313.3333341248799L522.93140625,313.3333341248799L523.7165885416666,313.3333341248799L524.5017708333334,313.3333341248799L525.286953125,313.3333341248799L526.0721354166667,313.3333341248799L526.8573177083333,313.3333341248799L527.6425,313.3333341248799L528.4276822916667,313.3333341248799L529.2128645833333,313.3333341248799L529.998046875,313.3333341248799L530.7832291666667,313.3333341248799L531.5684114583333,313.3333341248799L532.35359375,313.3333341248799L533.1387760416667,313.3333341248799L533.9239583333333,313.3333341248799L535.4943229166666,313.3333341248799L537.0646875,313.3333341248799L537.8498697916666,313.3333341248799L538.6350520833333,313.3333341248799L539.4202343750001,313.3333341248799L540.2054166666667,313.3333341248799L540.9905989583334,313.3333341248799L541.7757812499999,313.3333341248799L542.5609635416666,313.3333341248799L543.3461458333334,313.3333341248799L544.131328125,313.3333341248799L544.9165104166667,313.3333341248799L545.7016927083333,313.3333341248799L546.4868749999999,313.3333341248799L547.2720572916667,313.3333341248799L548.0572395833333,313.3333341248799L548.842421875,313.3333341248799L549.6276041666667,313.3333341248799L550.4127864583332,313.3333341248799L551.19796875,313.3333341248799L551.9831510416667,313.3333341248799L552.7683333333333,313.3333341248799L553.553515625,313.3333341248799L554.3386979166667,313.3333341248799L555.1238802083333,313.3333341248799L555.9090625,313.3333341248799L556.6942447916666,313.3333341248799L557.4794270833333,313.3333341248799L558.2646093750001,313.3333341248799L559.0497916666667,313.3333341248799L559.8349739583333,313.3333341248799L560.6201562499999,313.3333341248799L561.4053385416667,313.3333341248799L562.1905208333334,313.3333341248799L562.975703125,313.3333341248799L563.7608854166667,313.3333341248799L564.5460677083333,313.3333341248799L565.33125,313.3333341248799L566.1164322916667,313.3333341248799L566.9016145833333,313.3333341248799L567.686796875,313.3333341248799L568.4719791666668,313.3333341248799L569.2571614583333,313.3333341248799L570.04234375,313.3333341248799L570.8275260416667,313.3333341248799L571.6127083333333,313.3333341248799L572.3978906250001,313.3333341248799L573.1830729166667,313.3333341248799L573.9682552083333,313.3333341248799L574.7534375,313.3333341248799L575.5386197916666,313.3333341248799L576.3238020833334,313.3333341248799L577.1089843750001,313.3333341248799L577.8941666666666,313.3333341248799L578.6793489583333,313.3333341248799L579.4645312499999,313.3333341248799L580.2497135416667,313.3333341248799L581.0348958333334,313.3333341248799L581.820078125,313.3333341248799L582.6052604166666,313.3333341248799L583.3904427083334,313.3333341248799L584.175625,313.3333341248799L584.9608072916667,313.3333341248799L585.7459895833333,313.3333341248799L587.3163541666667,313.3333341248799L588.1015364583333,313.3333341248799L588.88671875,313.3333341248799L589.6719010416667,313.3333341248799L590.4570833333333,313.3333341248799L591.242265625,313.3333341248799L592.0274479166667,313.3333341248799L592.8126302083333,313.3333341248799L593.5978125,313.3333341248799L594.3829947916666,313.3333341248799L595.1681770833334,313.3333341248799L595.953359375,313.3333341248799L596.7385416666666,313.3333341248799L597.5237239583333,313.3333341248799L598.3089062500001,313.3333341248799L599.0940885416667,313.3333341248799L599.8792708333334,313.3333341248799L600.6644531249999,313.3333341248799L601.4496354166666,313.3333341248799L602.2348177083334,313.3333341248799L603.8051822916667,313.3333341248799L604.5903645833333,313.3333341248799L605.3755468749999,313.3333341248799L606.1607291666667,313.3333341248799L606.9459114583333,313.3333341248799L607.73109375,313.3333341248799L608.5162760416667,313.3333341248799L609.3014583333332,313.3333341248799L610.086640625,313.3333341248799L610.8718229166667,313.3333341248799L611.6570052083333,313.3333341248799L612.4421875,313.3333341248799L613.2273697916667,313.3333341248799L614.0125520833333,313.3333341248799L614.797734375,313.3333341248799L615.5829166666666,313.3333341248799L616.3680989583333,313.3333341248799L617.1532812500001,313.3333341248799L617.9384635416667,313.3333341248799L618.7236458333333,313.3333341248799L619.5088281249999,313.3333341248799L620.2940104166667,313.3333341248799L621.0791927083334,313.3333341248799L621.864375,313.3333341248799L622.6495572916667,313.3333341248799L623.4347395833333,313.3333341248799L624.219921875,313.3333341248799L625.0051041666667,313.3333341248799L625.7902864583333,313.3333341248799L626.57546875,313.3333341248799L627.3606510416668,313.3333341248799L628.1458333333333,313.3333341248799L629.7161979166667,313.3333341248799L630.5013802083333,313.3333341248799L631.2865625000001,313.3333341248799L632.0717447916667,313.3333341248799L632.8569270833333,313.3333341248799L633.642109375,313.3333341248799L634.4272916666666,313.3333341248799L635.2124739583334,313.3333341248799L635.9976562500001,313.3333341248799L636.7828385416666,313.3333341248799L637.5680208333333,313.3333341248799L638.3532031249999,313.3333341248799L639.1383854166667,313.3333341248799L639.9235677083334,313.3333341248799L640.70875,313.3333341248799L641.4939322916666,313.3333341248799L642.2791145833334,313.3333341248799L643.064296875,313.3333341248799L643.8494791666667,341.533333412488L644.6346614583333,341.533333412488L645.41984375,341.533333412488L646.2050260416667,341.533333412488L646.9902083333333,341.533333412488L647.775390625,341.533333412488L648.5605729166667,341.533333412488L649.3457552083333,341.533333412488L650.1309375,341.533333412488L650.9161197916667,341.533333412488L651.7013020833333,341.533333412488L652.486484375,341.533333412488L653.2716666666666,341.533333412488L654.0568489583334,341.533333412488L654.84203125,341.533333412488L655.6272135416666,341.533333412488L656.4123958333333,341.533333412488L657.1975781250001,341.533333412488L657.9827604166667,341.533333412488L658.7679427083334,341.533333412488L659.5531249999999,341.533333412488L660.3383072916666,341.533333412488L661.1234895833334,341.533333412488L661.908671875,341.533333412488L662.6938541666667,341.533333412488L663.4790364583333,341.533333412488L664.2642187499999,341.533333412488L665.0494010416667,341.533333412488L666.619765625,341.533333412488L667.4049479166667,341.533333412488L668.1901302083332,341.533333412488L668.9753125,341.533333412488L669.7604947916667,341.533333412488L670.5456770833333,341.533333412488L671.330859375,341.533333412488L672.1160416666667,341.533333412488L672.9012239583333,341.533333412488L673.68640625,341.533333412488L674.4715885416666,341.533333412488L676.0419531250001,341.533333412488L676.8271354166667,341.533333412488L677.6123177083333,341.533333412488L678.3974999999999,341.533333412488L679.1826822916667,341.533333412488L679.9678645833334,341.533333412488L680.753046875,341.533333412488L681.5382291666667,341.533333412488L682.3234114583333,341.533333412488L683.10859375,341.533333412488L683.8937760416667,341.533333412488L684.6789583333333,341.533333412488L685.464140625,341.533333412488L687.0345052083333,341.533333412488L687.8196875,341.533333412488L688.6048697916667,341.533333412488L689.3900520833333,341.533333412488L690.1752343750001,341.533333412488L690.9604166666667,341.533333412488L691.7455989583333,341.533333412488L692.53078125,341.533333412488L693.3159635416666,341.533333412488L694.8863281250001,341.533333412488L695.6715104166666,341.533333412488L696.4566927083333,341.533333412488L697.2418749999999,341.533333412488L698.0270572916667,341.533333412488L698.8122395833334,341.533333412488L699.597421875,341.533333412488L700.3826041666666,341.533333412488L701.1677864583334,341.533333412488L701.95296875,341.533333412488L702.7381510416667,341.533333412488L703.5233333333333,341.533333412488L704.308515625,341.533333412488L705.0936979166667,341.533333412488L705.8788802083333,341.533333412488L706.6640625,341.533333412488L708.2344270833333,341.533333412488L709.019609375,341.533333412488L709.8047916666667,341.533333412488L710.5899739583333,341.533333412488L711.37515625,341.533333412488L712.1603385416666,341.533333412488L712.9455208333334,341.533333412488L713.730703125,341.533333412488L714.5158854166666,341.533333412488L715.3010677083333,341.533333412488L716.0862500000001,341.533333412488L716.8714322916667,341.533333412488L717.6566145833334,341.533333412488L718.4417968749999,341.533333412488L719.2269791666666,341.533333412488L720.0121614583334,341.533333412488L720.79734375,341.533333412488L721.5825260416667,341.533333412488L722.3677083333333,341.533333412488L723.1528906249999,341.533333412488L723.9380729166667,341.533333412488L724.7232552083333,341.533333412488L725.5084375,341.533333412488L726.2936197916667,341.533333412488L727.0788020833332,341.533333412488L727.863984375,341.533333412488L728.6491666666667,341.533333412488L729.4343489583333,341.533333412488L730.21953125,341.533333412488L731.0047135416667,341.533333412488L731.7898958333333,341.533333412488L732.575078125,341.533333412488L733.3602604166666,341.533333412488L734.1454427083333,341.533333412488L734.9306250000001,341.533333412488L735.7158072916667,341.533333412488L736.5009895833333,341.533333412488L737.2861718749999,341.533333412488L738.0713541666667,341.533333412488L739.64171875,341.533333412488L740.4269010416667,341.533333412488L741.2120833333333,341.533333412488L741.997265625,341.533333412488L743.5676302083333,341.533333412488L744.3528125,341.533333412488L745.1379947916668,341.533333412488L745.9231770833333,341.533333412488L746.708359375,341.533333412488L748.2787239583333,341.533333412488L749.0639062500001,341.533333412488L749.8490885416667,341.533333412488L750.6342708333333,341.533333412488L751.419453125,341.533333412488L752.2046354166666,341.533333412488L752.9898177083334,341.533333412488L753.7750000000001,341.533333412488L754.5601822916666,341.533333412488L755.3453645833333,341.533333412488L757.7009114583334,341.533333412488L758.48609375,341.533333412488L759.2712760416666,341.533333412488L760.0564583333334,341.533333412488L760.841640625,341.533333412488L761.6268229166667,344.3533333341244L762.4120052083333,344.3533333341244L763.1971875,344.3533333341244L763.9823697916667,344.3533333341244L764.7675520833333,344.3533333341244L766.3379166666667,344.3533333341244L767.1230989583333,344.3533333341244L767.90828125,344.3533333341244L768.6934635416667,344.3533333341244L769.4786458333333,344.3533333341244L770.263828125,344.3533333341244L771.0490104166666,344.3533333341244L771.8341927083334,344.3533333341244L772.619375,344.3533333341244L773.4045572916666,344.3533333341244L774.1897395833333,344.3533333341244L774.9749218750001,344.3533333341244L775.7601041666667,344.3533333341244L776.5452864583334,344.3533333341244L777.3304687499999,344.3533333341244L778.9008333333334,344.3533333341244L779.686015625,344.3533333341244L780.4711979166667,344.3533333341244L781.2563802083333,344.3533333341244L782.0415624999999,344.3533333341244L782.8267447916667,344.3533333341244L783.6119270833333,344.3533333341244L784.397109375,344.3533333341244L785.1822916666667,344.3533333341244L785.9674739583332,344.3533333341244L786.75265625,344.3533333341244L788.3230208333333,344.3533333341244L789.108203125,344.3533333341244L789.8933854166667,344.3533333341244L790.6785677083333,344.3533333341244L791.46375,344.3533333341244L793.0341145833333,344.3533333341244L793.8192968750001,344.3533333341244L795.3896614583333,344.3533333341244L796.1748437499999,344.3533333341244L796.9600260416667,344.3533333341244L797.7452083333334,344.3533333341244L798.530390625,344.3533333341244L799.3155729166667,344.3533333341244L800.1007552083333,344.3533333341244L800.8859375,344.3533333341244L801.6711197916667,344.3533333341244L802.4563020833333,344.3533333341244L803.241484375,344.3533333341244L804.0266666666668,344.3533333341244L804.8118489583333,344.3533333341244L805.59703125,344.3533333341244L806.3822135416667,344.3533333341244L807.1673958333333,344.3533333341244L807.9525781250001,344.3533333341244L808.7377604166667,344.3533333341244L809.5229427083333,344.3533333341244L810.308125,344.3533333341244L811.0933072916666,344.3533333341244L811.8784895833334,344.3533333341244L812.6636718750001,344.3533333341244L813.4488541666666,344.3533333341244L814.2340364583333,344.3533333341244L815.8044010416667,344.3533333341244L816.5895833333334,344.3533333341244L817.374765625,344.3533333341244L818.1599479166666,344.3533333341244L818.9451302083334,344.3533333341244L819.7303125,344.3533333341244L820.5154947916667,344.3533333341244L821.3006770833333,344.3533333341244L822.085859375,344.3533333341244L822.8710416666667,344.3533333341244L823.6562239583333,344.3533333341244L824.44140625,344.3533333341244L825.2265885416667,344.3533333341244L826.0117708333333,344.3533333341244L826.796953125,344.3533333341244L827.5821354166667,344.3533333341244L828.3673177083333,344.3533333341244L829.1525,344.3533333341244L829.9376822916666,344.3533333341244L831.508046875,344.3533333341244L832.2932291666666,344.3533333341244L833.0784114583333,344.3533333341244L833.8635937500001,344.3533333341244L834.6487760416667,344.3533333341244L835.4339583333334,344.3533333341244L836.2191406249999,344.3533333341244L837.7895052083334,344.3533333341244L838.5746875,344.3533333341244L839.3598697916667,344.3533333341244L840.1450520833333,344.3533333341244L840.9302343749999,344.3533333341244L841.7154166666667,344.3533333341244L842.5005989583333,344.3533333341244L844.0709635416667,344.3533333341244L844.8561458333332,344.3533333341244L845.641328125,344.3533333341244L846.4265104166667,344.3533333341244L847.2116927083333,344.3533333341244L847.996875,344.3533333341244L848.7820572916667,344.3533333341244L849.5672395833333,344.3533333341244L850.352421875,344.3533333341244L851.9227864583333,344.3533333341244L852.7079687500001,344.3533333341244L853.4931510416667,344.3533333341244L854.2783333333333,344.3533333341244L855.0635156249999,344.3533333341244L855.8486979166667,344.3533333341244L856.6338802083334,344.3533333341244L857.4190625,344.3533333341244L858.2042447916667,344.3533333341244L858.9894270833333,344.3533333341244L859.774609375,344.3533333341244L860.5597916666667,344.3533333341244L861.3449739583333,344.3533333341244L862.13015625,344.3533333341244L862.9153385416668,344.3533333341244L863.7005208333333,344.3533333341244L864.485703125,344.3533333341244L865.2708854166667,344.3533333341244L866.0560677083333,344.3533333341244L866.8412500000001,344.3533333341244L867.6264322916667,344.3533333341244L868.4116145833333,344.3533333341244L869.196796875,344.3533333341244L870.7671614583334,344.3533333341244L871.5523437500001,344.3533333341244L872.3375260416666,344.3533333341244L873.1227083333333,344.3533333341244L873.9078906249999,344.3533333341244L874.6930729166667,344.3533333341244L875.4782552083334,344.3533333341244L876.2634375,344.3533333341244L877.0486197916666,344.3533333341244L878.618984375,344.3533333341244L879.4041666666667,344.6353333329672L880.1893489583333,344.6353333329672L880.97453125,344.6353333329672L881.7597135416667,344.6353333329672L882.5448958333333,344.6353333329672L883.330078125,344.6353333329672L884.1152604166667,344.6353333329672L884.9004427083333,344.6353333329672L885.685625,344.6353333329672L886.4708072916667,344.6353333329672L887.2559895833333,344.6353333329672L888.041171875,344.6353333329672L888.8263541666666,344.6353333329672L890.39671875,344.6353333329672L891.1819010416666,344.6353333329672L891.9670833333333,344.6353333329672L892.7522656250001,344.6353333329672L893.5374479166667,344.6353333329672L894.3226302083334,344.6353333329672L895.1078124999999,344.6353333329672L895.8929947916666,344.6353333329672L896.6781770833334,344.6353333329672L897.463359375,344.6353333329672L898.2485416666667,344.6353333329672L899.0337239583333,344.6353333329672L899.8189062499999,344.6353333329672L900.6040885416667,344.6353333329672L901.3892708333333,344.6353333329672L902.174453125,344.6353333329672L902.9596354166667,344.6353333329672L903.7448177083332,344.6353333329672L904.53,344.6353333329672L905.3151822916667,344.6353333329672L906.1003645833333,344.6353333329672" style="fill: none;" fill="none"></path></g></g></g></g></g></g><g transform="translate(74, 376)" clip-path="url(#clip_1)"><clipPath id="clip_1"><rect width="942" height="24"></rect></clipPath><g><g><line x1="0" y1="0" x2="0" y2="5" style="visibility: inherit;" fill="rgb(0, 0, 0)" stroke="rgb(204, 204, 204)" stroke-width="1px"></line><line x1="78.51822916666666" y1="0" x2="78.51822916666666" y2="5" style="visibility: inherit;" fill="rgb(0, 0, 0)" stroke="rgb(204, 204, 204)" stroke-width="1px"></line><line x1="157.03645833333331" y1="0" x2="157.03645833333331" y2="5" style="visibility: inherit;" fill="rgb(0, 0, 0)" stroke="rgb(204, 204, 204)" stroke-width="1px"></line><line x1="235.5546875" y1="0" x2="235.5546875" y2="5" style="visibility: inherit;" fill="rgb(0, 0, 0)" stroke="rgb(204, 204, 204)" stroke-width="1px"></line><line x1="314.07291666666663" y1="0" x2="314.07291666666663" y2="5" style="visibility: inherit;" fill="rgb(0, 0, 0)" stroke="rgb(204, 204, 204)" stroke-width="1px"></line><line x1="392.59114583333337" y1="0" x2="392.59114583333337" y2="5" style="visibility: inherit;" fill="rgb(0, 0, 0)" stroke="rgb(204, 204, 204)" stroke-width="1px"></line><line x1="471.109375" y1="0" x2="471.109375" y2="5" style="visibility: inherit;" fill="rgb(0, 0, 0)" stroke="rgb(204, 204, 204)" stroke-width="1px"></line><line x1="549.6276041666667" y1="0" x2="549.6276041666667" y2="5" style="visibility: inherit;" fill="rgb(0, 0, 0)" stroke="rgb(204, 204, 204)" stroke-width="1px"></line><line x1="628.1458333333333" y1="0" x2="628.1458333333333" y2="5" style="visibility: inherit;" fill="rgb(0, 0, 0)" stroke="rgb(204, 204, 204)" stroke-width="1px"></line><line x1="706.6640625" y1="0" x2="706.6640625" y2="5" style="visibility: inherit;" fill="rgb(0, 0, 0)" stroke="rgb(204, 204, 204)" stroke-width="1px"></line><line x1="785.1822916666667" y1="0" x2="785.1822916666667" y2="5" style="visibility: inherit;" fill="rgb(0, 0, 0)" stroke="rgb(204, 204, 204)" stroke-width="1px"></line><line x1="863.7005208333333" y1="0" x2="863.7005208333333" y2="5" style="visibility: inherit;" fill="rgb(0, 0, 0)" stroke="rgb(204, 204, 204)" stroke-width="1px"></line><line x1="942.21875" y1="0" x2="942.21875" y2="5" style="visibility: inherit;" fill="rgb(0, 0, 0)" stroke="rgb(204, 204, 204)" stroke-width="1px"></line></g><g transform="translate(0, 8)"><text x="0" y="0" dx="0em" dy="0.95em" style="text-anchor: middle; visibility: hidden; font-family: Roboto, sans-serif; font-size: 12px; font-weight: 200;" fill="rgb(255, 255, 255)" stroke="none" stroke-width="1px">-100</text><text x="78.51822916666666" y="0" dx="0em" dy="0.95em" style="text-anchor: middle; visibility: inherit; font-family: Roboto, sans-serif; font-size: 12px; font-weight: 200;" fill="rgb(255, 255, 255)" stroke="none" stroke-width="1px">0</text><text x="157.03645833333331" y="0" dx="0em" dy="0.95em" style="text-anchor: middle; visibility: inherit; font-family: Roboto, sans-serif; font-size: 12px; font-weight: 200;" fill="rgb(255, 255, 255)" stroke="none" stroke-width="1px">100</text><text x="235.5546875" y="0" dx="0em" dy="0.95em" style="text-anchor: middle; visibility: inherit; font-family: Roboto, sans-serif; font-size: 12px; font-weight: 200;" fill="rgb(255, 255, 255)" stroke="none" stroke-width="1px">200</text><text x="314.07291666666663" y="0" dx="0em" dy="0.95em" style="text-anchor: middle; visibility: inherit; font-family: Roboto, sans-serif; font-size: 12px; font-weight: 200;" fill="rgb(255, 255, 255)" stroke="none" stroke-width="1px">300</text><text x="392.59114583333337" y="0" dx="0em" dy="0.95em" style="text-anchor: middle; visibility: inherit; font-family: Roboto, sans-serif; font-size: 12px; font-weight: 200;" fill="rgb(255, 255, 255)" stroke="none" stroke-width="1px">400</text><text x="471.109375" y="0" dx="0em" dy="0.95em" style="text-anchor: middle; visibility: inherit; font-family: Roboto, sans-serif; font-size: 12px; font-weight: 200;" fill="rgb(255, 255, 255)" stroke="none" stroke-width="1px">500</text><text x="549.6276041666667" y="0" dx="0em" dy="0.95em" style="text-anchor: middle; visibility: inherit; font-family: Roboto, sans-serif; font-size: 12px; font-weight: 200;" fill="rgb(255, 255, 255)" stroke="none" stroke-width="1px">600</text><text x="628.1458333333333" y="0" dx="0em" dy="0.95em" style="text-anchor: middle; visibility: inherit; font-family: Roboto, sans-serif; font-size: 12px; font-weight: 200;" fill="rgb(255, 255, 255)" stroke="none" stroke-width="1px">700</text><text x="706.6640625" y="0" dx="0em" dy="0.95em" style="text-anchor: middle; visibility: inherit; font-family: Roboto, sans-serif; font-size: 12px; font-weight: 200;" fill="rgb(255, 255, 255)" stroke="none" stroke-width="1px">800</text><text x="785.1822916666667" y="0" dx="0em" dy="0.95em" style="text-anchor: middle; visibility: inherit; font-family: Roboto, sans-serif; font-size: 12px; font-weight: 200;" fill="rgb(255, 255, 255)" stroke="none" stroke-width="1px">900</text><text x="863.7005208333333" y="0" dx="0em" dy="0.95em" style="text-anchor: middle; visibility: inherit; font-family: Roboto, sans-serif; font-size: 12px; font-weight: 200;" fill="rgb(255, 255, 255)" stroke="none" stroke-width="1px">1k</text><text x="942.21875" y="0" dx="0em" dy="0.95em" style="text-anchor: middle; visibility: hidden; font-family: Roboto, sans-serif; font-size: 12px; font-weight: 200;" fill="rgb(255, 255, 255)" stroke="none" stroke-width="1px">1.1k</text></g><line x1="0" y1="0" x2="942.21875" y2="0" fill="rgb(0, 0, 0)" stroke="rgb(204, 204, 204)" stroke-width="1px"></line></g></g></g></g></svg>