<svg viewBox="0 0 1017 400" xmlns="http://www.w3.org/2000/svg"><g><g><g><g><g><line x1="53.1875" y1="376" x2="48.1875" y2="376" style="visibility: inherit;" fill="rgb(0, 0, 0)" stroke="rgb(204, 204, 204)" stroke-width="1px"></line><line x1="53.1875" y1="349.1428571428577" x2="48.1875" y2="349.1428571428577" style="visibility: inherit;" fill="rgb(0, 0, 0)" stroke="rgb(204, 204, 204)" stroke-width="1px"></line><line x1="53.1875" y1="322.2857142857153" x2="48.1875" y2="322.2857142857153" style="visibility: inherit;" fill="rgb(0, 0, 0)" stroke="rgb(204, 204, 204)" stroke-width="1px"></line><line x1="53.1875" y1="295.428571428573" x2="48.1875" y2="295.428571428573" style="visibility: inherit;" fill="rgb(0, 0, 0)" stroke="rgb(204, 204, 204)" stroke-width="1px"></line><line x1="53.1875" y1="268.5714285714282" x2="48.1875" y2="268.5714285714282" style="visibility: inherit;" fill="rgb(0, 0, 0)" stroke="rgb(204, 204, 204)" stroke-width="1px"></line><line x1="53.1875" y1="241.71428571428586" x2="48.1875" y2="241.71428571428586" style="visibility: inherit;" fill="rgb(0, 0, 0)" stroke="rgb(204, 204, 204)" stroke-width="1px"></line><line x1="53.1875" y1="214.85714285714351" x2="48.1875" y2="214.85714285714351" style="visibility: inherit;" fill="rgb(0, 0, 0)" stroke="rgb(204, 204, 204)" stroke-width="1px"></line><line x1="53.1875" y1="188.00000000000117" x2="48.1875" y2="188.00000000000117" style="visibility: inherit;" fill="rgb(0, 0, 0)" stroke="rgb(204, 204, 204)" stroke-width="1px"></line><line x1="53.1875" y1="161.14285714285646" x2="48.1875" y2="161.14285714285646" style="visibility: inherit;" fill="rgb(0, 0, 0)" stroke="rgb(204, 204, 204)" stroke-width="1px"></line><line x1="53.1875" y1="134.2857142857141" x2="48.1875" y2="134.2857142857141" style="visibility: inherit;" fill="rgb(0, 0, 0)" stroke="rgb(204, 204, 204)" stroke-width="1px"></line><line x1="53.1875" y1="107.42857142857176" x2="48.1875" y2="107.42857142857176" style="visibility: inherit;" fill="rgb(0, 0, 0)" stroke="rgb(204, 204, 204)" stroke-width="1px"></line><line x1="53.1875" y1="80.57142857142941" x2="48.1875" y2="80.57142857142941" style="visibility: inherit;" fill="rgb(0, 0, 0)" stroke="rgb(204, 204, 204)" stroke-width="1px"></line><line x1="53.1875" y1="53.714285714284685" x2="48.1875" y2="53.714285714284685" style="visibility: inherit;" fill="rgb(0, 0, 0)" stroke="rgb(204, 204, 204)" stroke-width="1px"></line><line x1="53.1875" y1="26.857142857142343" x2="48.1875" y2="26.857142857142343" style="visibility: inherit;" fill="rgb(0, 0, 0)" stroke="rgb(204, 204, 204)" stroke-width="1px"></line><line x1="53.1875" y1="0" x2="48.1875" y2="0" style="visibility: inherit;" fill="rgb(0, 0, 0)" stroke="rgb(204, 204, 204)" stroke-width="1px"></line></g><g transform="translate(43.1875, 0)"><text x="0" y="376" dx="0em" dy="0.3em" style="text-anchor: end; visibility: hidden; font-family: Roboto, sans-serif; font-size: 12px; font-weight: 200;" fill="rgb(255, 255, 255)" stroke="none" stroke-width="1px">4.03</text><text x="0" y="349.1428571428577" dx="0em" dy="0.3em" style="text-anchor: end; visibility: inherit; font-family: Roboto, sans-serif; font-size: 12px; font-weight: 200;" fill="rgb(255, 255, 255)" stroke="none" stroke-width="1px">4.04</text><text x="0" y="322.2857142857153" dx="0em" dy="0.3em" style="text-anchor: end; visibility: inherit; font-family: Roboto, sans-serif; font-size: 12px; font-weight: 200;" fill="rgb(255, 255, 255)" stroke="none" stroke-width="1px">4.05</text><text x="0" y="295.428571428573" dx="0em" dy="0.3em" style="text-anchor: end; visibility: inherit; font-family: Roboto, sans-serif; font-size: 12px; font-weight: 200;" fill="rgb(255, 255, 255)" stroke="none" stroke-width="1px">4.06</text><text x="0" y="268.5714285714282" dx="0em" dy="0.3em" style="text-anchor: end; visibility: inherit; font-family: Roboto, sans-serif; font-size: 12px; font-weight: 200;" fill="rgb(255, 255, 255)" stroke="none" stroke-width="1px">4.07</text><text x="0" y="241.71428571428586" dx="0em" dy="0.3em" style="text-anchor: end; visibility: inherit; font-family: Roboto, sans-serif; font-size: 12px; font-weight: 200;" fill="rgb(255, 255, 255)" stroke="none" stroke-width="1px">4.08</text><text x="0" y="214.85714285714351" dx="0em" dy="0.3em" style="text-anchor: end; visibility: inherit; font-family: Roboto, sans-serif; font-size: 12px; font-weight: 200;" fill="rgb(255, 255, 255)" stroke="none" stroke-width="1px">4.09</text><text x="0" y="188.00000000000117" dx="0em" dy="0.3em" style="text-anchor: end; visibility: inherit; font-family: Roboto, sans-serif; font-size: 12px; font-weight: 200;" fill="rgb(255, 255, 255)" stroke="none" stroke-width="1px">4.1</text><text x="0" y="161.14285714285646" dx="0em" dy="0.3em" style="text-anchor: end; visibility: inherit; font-family: Roboto, sans-serif; font-size: 12px; font-weight: 200;" fill="rgb(255, 255, 255)" stroke="none" stroke-width="1px">4.11</text><text x="0" y="134.2857142857141" dx="0em" dy="0.3em" style="text-anchor: end; visibility: inherit; font-family: Roboto, sans-serif; font-size: 12px; font-weight: 200;" fill="rgb(255, 255, 255)" stroke="none" stroke-width="1px">4.12</text><text x="0" y="107.42857142857176" dx="0em" dy="0.3em" style="text-anchor: end; visibility: inherit; font-family: Roboto, sans-serif; font-size: 12px; font-weight: 200;" fill="rgb(255, 255, 255)" stroke="none" stroke-width="1px">4.13</text><text x="0" y="80.57142857142941" dx="0em" dy="0.3em" style="text-anchor: end; visibility: inherit; font-family: Roboto, sans-serif; font-size: 12px; font-weight: 200;" fill="rgb(255, 255, 255)" stroke="none" stroke-width="1px">4.14</text><text x="0" y="53.714285714284685" dx="0em" dy="0.3em" style="text-anchor: end; visibility: inherit; font-family: Roboto, sans-serif; font-size: 12px; font-weight: 200;" fill="rgb(255, 255, 255)" stroke="none" stroke-width="1px">4.15</text><text x="0" y="26.857142857142343" dx="0em" dy="0.3em" style="text-anchor: end; visibility: inherit; font-family: Roboto, sans-serif; font-size: 12px; font-weight: 200;" fill="rgb(255, 255, 255)" stroke="none" stroke-width="1px">4.16</text><text x="0" y="0" dx="0em" dy="0.3em" style="text-anchor: end; visibility: hidden; font-family: Roboto, sans-serif; font-size: 12px; font-weight: 200;" fill="rgb(255, 255, 255)" stroke="none" stroke-width="1px">4.17</text></g><line x1="53.1875" y1="0" x2="53.1875" y2="376" fill="rgb(0, 0, 0)" stroke="rgb(204, 204, 204)" stroke-width="1px"></line></g></g><g transform="translate(53, 0)" clip-path="url(#clip_0)"><clipPath id="clip_0"><rect width="963" height="376"></rect></clipPath><g><g><g><line x1="0" y1="0" x2="0" y2="376" fill="rgb(0, 0, 0)" stroke="rgb(189, 189, 189)" stroke-width="1px" opacity="0.25"></line><line x1="80.31770833333333" y1="0" x2="80.31770833333333" y2="376" fill="rgb(0, 0, 0)" stroke="rgb(189, 189, 189)" stroke-width="1px" opacity="0.25"></line><line x1="160.63541666666666" y1="0" x2="160.63541666666666" y2="376" fill="rgb(0, 0, 0)" stroke="rgb(189, 189, 189)" stroke-width="1px" opacity="0.25"></line><line x1="240.953125" y1="0" x2="240.953125" y2="376" fill="rgb(0, 0, 0)" stroke="rgb(189, 189, 189)" stroke-width="1px" opacity="0.25"></line><line x1="321.2708333333333" y1="0" x2="321.2708333333333" y2="376" fill="rgb(0, 0, 0)" stroke="rgb(189, 189, 189)" stroke-width="1px" opacity="0.25"></line><line x1="401.5885416666667" y1="0" x2="401.5885416666667" y2="376" fill="rgb(0, 0, 0)" stroke="rgb(189, 189, 189)" stroke-width="1px" opacity="0.25"></line><line x1="481.90625" y1="0" x2="481.90625" y2="376" fill="rgb(0, 0, 0)" stroke="rgb(189, 189, 189)" stroke-width="1px" opacity="0.25"></line><line x1="562.2239583333334" y1="0" x2="562.2239583333334" y2="376" fill="rgb(0, 0, 0)" stroke="rgb(189, 189, 189)" stroke-width="1px" opacity="0.25"></line><line x1="642.5416666666666" y1="0" x2="642.5416666666666" y2="376" fill="rgb(0, 0, 0)" stroke="rgb(189, 189, 189)" stroke-width="1px" opacity="0.25"></line><line x1="722.859375" y1="0" x2="722.859375" y2="376" fill="rgb(0, 0, 0)" stroke="rgb(189, 189, 189)" stroke-width="1px" opacity="0.25"></line><line x1="803.1770833333334" y1="0" x2="803.1770833333334" y2="376" fill="rgb(0, 0, 0)" stroke="rgb(189, 189, 189)" stroke-width="1px" opacity="0.25"></line><line x1="883.4947916666666" y1="0" x2="883.4947916666666" y2="376" fill="rgb(0, 0, 0)" stroke="rgb(189, 189, 189)" stroke-width="1px" opacity="0.25"></line><line x1="963.8125" y1="0" x2="963.8125" y2="376" fill="rgb(0, 0, 0)" stroke="rgb(189, 189, 189)" stroke-width="1px" opacity="0.25"></line></g><g><line x1="0" y1="376" x2="963.8125" y2="376" fill="rgb(0, 0, 0)" stroke="rgb(189, 189, 189)" stroke-width="1px" opacity="0.25"></line><line x1="0" y1="349.1428571428577" x2="963.8125" y2="349.1428571428577" fill="rgb(0, 0, 0)" stroke="rgb(189, 189, 189)" stroke-width="1px" opacity="0.25"></line><line x1="0" y1="322.2857142857153" x2="963.8125" y2="322.2857142857153" fill="rgb(0, 0, 0)" stroke="rgb(189, 189, 189)" stroke-width="1px" opacity="0.25"></line><line x1="0" y1="295.428571428573" x2="963.8125" y2="295.428571428573" fill="rgb(0, 0, 0)" stroke="rgb(189, 189, 189)" stroke-width="1px" opacity="0.25"></line><line x1="0" y1="268.5714285714282" x2="963.8125" y2="268.5714285714282" fill="rgb(0, 0, 0)" stroke="rgb(189, 189, 189)" stroke-width="1px" opacity="0.25"></line><line x1="0" y1="241.71428571428586" x2="963.8125" y2="241.71428571428586" fill="rgb(0, 0, 0)" stroke="rgb(189, 189, 189)" stroke-width="1px" opacity="0.25"></line><line x1="0" y1="214.85714285714351" x2="963.8125" y2="214.85714285714351" fill="rgb(0, 0, 0)" stroke="rgb(189, 189, 189)" stroke-width="1px" opacity="0.25"></line><line x1="0" y1="188.00000000000117" x2="963.8125" y2="188.00000000000117" fill="rgb(0, 0, 0)" stroke="rgb(189, 189, 189)" stroke-width="1px" opacity="0.25"></line><line x1="0" y1="161.14285714285646" x2="963.8125" y2="161.14285714285646" fill="rgb(0, 0, 0)" stroke="rgb(189, 189, 189)" stroke-width="1px" opacity="0.25"></line><line x1="0" y1="134.2857142857141" x2="963.8125" y2="134.2857142857141" fill="rgb(0, 0, 0)" stroke="rgb(189, 189, 189)" stroke-width="1px" opacity="0.25"></line><line x1="0" y1="107.42857142857176" x2="963.8125" y2="107.42857142857176" fill="rgb(0, 0, 0)" stroke="rgb(189, 189, 189)" stroke-width="1px" opacity="0.25"></line><line x1="0" y1="80.57142857142941" x2="963.8125" y2="80.57142857142941" fill="rgb(0, 0, 0)" stroke="rgb(189, 189, 189)" stroke-width="1px" opacity="0.25"></line><line x1="0" y1="53.714285714284685" x2="963.8125" y2="53.714285714284685" fill="rgb(0, 0, 0)" stroke="rgb(189, 189, 189)" stroke-width="1px" opacity="0.25"></line><line x1="0" y1="26.857142857142343" x2="963.8125" y2="26.857142857142343" fill="rgb(0, 0, 0)" stroke="rgb(189, 189, 189)" stroke-width="1px" opacity="0.25"></line><line x1="0" y1="0" x2="963.8125" y2="0" fill="rgb(0, 0, 0)" stroke="rgb(189, 189, 189)" stroke-width="1px" opacity="0.25"></line></g></g></g><g><g><line x1="0" y1="11199.428571428596" x2="963.8125" y2="11199.428571428596" fill="rgb(0, 0, 0)" stroke="rgb(153, 153, 153)" stroke-width="1.5px"></line></g></g><g><g><line x1="80.31770833333333" y1="0" x2="80.31770833333333" y2="376" fill="rgb(0, 0, 0)" stroke="rgb(153, 153, 153)" stroke-width="1.5px"></line></g></g><g><g><g><g><g><path stroke="rgb(255, 112, 67)" stroke-width="2px" d="M114.85432291666667,-2.655573152764605L115.6575,2.016978027440893L116.46067708333334,5.559186712856105L117.26385416666668,8.86578197806191L118.06703125,12.461819302304567L118.87020833333334,16.26942905371991L119.67338541666666,20.81869347802066L120.4765625,25.460516275251994L121.27973958333332,26.429138308690312L122.08291666666668,31.20878913759655L122.88609375,34.938712116087L123.68927083333332,37.587497899540715L124.49244791666668,39.36169499391349L125.295625,42.175066661529016L126.09880208333333,44.77952163405655L126.90197916666665,47.863604878454794L128.50833333333333,52.83678780500255L129.31151041666666,57.02348250791923L130.1146875,59.22968049944922L130.91786458333334,61.671149189736475L132.52421875000002,65.44632005932081L133.32739583333333,68.78614269128494L134.13057291666667,70.96113089239469L134.93375,74.62968844056977L135.73692708333334,77.60535910228832L136.54010416666665,79.63920728266014L137.34328125,80.50195916661298L138.14645833333333,83.33707158325367L138.94963541666667,85.1728632415249L139.7528125,87.30244274611283L140.55598958333334,88.51513351178599L141.35916666666668,89.22891696881776L142.16234375,91.80560274476534L142.96552083333336,92.67184605673883L143.76869791666667,95.74674166724549L144.571875,96.73364462716187L145.37505208333334,96.63321176583398L146.17822916666668,97.56929647914421L146.98140625,100.33161346226429L147.78458333333333,102.81169216357512L148.58776041666667,104.27976126982479L149.3909375,105.46334800770914L150.19411458333332,105.60540443450975L150.99729166666668,108.24937372934616L151.80046875,110.53396479634145L152.60364583333333,111.71006088464179L154.21,113.22508830603621L155.01317708333332,114.460413962973L155.81635416666666,116.1395562216724L156.61953125,119.0895290210894L157.42270833333333,120.99679820576242L158.22588541666664,121.85378222284363L159.0290625,122.33108996010228L159.83223958333332,123.90478234171333L160.63541666666666,125.31156796111114L161.43859375,125.32782822783905L162.24177083333333,126.85438431463365L163.04494791666667,128.50336109240652L163.848125,130.27855299751934L164.65130208333335,130.49229310571175L165.45447916666666,132.55943879939204L166.25765625,132.9278608068395L167.06083333333333,134.28203168708924L167.86401041666667,134.90346147877145L168.66718749999998,135.10420021315483L169.47036458333335,135.24820738375377L170.27354166666666,137.23611838254024L171.87989583333334,137.98934646200286L172.68307291666667,139.40637991961196L173.48624999999998,140.11214285829624L174.28942708333335,141.88130592633382L175.09260416666666,143.2834562329772L175.89578125,143.5586998384192L176.6989583333333,144.4768672419178L177.50213541666668,145.76081080971642L178.30531249999999,145.67980191551692L179.10848958333332,147.07986601259196L179.91166666666666,147.7995235242679L180.71484375,148.24207547756302L181.51802083333334,148.4732852732836L182.32119791666668,149.39013309895762L183.12437500000001,150.04525496051815L183.92755208333332,150.7369752768127L184.7307291666667,152.565843264581L185.53390625,154.2164041521085L186.33708333333334,153.15411748080297L187.14026041666665,152.84766501624364L187.94343750000002,152.4804046912464L188.74661458333333,153.6600532918694L189.54979166666666,153.9477897876217L190.35296875,154.70287056272375L191.15614583333334,155.65793318794172L191.95932291666665,157.16891762761028L192.76250000000002,157.75227264339006L193.56567708333333,159.29328863486174L194.36885416666667,157.72524424676536L195.17203125,159.08292530433576L195.97520833333334,160.73917604616372L196.77838541666665,159.94258007315076L197.5815625,160.950686855274L198.38473958333333,161.00692116380716L199.18791666666667,162.86071920916606L200.79427083333334,162.58221390901022L202.400625,162.22045217701893L203.20380208333336,163.29889902663555L204.00697916666667,165.16207082641665L204.81015625,165.06284569758142L205.61333333333334,166.772142145809L206.41651041666668,167.31670848781934L207.2196875,167.72336075117286L208.02286458333333,168.80387162299732L208.82604166666667,169.56385068375988L209.62921875,169.62078808882887L210.43239583333332,170.14108465226505L211.23557291666668,169.62852504149762L212.03875,170.67745202615234L212.84192708333333,170.59118190905036L213.64510416666667,170.98867128619435L214.44828125,172.63895167308294L215.25145833333332,173.99333630100386L216.05463541666666,175.33052064918544L216.8578125,177.46470556054933L217.66098958333333,180.37778704657106L218.46416666666664,182.48524199984564L219.26734375,184.16925537708332L220.07052083333332,185.66016267100503L220.87369791666666,186.43637513817788L221.676875,187.99628858388388L222.48005208333333,189.2862078601533L223.28322916666667,191.29675348980908L224.08640625,190.5872309094552L224.88958333333335,191.51336977823462L225.69276041666666,192.85178538186784L226.4959375,194.32179641397013L227.29911458333333,194.53837814135045L228.10229166666667,195.62727667554654L228.90546874999998,196.38357992482995L229.70864583333335,197.01818942392805L231.315,197.2155662771243L232.11817708333334,197.55836198307014L232.92135416666667,197.91464365468545L233.72453124999998,199.3737151304509L234.52770833333335,198.3015479782432L235.33088541666666,198.61156233186838L236.1340625,199.60847749049805L236.9372395833333,199.67490138338889L237.74041666666668,200.43755365788087L238.54359374999999,201.39152432991233L239.34677083333332,201.1565860021034L240.14994791666666,203.8940082767644L240.953125,201.89788349912334L242.55947916666665,203.58371649735358L243.36265625000001,205.1346253887871L244.16583333333335,206.28749128028596L244.96901041666666,206.83987627277597L245.7721875,207.28246754658934L246.57536458333337,209.59040032775744L247.37854166666665,210.2774627657115L248.18171875000002,211.03086495365042L248.98489583333335,212.84910194512562L249.78807291666666,213.47132683741637L250.59125,214.69603680766807L251.3944270833333,215.29716310022502L252.19760416666665,216.37910003647443L253.00078125000002,216.61743020185224L253.8039583333333,216.85212272420765L254.60713541666667,216.6328199166117L255.4103125,216.47972333947564L256.2134895833333,217.8308999739701L257.01666666666665,219.88537164942124L257.81984375,220.85065527550668L258.6230208333333,219.86077507099705L259.42619791666664,221.10073541090145L260.229375,221.83036835312677L261.0325520833333,222.11242127694413L261.8357291666667,221.89592174286858L262.63890625,222.69167466262883L263.4420833333333,222.56824620034018L264.24526041666667,221.82210485957364L265.04843750000003,223.30563779367495L265.85161458333334,224.61324892201887L266.65479166666665,224.32463226685638L267.45796875,223.18739018251813L268.26114583333333,223.84101730914688L269.0643229166667,223.9862845798237L269.8675,223.6426348313202L270.6706770833333,225.35383171840817L271.4738541666667,224.41244943910863L272.27703125,223.99822431957486L273.88338541666667,225.84482997748773L274.6865625,225.01081818738564L275.48973958333335,225.5011206906128L276.29291666666666,226.3526403621924L277.09609374999997,226.42557042337026L277.89927083333333,226.53643443454635L278.7024479166667,227.29603973787687L279.505625,228.10577412871908L280.3088020833333,228.1264832760597L281.1119791666667,230.0301702739507L281.91515625,229.17969361247415L282.71833333333336,229.13505136209815L283.5215104166667,229.2614315566554L284.3246875,229.7322116300044L285.12786458333335,230.4290974858143L286.73421874999997,229.97638810923377L287.53739583333333,230.60326537809573L288.3405729166667,230.81751778572936L289.14375,231.10845544334163L289.9469270833333,231.73483078204862L290.7501041666667,232.09170238942832L291.55328125,232.41391207609766L292.35645833333336,231.63292060991702L293.1596354166666,231.7979905425682L294.76598958333335,233.6653517683419L295.56916666666666,232.46523366145027L296.37234374999997,233.4192263436337L297.17552083333334,232.2504524321574L297.97869791666665,231.91237996236518L299.5850520833333,234.54950230080001L300.38822916666663,234.9085003829918L301.19140625,233.65371490613353L301.99458333333337,232.6831333975028L302.7977604166667,232.73444930468386L303.6009375,233.33435898361822L304.40411458333335,233.22200167295662L305.20729166666666,234.04182047573377L306.01046875000003,234.38823010282513L306.81364583333334,234.73592268083536L307.61682291666665,236.15039673071166L308.42,236.64715898918143L309.2231770833334,236.48162163513751L310.02635416666664,236.06060035273538L310.82953125,236.33407793276112L311.6327083333333,236.74968382020418L312.4358854166667,237.01646417047039L313.2390625,236.30825278730006L314.0422395833333,237.12196905867992L314.84541666666667,237.60917430281552L315.64859375000003,237.65253940660529L316.4517708333333,237.24057672711206L317.25494791666665,237.94056665219978L318.058125,238.80264042379864L318.8613020833333,237.9736671225829L319.66447916666664,238.67087193928649L320.46765625,239.3094663485604L321.2708333333333,238.57743439549336L322.0740104166667,238.71194569240313L322.8771875,239.49034970129773L323.6803645833333,238.1106971603435L324.48354166666667,238.52769584921867L325.28671875000003,238.4710517136329L326.08989583333334,238.8525075627781L326.89307291666665,239.30933648172393L327.69625,240.34106540745015L328.49942708333333,240.34283024963253L330.10578125,240.5703077863594L330.9089583333333,240.5833398057429L331.7121354166667,241.17462241371882L332.5153125,240.30253084220467L333.3184895833333,240.09585217580144L334.12166666666667,241.64642078162495L334.92484375,241.57324588415273L335.72802083333335,240.41210330964964L336.53119791666666,240.8418760692158L337.33437499999997,241.54745439432028L338.13755208333333,242.03688284515957L338.9407291666667,241.48223843686662L339.74390625,241.36101490224289L340.5470833333333,240.6402727073894L341.3502604166667,241.3737296644738L342.1534375,242.19441253361845L342.95661458333336,243.38861756062832L343.7597916666667,244.38278514296246L344.56296875,244.49161479392396L345.36614583333335,244.6680728628212L346.1693229166667,244.44610172201814L346.97249999999997,244.01478409752465L347.77567708333333,245.02076185081404L348.5788541666667,244.89847700794854L349.38203125,243.5418964377487L350.1852083333333,244.27906939864175L350.9883854166667,244.52927592001615L351.7915625,245.08459697639648L353.3979166666666,245.29894544169744L354.20109375,246.75481848920896L355.00427083333335,245.5859643008339L355.80744791666666,245.90712144461875L356.61062499999997,245.90925525376917L357.41380208333334,245.91617039207748L358.21697916666665,245.68621695343765L359.02015625,246.27718994117453L359.8233333333333,246.4417255160451L360.62651041666663,245.9026839738273L361.4296875,246.25031879319621L362.23286458333337,245.3780324624394L363.0360416666667,245.77877652615194L363.83921875,244.74779526488263L364.64239583333335,244.99338802667523L365.44557291666666,245.19145735911403L366.24875000000003,246.38245777205339L367.05192708333334,246.26412432143675L367.85510416666665,246.7468766052785L368.65828125,245.00080933021619L369.4614583333334,246.00425539095815L370.26463541666664,247.09911651931372L371.0678125,247.6213089880388L371.8709895833333,247.31530291863305L372.6741666666667,247.55072742291455L373.47734375,246.8308741630118L374.2805208333333,247.7405694371199L375.08369791666667,247.76132077080953L375.88687500000003,248.9284041393851L376.6900520833333,247.23076815676274L379.0995833333333,247.5051291592643L379.90276041666664,247.37007404271273L380.7059375,247.6957748943773L381.5091145833333,247.9342251905318L382.3122916666667,246.27875280056315L383.11546875,247.37599976209077L383.9186458333333,246.9191593403745L384.72182291666667,248.71099703419094L385.52500000000003,248.37841096465675L386.32817708333334,249.50612329126628L387.13135416666665,249.98962891337598L387.93453125,248.98832647260724L388.73770833333333,249.57752347145419L389.5408854166667,250.0770355846853L390.3440625,249.81120853342802L391.1472395833333,249.68296012284762L392.75359375,249.84574845093994L393.5567708333333,250.43519042101101L394.35994791666667,250.44512958115172L395.163125,249.21040093856286L395.96630208333335,249.94282163526302L396.76947916666666,250.94063674162066L397.57265624999997,249.8165976211444L398.37583333333333,250.74349686788867L399.1790104166667,250.38525348136343L399.9821875,251.5882413222176L400.7853645833333,250.99865009815582L401.5885416666667,251.02345502122526L402.39171875,251.5797961049507L403.19489583333336,252.35824186846676L403.9980729166667,251.5016311736765L404.80125,251.62337860655032L405.60442708333335,252.4904290542749L406.4076041666667,251.99843485304405L407.21078124999997,251.52394756082307L408.01395833333333,251.27818689586897L408.8171354166667,250.37002536645616L409.6203125,250.8117399513182L410.4234895833333,251.99268841484658L411.2266666666667,253.1248959730143L412.02984375,251.9990185687422L412.83302083333336,251.69026981870084L413.6361979166666,252.14995508667266L414.439375,251.3571932494094L415.24255208333335,252.89266634375943L416.04572916666666,252.72437456909162L416.84890624999997,251.78841676852034L417.65208333333334,252.38454821261854L418.45526041666665,252.08909641152874L419.2584375,253.45014015020885L420.0616145833333,252.92003656989473L420.86479166666663,252.85503053917475L421.66796875,253.6858432921155L422.47114583333337,252.91290324438313L423.2743229166667,253.05309298597254L424.0775,252.8267776665846L424.88067708333335,252.07986307386085L425.68385416666666,252.23105775433433L426.48703125000003,252.1967832819265L427.29020833333334,252.474353538492L428.09338541666665,252.53639478562326L428.8965625,253.21035790234464L429.6997395833334,252.39760756367113L430.50291666666664,253.69364440706443L431.30609375,253.68853423073534L432.1092708333333,253.7366940596448L432.9124479166667,254.30090097470952L433.715625,254.0984792532141L434.5188020833333,255.50304681532148L435.32197916666667,253.8777218182653L436.12515625000003,254.40447122572445L436.9283333333333,254.90698327254566L437.73151041666665,254.73516286391865L438.5346875,254.60492087334532L439.3378645833333,253.81166163045307L440.94421875,254.37661707801948L441.7473958333333,253.92005158051717L442.5505729166667,253.04318303048075L443.35375,252.6932791158616L444.1569270833333,253.54576265297044L444.96010416666667,253.6546169284179L445.76328125000003,253.84543303372595L446.56645833333334,254.0746687906613L448.1728125,254.27521814451362L448.97598958333333,255.41340707951016L449.7791666666667,253.89258072929204L450.58234375,254.10039611126496L451.3855208333333,254.57034814039292L452.1886979166667,254.88561621542814L452.991875,254.94722448302568L453.7950520833333,254.5349379961777L454.59822916666667,254.8367081241581L455.40140625,255.5479586251926L456.20458333333335,256.9244377553343L457.00776041666666,256.7632014715596L457.81093749999997,255.82430533466487L458.61411458333333,255.40235123232668L459.4172916666667,254.74398162736955L460.22046875,255.51025180426694L461.0236458333333,255.5801845472645L461.8268229166667,255.26766072487024L463.43317708333336,256.11798386865604L464.2363541666667,256.79414978338684L465.03953125,257.9088162686102L465.84270833333335,256.4655708716583L466.6458854166667,255.18059548756128L467.44906249999997,255.75531556192965L468.25223958333333,256.03713970685754L469.0554166666667,256.71080965070416L469.85859375,256.10022585041105L470.6617708333333,256.5309511143209L471.4649479166667,257.1121096613392L472.268125,256.8307257926179L473.07130208333336,257.1423947389623L473.8744791666666,255.9411732761333L474.67765625,255.85871554492076L476.28401041666666,256.3957778586221L477.08718749999997,256.23136886709864L477.89036458333334,255.7183056603821L478.69354166666665,256.6450127628593L479.49671875,257.36239871868025L480.2998958333333,256.23914769242526L481.10307291666663,257.9825489356269L481.90625,257.0676609008568L482.70942708333337,256.6780407369438L483.5126041666667,256.1404988457653L484.31578124999993,257.0243444734754L485.1189583333333,257.4081456768295L486.72531250000003,257.61127665344816L487.52848958333334,258.4108743556274L488.3316666666667,258.5504927704627L489.13484374999996,259.3309365314175L489.9380208333333,259.641426909085L490.74119791666664,257.54867930044605L491.544375,257.8892308608188L492.34755208333337,257.62330771640677L493.15072916666674,258.79306683547986L494.7570833333333,258.96422162333096L495.56026041666667,258.9967349654887L496.36343750000003,258.73603710792156L497.16661458333334,258.1047539786198L497.9697916666667,258.73257371808774L498.77296874999996,257.99407696313466L499.5761458333333,257.3122660544165L500.37932291666664,257.83907733633214L501.1825,258.13979632507L502.7888541666666,257.4350435665284L503.59203125,258.34150491712194L504.3952083333333,258.7496330004965L505.19838541666667,272.749185579455L506.00156250000003,285.12097610422916L506.8047395833334,294.83077614453913L507.6079166666666,301.49881053535694L508.41109374999996,304.6467193569297L509.21427083333333,307.3412486028578L510.0174479166667,309.34164840139124L510.820625,311.01111784245325L511.6238020833334,313.0772744303601L512.4269791666666,315.143242709975L513.2301562499999,315.52581379004727L514.0333333333333,316.5022305661588L514.8365104166667,316.6905673784785L515.6396875,318.5939158839791L516.4428645833334,319.16936614938925L517.2460416666667,318.8230861900542L518.04921875,319.97946485577285L518.8523958333333,320.5805731133812L519.6555729166666,320.7609227777676L520.45875,320.4946709936707L521.2619270833334,320.64381230951176L522.0651041666666,322.2444621729552L522.86828125,322.42826692082036L523.6714583333334,322.5585278840763L524.4746354166667,323.57514358591425L525.2778125,322.35224906310157L526.0809895833332,322.7664855462586L526.8841666666666,323.51448029957555L527.68734375,323.584205234713L528.4905208333333,323.375545375064L529.2936979166667,324.5397062359213L530.0968750000001,324.4206368344654L530.9000520833333,325.1616385180897L531.7032291666667,325.00843287020166L532.5064062499999,325.17212689566935L533.3095833333333,325.59870155243993L534.1127604166667,326.3704915090311L534.9159375,326.2542001614183L535.7191145833333,326.67312076998223L536.5222916666667,326.6939564289269L537.32546875,325.1450913343365L538.1286458333334,326.63158735849737L538.9318229166666,326.9640977659626L539.735,326.7937527618378L540.5381770833333,326.233073643712L541.3413541666666,325.9980935235591L542.14453125,325.6306868200508L542.9477083333334,326.96290087900013L543.7508854166667,326.50258357985564L544.5540625,327.13719031950916L545.3572395833334,328.3636945453618L546.1604166666666,328.4433928572392L547.7667708333333,327.70130793114106L549.373125,327.3390429897107L550.1763020833333,327.66006859865365L550.9794791666667,326.4286029790873L551.7826562500001,327.0256959845797L552.5858333333333,327.71589584479335L553.3890104166667,327.45998053491707L554.1921874999999,327.9810769091191L554.9953645833333,329.06673408841255L555.7985416666667,330.0505847122554L556.60171875,330.2372347210481L557.4048958333334,330.38559513996773L558.2080729166668,330.9464022499965L559.01125,331.6307106126934L559.8144270833333,331.1366456233367L560.6176041666666,330.2408631936186L561.42078125,332.20321934962516L562.2239583333334,331.3187891711597L563.0271354166666,331.2886084461949L563.8303125,330.7336522154581L564.6334895833334,329.1676702285492L565.4366666666667,330.09629087527196L566.23984375,329.83794638272576L567.0430208333333,330.488723640183L567.8461979166666,330.01859429153143L568.649375,330.55100904422716L569.4525520833333,330.20247170722894L570.2557291666667,330.9594704336553L571.0589062500001,331.2318176012918L571.8620833333334,332.03145201096964L572.6652604166666,332.95792280744604L573.4684374999999,332.4078373549473L574.2716145833333,332.828246026946L575.0747916666667,331.75834985528655L575.87796875,332.83401774311034L576.6811458333334,332.7202501234045L577.4843229166667,331.88001471550405L578.2875,332.61861464682545L579.0906770833333,333.6063062915842L579.8938541666666,333.09141657001163L580.69703125,332.3716507406953L581.5002083333334,331.7010783873573L582.3033854166666,331.9149829699132L583.1065625,331.5279928162678L583.9097395833334,331.3378039905407L584.7129166666667,332.6851666123767L585.51609375,332.23137715422865L586.3192708333332,333.2540951088047L587.1224479166666,333.7463204162865L587.925625,334.23221607789714L588.7288020833333,333.3522163480518L589.5319791666667,334.27595949981713L590.3351562500001,332.8462249395678L591.1383333333333,332.7588222614549L591.9415104166667,333.12592105985766L592.7446874999999,333.8410228681972L593.5478645833333,333.2983279717561L594.3510416666667,333.58127513824405L595.15421875,332.523157783141L595.9573958333333,332.66026220615765L596.7605729166667,333.005313905029L597.56375,333.1939035878558L598.3669270833334,334.199413180197L599.1701041666666,333.10509145931866L600.7764583333333,331.7026488174148L601.5796354166666,332.36671345339363L602.3828125,333.1350034835873L603.1859895833334,332.8286129997513L603.9891666666667,333.8552475466432L604.79234375,334.29962139350005L605.5955208333334,333.95255900379095L606.3986979166666,334.2919268120125L607.201875,335.03956692356525L608.0050520833333,335.08397836563535L608.8082291666667,333.8602001646088L609.61140625,334.18169975836423L610.4145833333333,333.7214688470672L611.2177604166667,333.2122522973598L612.0209375000001,334.10028664627424L612.8241145833333,333.2310534226146L613.6272916666667,333.81343238141494L614.4304687499999,334.1884727240492L615.2336458333333,334.4339873035141L616.0368229166667,335.2795055412874L617.6431770833334,335.4763873196108L618.4463541666668,335.7702213426606L619.24953125,335.829726625353L620.0527083333333,335.1472421903357L620.8558854166666,334.3479221661832L621.6590625,334.78476212365035L622.4622395833334,334.87013662338177L623.2654166666666,334.75999962888517L624.06859375,335.0253492297588L624.8717708333334,334.32498780585354L625.6749479166667,335.05735448248004L626.478125,335.25447581727747L627.2813020833333,334.56850144321174L628.0844791666666,334.31879077245674L628.88765625,334.70017731294274L629.6908333333333,334.59552840227434L630.4940104166667,334.97994146589L631.2971875000001,335.3145779515218L632.1003645833334,334.87503565902904L632.9035416666666,334.5319100847322L633.7067187499999,334.7209866967664L634.5098958333333,334.9701813909674L635.3130729166667,335.5561431712148L636.11625,336.0306624826677L636.9194270833334,335.7529133064256L637.7226041666667,335.79014302082453L638.52578125,336.3447183111013L639.3289583333333,336.406990549999L640.1321354166666,335.7256540293584L640.9353125,335.6190851317615L641.7384895833334,335.6084187653001L642.5416666666666,336.057417504995L644.1480208333334,336.33193934228393L644.9511979166667,336.8429397632947L645.754375,335.93599762262596L646.5575520833332,335.2822088379438L647.3607291666666,335.5215513421071L648.16390625,336.4135677507165L648.9670833333333,335.696303492227L649.7702604166667,335.5067068302695L650.5734375000001,334.8658339649319L651.3766145833333,335.31578072215035L652.1797916666667,334.94030199913914L652.9829687499999,335.93163071469064L653.7861458333333,335.6934942456384L654.5893229166667,336.0828498258441L655.3925,336.35027229087547L656.1956770833333,336.0435452453412L656.9988541666667,335.6530685011386L657.80203125,336.5088703452421L658.6052083333334,340.1630135087624L659.4083854166666,343.0823954204083L660.2115625,344.27822317579387L661.0147395833333,345.16783896964927L661.8179166666666,346.94486188137125L662.62109375,348.1565572829813L663.4242708333334,348.3590209525178L664.2274479166667,348.47640107946296L665.030625,348.22922836043006L665.8338020833334,348.6387751579998L666.6369791666666,348.8312282644421L667.44015625,348.358114138492L668.2433333333333,348.59213986283925L669.0465104166667,349.76373336315675L669.8496875,350.0123154224707L670.6528645833333,349.77470885099984L671.4560416666667,350.4358798237126L672.2592187500001,349.97864607572893L673.0623958333333,350.98905226946147L673.8655729166667,350.93294464990305L674.6687499999999,351.1610446045357L675.4719270833333,351.82758074221385L676.2751041666667,351.1445861650551L677.07828125,350.99399264839064L677.8814583333334,352.0838820741062L678.6846354166668,352.10517543587116L679.4878125,352.0190853989397L680.2909895833333,352.6287581938846L681.89734375,352.2881562312022L682.7005208333334,351.33589640682936L683.5036979166666,351.28397149016325L684.306875,351.08172191823274L685.1100520833334,351.41781977203414L685.9132291666667,351.0477970529514L686.71640625,351.85081437504584L687.5195833333333,352.8300285943348L688.3227604166666,353.10815248026285L689.1259375,352.8078462872641L689.9291145833333,352.1087438528549L691.5354687500001,350.5269659336445L692.3386458333334,351.32675259311196L693.1418229166666,351.1227583604154L693.9449999999999,351.5971439601664L694.7481770833333,352.8166486284713L695.5513541666667,352.07560580654683L696.35453125,352.4265188794371L697.1577083333334,352.22264891136837L697.9608854166667,351.48049312053774L698.7640625,350.6561277291867L699.5672395833333,351.2101033778862L700.3704166666666,351.7432944311674L701.17359375,352.48479850579986L702.7799479166666,351.4759089235141L703.583125,351.75524706657984L704.3863020833334,352.15695247404557L705.1894791666667,351.0240961496052L705.99265625,352.0681350579284L706.7958333333332,352.56598130680015L707.5990104166666,351.59684717205613L708.4021875,351.3800953463417L709.2053645833333,352.91027679486024L710.8117187500001,352.04572313606917L711.6148958333333,351.6145872891468L712.4180729166667,352.4260155570807L713.2212499999999,352.2090281749299L714.0244270833333,352.4558586251033L714.8276041666667,352.3329717005914L715.63078125,352.5650583761043L716.4339583333333,352.9942491718672L717.2371354166667,353.14623822382276L718.0403125,353.4428476531839L718.8434895833334,352.859083661665L719.6466666666666,352.8366712488966L720.44984375,353.1853911596339L721.2530208333333,352.46436013174747L722.0561979166666,351.91289734648734L722.859375,352.49742712859575L724.4657291666667,353.0212886571795L725.26890625,353.6562799256143L726.0720833333334,353.491718482015L726.8752604166666,354.54556514682645L727.6784375,354.1046898135416L728.4816145833333,353.8232600551169L729.2847916666667,353.1815868226919L730.08796875,354.02190724149534L730.8911458333333,353.6260598199263L731.6943229166667,354.687641071225L732.4975000000001,354.1909598868763L733.3006770833333,354.5240546918926L734.1038541666667,355.0707111528855L734.9070312499999,355.1922645126011L735.7102083333333,354.6310194567234L736.5133854166667,354.33883898639476L737.3165625,354.1445771083545L738.1197395833334,354.07514784146383L738.9229166666668,353.61548665409634L739.72609375,353.8053336881881L740.5292708333333,353.3680508511674L741.3324479166666,352.9704446813211L742.135625,353.11914904581954L742.9388020833334,353.4896020460741L743.7419791666666,353.3153851115747L744.54515625,353.0838146327923L745.3483333333334,353.0457874369022L746.1515104166667,353.6335842611087L746.9546875,353.8356581075858L747.7578645833333,353.8851861068792L748.5610416666666,353.00000771253735L749.36421875,353.3868694259332L750.1673958333333,353.789568816553L750.9705729166667,353.23616194422846L751.7737500000001,354.4301384158388L752.5769270833334,353.9698645785204L753.3801041666666,354.0691863775538L754.1832812499999,353.5591470629997L754.9864583333333,352.9718930927108L756.5928125,354.1025315203858L757.3959895833334,354.18259565958107L758.1991666666667,355.074837547117L759.00234375,354.40637321395633L760.6086979166666,355.6132767046027L761.411875,354.7063850378293L762.2150520833334,354.29390068996855L763.0182291666666,355.62058305488495L763.82140625,354.9464081476624L765.4277604166667,353.81500718979885L766.2309375,353.864599406654L767.0341145833332,353.8866708465591L767.8372916666666,354.34814063921266L768.64046875,354.67010133734993L769.4436458333333,354.18197282459164L770.2468229166667,354.5637412770655L771.0500000000001,353.7908230656257L771.8531770833333,353.651332305475L772.6563541666667,355.1802302740493L775.0658854166667,354.770817346209L775.8690625,354.709070695114L776.6722395833333,354.59672058043316L777.4754166666667,354.0759609894441L778.27859375,354.90789261626577L779.0817708333334,353.29551856362036L779.8849479166666,354.7326395073112L780.688125,354.25228032478265L781.4913020833333,354.4230491902675L782.2944791666666,354.86104038190626L783.9008333333334,356.4700526610627L784.7040104166667,356.06004368159785L785.5071875,355.85245774495274L786.3103645833334,356.0941716161409L787.1135416666666,356.80883233282464L787.91671875,357.10341681389656L788.7198958333333,356.9753731910153L789.5230729166667,356.2449040903907L790.32625,355.86092212080786L791.1294270833333,355.9173981734331L791.9326041666667,356.3446989835807L792.7357812500001,357.31824255560485L793.5389583333333,358.1318608863212L794.3421354166667,356.86298232420324L795.1453124999999,356.7327587025598L796.7516666666667,356.4866034637227L797.55484375,355.60996526949964L798.3580208333334,356.6894031467726L799.1611979166668,357.3616543217961L799.964375,356.50331025490925L800.7675520833333,357.50459148218783L801.5707291666666,356.89898945613817L802.37390625,356.36914395270054L803.1770833333334,356.0942664357937L803.9802604166666,356.67416501633045L804.7834375,356.23117573273476L806.3897916666667,356.6815207298187L807.19296875,356.5480673625557L807.9961458333333,356.57915562051824L808.7993229166666,355.94877598252276L809.6025,356.92086383867684L811.2088541666667,355.73528502683916L812.0120312500001,356.2953654392348L813.6183854166666,356.75179463324076L814.4215624999999,356.7536424363333L815.2247395833333,356.86130106238426L816.0279166666667,357.23632540235826L816.83109375,357.20828388887566L817.6342708333334,357.1187181534991L818.4374479166667,356.649536381777L819.240625,356.77424898099264L820.0438020833333,356.5335247827076L820.8469791666666,355.02955395653936L821.65015625,355.2341639099157L822.4533333333334,356.72876041347297L823.2565104166666,356.5928034718554L824.0596875,356.5937030617696L824.8628645833334,356.29610787570596L825.6660416666667,356.3465306922207L826.46921875,356.4566968402759L827.2723958333332,356.7317983427242L828.0755729166666,356.5592803344573L828.87875,356.9306339442577L829.6819270833333,357.7333236910512L830.4851041666667,356.33238443854185L831.2882812500001,356.9994001455463L832.0914583333333,357.1859974220104L832.8946354166667,357.17603806327855L834.5009895833333,356.69417351458475L835.3041666666667,357.11658301848973L836.10734375,357.0247659208876L836.9105208333333,356.8692728302951L837.7136979166667,356.6222991718106L838.516875,356.17034518389164L839.3200520833334,357.3109595517434L840.1232291666666,357.04201352750374L840.92640625,357.574757328278L841.7295833333333,356.96875096853415L842.5327604166666,357.3351167223038L843.3359375,357.1159299141024L844.1391145833334,356.91116474254557L844.9422916666667,356.4983668491543L845.74546875,356.9227723765134L846.5486458333334,357.6486942922587L847.3518229166666,358.0109943550728L848.155,356.9251866137415L848.9581770833333,357.20037912784335L850.56453125,356.45930785128775L851.3677083333333,356.461355236025L852.1708854166667,356.5865504288641L852.9740625000001,355.47373811864634L853.7772395833333,356.7613446603901L854.5804166666667,357.39764759910815L855.3835937499999,358.0248015895996L856.9899479166667,356.8120654891943L857.793125,356.6181980686275L858.5963020833334,357.0581912672365L859.3994791666668,356.72899086246224L860.20265625,357.0063350343591L861.0058333333333,356.40435251684806L861.8090104166666,357.96311103926644L863.4153645833334,357.91687724367824L864.2185416666666,358.09301618646947L865.02171875,357.86778001392065L865.8248958333334,356.93709954434644L866.6280729166667,357.2254559633552L867.43125,356.970733259934L868.2344270833333,357.67900760035286L869.0376041666666,357.44110860946006L869.84078125,356.1493714993826L871.4471354166667,356.63756078328123L872.2503125000001,356.7235215773904L873.0534895833334,357.1741480852464L873.8566666666666,357.0869669656849L874.6598437499999,357.98643616085695L875.4630208333333,357.4631795327295L876.2661979166667,357.8105523729592L877.069375,357.5313051786586L877.8725520833334,357.613227164116L878.6757291666667,357.4113732753123L879.47890625,357.8122532167213L880.2820833333333,357.5051759395192L881.0852604166666,356.680093129978L881.8884375,356.5067423142315L882.6916145833334,356.9549474009559L883.4947916666666,357.2310420838495L884.29796875,357.1620841126146L885.1011458333334,356.98393608419804L885.9043229166667,356.94159194488384L886.7075,357.0401522232917L887.5106770833332,356.3411445566315L888.3138541666666,355.38233086414095L889.11703125,356.18297125495343L890.7233854166667,357.0285964039224L891.5265625000001,357.50318689508714L892.3297395833333,356.9037815566954L893.1329166666667,357.2500317339612L893.9360937499999,357.7897258972403L894.7392708333333,357.9158102872279L895.5424479166667,357.2993985432917L896.345625,357.294792411411L897.1488020833333,357.37501474651157L898.75515625,356.61838871328104L899.5583333333334,356.26123010994337L900.3615104166666,357.7250965690355L901.1646875,357.9907542653618L901.9678645833333,357.1794174204069L902.7710416666666,356.9272300944054L903.57421875,357.66263862863013L904.3773958333334,357.91793360616924L905.1805729166667,357.3493371726303L905.98375,357.2100094952642L906.7869270833334,356.63054584085444L907.5901041666666,356.8094702570236L908.39328125,356.0828666896492L909.1964583333333,357.026418970961L910.8028125,357.26060628282795L911.6059895833333,356.64604839232493L912.4091666666667,357.1143454311815L913.2123437500001,356.56085317807253L914.0155208333333,357.09806193823283L914.8186979166667,357.2262409017797L915.6218749999999,356.638747906721L916.4250520833333,356.861519356477L917.2282291666667,356.2365261332787L918.03140625,356.50595245800827L918.8345833333334,356.5292982291295L919.6377604166668,357.0028023261503L920.4409375,357.3601578709983L921.2441145833333,358.0202368298807L922.0472916666666,357.35488283802255L922.85046875,357.5109595751631L923.6536458333334,357.0626352282185L924.4568229166666,357.52463470835994L925.26,358.0502801797874L926.0631770833334,358.2929266353564L926.8663541666667,357.8519775562704" style="fill: none;" fill="none"></path></g></g></g></g><g opacity="0.2"><g><g><g><path stroke="rgb(255, 112, 67)" stroke-width="2px" d="M112.44479166666667,-6.566089085170439L114.05114583333334,2.6353694370812883L114.85432291666667,4.986639840262086L115.6575,9.025804792131535L116.46067708333334,10.872499738420597L117.26385416666668,13.825674874441816L118.06703125,17.855875287737003L118.87020833333334,21.980843680245393L119.67338541666666,27.642590114048435L120.4765625,32.42325047084252L121.27973958333332,27.88207135881686L122.08291666666668,38.37826538085929L122.88609375,40.533596583775L123.68927083333332,41.560676574706946L124.49244791666668,42.022990635463074L125.295625,46.39512416294634L126.09880208333333,48.686204092843134L126.90197916666665,52.48972974504737L128.50833333333333,60.296562194824176L129.31151041666666,63.303524562290704L130.1146875,62.53897748674659L130.91786458333334,65.33335222516735L132.52421875000002,71.10907636369976L133.32739583333333,73.79587663922989L134.13057291666667,74.22361319405691L134.93375,80.13252476283483L135.73692708333334,82.06886509486608L136.54010416666665,82.68997955322266L137.34328125,81.79608699253626L138.14645833333333,87.58974020821711L138.94963541666667,87.92655072893417L139.7528125,90.49681200299946L140.55598958333334,90.33416966029577L141.35916666666668,90.29959215436665L142.16234375,95.67063140869145L142.96552083333336,93.97121102469309L143.76869791666667,100.35908508300786L144.571875,98.21399906703408L145.37505208333334,96.48256247384211L146.17822916666668,98.9734235491072L146.98140625,104.47508893694203L147.78458333333333,106.53181021554137L148.58776041666667,106.48186492919926L149.3909375,107.23872811453688L150.19411458333332,105.81848907470707L150.99729166666668,112.21532767159606L151.80046875,113.96085139683322L152.60364583333333,113.47420501708993L154.21,115.49762943812787L155.01317708333332,116.31340244838178L155.81635416666666,118.65826960972385L156.61953125,123.51448822021493L157.42270833333333,123.85770198277072L158.22588541666664,123.13925824846551L159.0290625,123.04705156598783L159.83223958333332,126.26532091413236L160.63541666666666,127.42174639020658L161.43859375,125.35221862792977L162.24177083333333,129.1442184448243L163.04494791666667,130.97682625906816L163.848125,132.94134085518985L164.65130208333335,130.81290326799675L165.45447916666666,135.6601573399136L166.25765625,133.48049381801073L167.06083333333333,136.31328800746385L167.86401041666667,135.83560616629478L168.66718749999998,135.40530831473228L169.47036458333335,135.46421813964855L170.27354166666666,140.21798488072L171.87989583333334,139.11918858119432L172.68307291666667,141.53193010602695L173.48624999999998,141.17078726632266L174.28942708333335,144.53505052839023L175.09260416666666,145.386681692941L175.89578125,143.97156524658214L176.6989583333333,145.85411834716808L177.50213541666668,147.68672616141197L178.30531249999999,145.55828857421886L179.10848958333332,149.1799621582033L179.91166666666666,148.87900979178306L180.71484375,148.90590340750572L181.51802083333334,148.8200999668668L182.32119791666668,150.76540483747226L183.12437500000001,151.02793775286008L183.92755208333332,151.77455575125572L184.7307291666667,155.30914524623344L185.53390625,156.6922454833986L186.33708333333334,151.56068747384222L187.14026041666665,152.38798631940585L187.94343750000002,151.92951420375297L188.74661458333333,155.42952619280152L189.54979166666666,154.37939453125017L190.35296875,155.83549172537684L191.15614583333334,157.09052712576747L191.95932291666665,159.43539428710955L192.76250000000002,158.62730516706213L193.56567708333333,161.60481262207048L194.36885416666667,155.3731776646207L195.17203125,161.11944689069495L195.97520833333334,163.22355215890087L196.77838541666665,158.74768611363018L197.5815625,162.46284702846L198.38473958333333,161.09127262660454L199.18791666666667,165.64141627720446L200.79427083333334,162.16445595877528L202.400625,161.677809579032L203.20380208333336,164.91656930106043L204.00697916666667,167.95682852608837L204.81015625,164.91400800432496L205.61333333333334,169.33608681815028L206.41651041666668,168.13355800083727L207.2196875,168.33333914620556L208.02286458333333,170.424637930734L208.82604166666667,170.70381927490254L209.62921875,169.70619419642878L210.43239583333332,170.9215294974193L211.23557291666668,168.859685625349L212.03875,172.25084250313915L212.84192708333333,170.46177673339864L213.64510416666667,171.5849053519115L214.44828125,175.11437225341817L215.25145833333332,176.02491324288525L216.05463541666666,177.3362971714567L216.8578125,180.66598292759508L217.66098958333333,184.74740927560012L218.46416666666664,185.64642442975747L219.26734375,186.69527544294107L220.07052083333332,187.89652361188638L220.87369791666666,187.60069383893716L221.676875,190.33615875244166L222.48005208333333,191.22108677455378L223.28322916666667,194.31257193429153L224.08640625,189.52294703892323L224.88958333333335,192.9025780814037L225.69276041666666,194.85940878731887L226.4959375,196.52681296212356L227.29911458333333,194.86325073242213L228.10229166666667,197.26062447684177L228.90546874999998,197.51803479875863L229.70864583333335,197.97010367257278L231.315,197.5116315569199L232.11817708333334,198.07255554199244L232.92135416666667,198.44906616210963L233.72453124999998,201.56232234409907L234.52770833333335,196.6932972499305L235.33088541666666,199.07658386230494L236.1340625,201.10385022844613L236.9372395833333,199.77453722272628L237.74041666666668,201.5815320696152L238.54359374999999,202.82248033796066L239.34677083333332,200.8041785103937L240.14994791666666,208.00014168875583L240.953125,198.9036963326593L242.55947916666665,206.11246599469894L243.36265625000001,207.460988725935L244.16583333333335,208.01679011753657L244.96901041666666,207.66845376150974L245.7721875,207.94635445731052L246.57536458333337,213.052299499512L247.37854166666665,211.30805642264255L248.18171875000002,212.16096823556114L248.98489583333335,215.5764574323385L249.78807291666666,214.40466417585128L250.59125,216.53310176304439L251.3944270833333,216.19885253906284L252.19760416666665,218.00200544084854L253.00078125000002,216.9749254499166L253.8039583333333,217.20416150774307L254.60713541666667,216.30386570521793L255.4103125,216.25007847377262L256.2134895833333,219.85766492571182L257.01666666666665,222.967079162598L257.81984375,222.29858071463482L258.6230208333333,218.37595476423022L259.42619791666664,222.96067592075926L260.229375,222.92481776646238L261.0325520833333,222.53550066266772L261.8357291666667,221.57117244175532L262.63890625,223.88530404227154L263.4420833333333,222.383103506906L264.24526041666667,220.70289284842386L265.04843750000003,225.53093719482456L265.85161458333334,226.57466561453717L266.65479166666665,223.89170728411025L267.45796875,221.48152705601314L268.26114583333333,224.8214579990935L269.0643229166667,224.20418548584018L269.8675,223.12716020856615L270.6706770833333,227.9206270490377L271.4738541666667,223.00037602015934L272.27703125,223.37688664027652L273.88338541666667,228.6147384643558L274.6865625,223.75980050223248L275.48973958333335,226.2365744454523L276.29291666666666,227.62991986955947L277.09609374999997,226.53496551513706L277.89927083333333,226.70273045131168L278.7024479166667,228.43544769287143L279.505625,229.3203757149836L280.3088020833333,228.15754699707065L281.1119791666667,232.88570077078717L281.91515625,227.90397862025705L282.71833333333336,229.0680879865377L283.5215104166667,229.45100184849363L284.3246875,230.43838174002545L285.12786458333335,231.4744262695316L286.73421874999997,229.29732404436416L287.53739583333333,231.54358128138986L288.3405729166667,231.13889639718224L289.14375,231.54486192975762L289.9469270833333,232.67439379010918L290.7501041666667,232.62700980050255L291.55328125,232.8972266060969L292.35645833333336,230.46143341064487L293.1596354166666,232.0455954415461L294.76598958333335,236.4663936070037L295.56916666666666,230.66505650111642L296.37234374999997,234.8502153669088L297.17552083333334,230.49729156494175L297.97869791666665,231.40527125767332L299.5850520833333,238.5051858084546L300.38822916666663,235.44699750627825L301.19140625,231.77153669084854L301.99458333333337,231.2272611345567L302.7977604166667,232.8114231654579L303.6009375,234.23422350202324L304.40411458333335,233.05346570696184L305.20729166666666,235.27154867989708L306.01046875000003,234.90784454345737L306.81364583333334,235.2574615478519L307.61682291666665,238.2721078055249L308.42,237.39230237688372L309.2231770833334,236.23331560407402L310.02635416666664,235.4290684291298L310.82953125,236.7442943028045L311.6327083333333,237.37309265136753L312.4358854166667,237.4166346958709L313.2390625,235.2459357125422L314.0422395833333,238.3425434657509L314.84541666666667,238.33998216901543L315.64859375000003,237.71758706229107L316.4517708333333,236.62263270786866L317.25494791666665,238.99055153983014L318.058125,240.09575108119458L318.8613020833333,236.7302071707593L319.66447916666664,239.71667916434185L320.46765625,240.26735796247246L321.2708333333333,237.47938646589043L322.0740104166667,238.91371263776543L322.8771875,240.65795571463482L323.6803645833333,236.04121834891217L324.48354166666667,239.15319388253386L325.28671875000003,238.38608551025425L326.08989583333334,239.4246913364959L326.89307291666665,239.99457986014264L327.69625,241.88865879603833L328.49942708333333,240.34547751290495L330.10578125,240.91152409144848L330.9089583333333,240.6028878348218L331.7121354166667,242.06154632568393L332.5153125,238.9943934849334L333.3184895833333,239.78583417620013L334.12166666666667,243.97227369036034L334.92484375,241.4634835379468L335.72802083333335,238.6703894478938L336.53119791666666,241.4865352085662L337.33437499999997,242.60582188197583L338.13755208333333,242.77102552141503L338.9407291666667,240.6502718244284L339.74390625,241.1791796003073L340.5470833333333,239.55915941510918L341.3502604166667,242.473915100098L342.1534375,243.425436837333L342.95661458333336,245.17992510114433L343.7597916666667,245.8740365164624L344.56296875,244.65485927036866L345.36614583333335,244.93275996616944L346.1693229166667,244.1131450108123L346.97249999999997,243.36780766078442L347.77567708333333,246.5297284807481L348.5788541666667,244.7150497436527L349.38203125,241.50702558245013L350.1852083333333,245.38482883998364L350.9883854166667,244.9045857020791L351.7915625,245.9175785609658L353.3979166666666,245.6204681396488L354.20109375,248.93862806047753L355.00427083333335,243.83268301827604L355.80744791666666,246.38885716029614L356.61062499999997,245.9124559674948L357.41380208333334,245.92654309954003L358.21697916666665,245.34128679548027L359.02015625,247.1636494227822L359.8233333333333,246.68852887834862L360.62651041666663,245.09412166050538L361.4296875,246.771771022252L362.23286458333337,244.06960296630896L363.0360416666667,246.37989262172192L363.83921875,243.20132337297753L364.64239583333335,245.36177716936425L365.44557291666666,245.488561357771L366.24875000000003,248.1689583914624L367.05192708333334,246.08662414550818L367.85510416666665,247.47100503104107L368.65828125,242.38170841762036L369.4614583333334,247.50942448207348L370.26463541666664,248.7414082118447L371.0678125,248.40459769112763L371.8709895833333,246.85629381452324L372.6741666666667,247.9038641793391L373.47734375,245.75109427315886L374.2805208333333,249.10511234828442L375.08369791666667,247.79244777134522L375.88687500000003,250.67902919224366L376.6900520833333,244.68431418282682L379.0995833333333,247.9166706630166L379.90276041666664,247.16749136788542L380.7059375,248.18432617187537L381.5091145833333,248.291900634766L382.3122916666667,243.7955442156114L383.11546875,249.02187020438097L383.9186458333333,246.2338987077989L384.72182291666667,251.3987535749167L385.52500000000003,247.87953186035193L386.32817708333334,251.19769178118065L387.13135416666665,250.71488734654054L387.93453125,247.4863728114541L388.73770833333333,250.46131896972693L389.5408854166667,250.82630375453442L390.3440625,249.41246795654334L391.1472395833333,249.49058750697583L392.75359375,250.08993094308076L393.5567708333333,251.31935337611645L394.35994791666667,250.46003832135918L395.163125,247.3583079746795L395.96630208333335,251.04145268031567L396.76947916666666,252.43735940115832L397.57265624999997,248.13053894043006L398.37583333333333,252.13384573800263L399.1790104166667,249.84788840157685L399.9821875,253.39272308349652L400.7853645833333,250.11426326206788L401.5885416666667,251.06066240583183L402.39171875,252.41430773053887L403.19489583333336,253.525910513742L403.9980729166667,250.21671513148755L404.80125,251.80599975585974L405.60442708333335,253.79100472586535L406.4076041666667,251.26044355120018L407.21078124999997,250.81221662248925L408.01395833333333,250.90954589843787L408.8171354166667,249.00778307233574L409.6203125,251.47431182861365L410.4234895833333,253.7641111101427L411.2266666666667,254.82320731026826L412.02984375,250.310202462333L412.83302083333336,251.2271466936388L413.6361979166666,252.83948298863038L414.439375,250.1680504935132L415.24255208333335,255.1958759852822L416.04572916666666,252.4719369070874L416.84890624999997,250.38448006766222L417.65208333333334,253.2787453787671L418.45526041666665,251.6459187098916L419.2584375,255.49170575823143L420.0616145833333,252.12488119942842L420.86479166666663,252.7575214930947L421.66796875,254.9320624215266L422.47114583333337,251.7534931727822L423.2743229166667,253.2633775983542L424.0775,252.48730468750037L424.88067708333335,250.95949118477998L425.68385416666666,252.45784977504223L426.48703125000003,252.1453715733123L427.29020833333334,252.89070892334027L428.09338541666665,252.62945665632012L428.8965625,254.22130257742785L429.6997395833334,251.17848205566443L430.50291666666664,255.6376996721544L431.30609375,253.68086896623925L432.1092708333333,253.8089338030138L432.9124479166667,255.14721134730786L433.715625,253.79484667096855L434.5188020833333,257.6098981584825L435.32197916666667,251.43973432268456L436.12515625000003,255.1945953369145L436.9283333333333,255.66075134277386L437.73151041666665,254.477432250977L438.5346875,254.40955788748644L439.3378645833333,252.62177276611365L440.94421875,255.22405024937257L441.7473958333333,253.2352033342638L442.5505729166667,251.72788020542725L443.35375,252.16842324393176L444.1569270833333,254.82448795863598L444.96010416666667,253.817898341588L445.76328125000003,254.13165719168566L446.56645833333334,254.41852242606066L448.1728125,254.5760421752934L448.97598958333333,257.12069048200374L449.7791666666667,251.6113412039624L450.58234375,254.41211918422192L451.3855208333333,255.27527618408246L452.1886979166667,255.35851832798585L452.991875,255.03963688441723L453.7950520833333,253.9165082659044L454.59822916666667,255.28936331612763L455.40140625,256.6148343767442L456.20458333333335,258.98915645054444L457.00776041666666,256.52134704589884L457.81093749999997,254.41596112932518L458.61411458333333,254.76942007882295L459.4172916666667,253.75642721993623L460.22046875,256.6596570696153L461.0236458333333,255.68508366176098L461.8268229166667,254.79887499128108L463.43317708333336,257.3934685843335L464.2363541666667,257.80839865548313L465.03953125,259.58081599644294L465.84270833333335,254.30070277622804L466.6458854166667,253.25313241141222L467.44906249999997,256.61739567347973L468.25223958333333,256.45987592424706L469.0554166666667,257.7213145664764L469.85859375,255.1843501499725L470.6617708333333,257.17703901018456L471.4649479166667,257.98384748186425L472.268125,256.4086499895372L473.07130208333336,257.6098981584825L473.8744791666666,254.1393410818921L474.67765625,255.73502894810304L476.28401041666666,257.2013713291717L477.08718749999997,255.98475537981346L477.89036458333334,254.94871085030732L478.69354166666665,258.03507341657405L479.49671875,258.4384776524139L480.2998958333333,254.5542711530417L481.10307291666663,260.59765080043286L481.90625,255.69532884870296L482.70942708333337,256.0936104910718L483.5126041666667,255.33418600899873L484.31578124999993,258.35011291503946L485.1189583333333,257.98384748186425L486.72531250000003,257.91597311837376L487.52848958333334,259.6102709089011L488.3316666666667,258.759920392718L489.13484374999996,260.50160217285196L489.9380208333333,260.10716247558634L490.74119791666664,254.40955788748644L491.544375,258.40005820138157L492.34755208333337,257.2244229997911L493.15072916666674,260.5477055140908L494.7570833333333,259.22095380510643L495.56026041666667,259.0455049787253L496.36343750000003,258.3449903215685L497.16661458333334,257.15782928466837L497.9697916666667,259.6743033272883L498.77296874999996,256.8863318307063L499.5761458333333,256.2895496913369L500.37932291666664,258.629294259208L501.1825,258.5908748081756L502.7888541666666,256.37791442871134L503.59203125,259.701196943011L504.3952083333333,259.3618251255584L505.19838541666667,293.74851444789385L506.00156250000003,303.67866189139284L506.8047395833334,309.3954762050089L507.6079166666666,311.50086212158254L508.41109374999996,309.36858258928623L509.21427083333333,311.38304247174995L510.0174479166667,312.34224809919135L510.820625,313.5153220040463L511.6238020833334,316.1765093122215L512.4269791666666,318.2421951293951L513.2301562499999,316.0996704101568L514.0333333333333,317.96685573032977L514.8365104166667,316.97307259695924L515.6396875,321.4489386422299L516.4428645833334,320.03254154750334L517.2460416666667,318.3036662510468L518.04921875,321.7140328543532L518.8523958333333,321.4822354997913L519.6555729166666,321.0314472743449L520.45875,320.0952933175229L521.2619270833334,320.8675242832734L522.0651041666666,324.64543696812274L522.86828125,322.70397404262053L523.6714583333334,322.7539193289626L524.4746354166667,325.10006713867244L525.2778125,320.51790727887885L526.0809895833332,323.38784027099666L526.8841666666666,324.6364724295485L527.68734375,323.6887926374169L528.4905208333333,323.0625555855893L529.2936979166667,326.28594752720477L530.0968750000001,324.2420327322829L530.9000520833333,326.27314104352735L531.7032291666667,324.7786243983683L532.5064062499999,325.4176679338733L533.3095833333333,326.2385635375982L534.1127604166667,327.52817644391797L534.9159375,326.07976313999774L535.7191145833333,327.30150168282705L536.5222916666667,326.7252099173415L537.32546875,322.82179369245307L538.1286458333334,328.8613313947411L538.9318229166666,327.462863377163L539.735,326.53823525565065L540.5381770833333,325.39205496651846L541.3413541666666,325.64562334333203L542.14453125,325.0795767647885L542.9477083333334,328.9612219674252L543.7508854166667,325.81210763113893L544.5540625,328.0891004289905L545.3572395833334,330.2034508841384L546.1604166666666,328.56294032505633L547.7667708333333,326.58818054199276L549.373125,326.79564557756754L550.1763020833333,328.14160701206805L550.9794791666667,324.5814045497355L551.7826562500001,327.92133549281584L552.5858333333333,328.7511956351149L553.3890104166667,327.0761075701038L554.1921874999999,328.7627214704247L554.9953645833333,330.6952198573527L555.7985416666667,331.52636064801953L556.60171875,330.5172097342361L557.4048958333334,330.60813576834596L558.2080729166668,331.78761291503963L559.01125,332.65717315673885L559.8144270833333,330.3955481393002L560.6176041666666,328.897189549038L561.42078125,335.1467535836362L562.2239583333334,329.9921439034604L563.0271354166666,331.2433373587478L563.8303125,329.9012178693505L564.6334895833334,326.81869724818694L565.4366666666667,331.4892218453549L566.23984375,329.45042964390404L567.0430208333333,331.46488952636776L567.8461979166666,329.31340026855526L568.649375,331.34963117327067L569.4525520833333,329.67966570173047L570.2557291666667,332.0949685232986L571.0589062500001,331.6403383527489L571.8620833333334,333.23090362548885L572.6652604166666,334.347629002163L573.4684374999999,331.58270917620035L574.2716145833333,333.4588590349475L575.0747916666667,330.1535055977963L575.87796875,334.44751957484715L576.6811458333334,332.5495986938482L577.4843229166667,330.6196616036557L578.2875,333.7265145438064L579.0906770833333,335.0878437587199L579.8938541666666,332.31908198765404L580.69703125,331.2920019967221L581.5002083333334,330.6952198573527L582.3033854166666,332.23583984375057L583.1065625,330.9475075857986L583.9097395833334,331.0525207519537L584.7129166666667,334.70621054513174L585.51609375,331.55069296700674L586.3192708333332,334.78817204066746L587.1224479166666,334.4846583775117L587.925625,334.96105957031307L588.7288020833333,332.03221675327904L589.5319791666667,335.6615742274699L590.3351562500001,330.7016230991914L591.1383333333333,332.6277182442807L591.9415104166667,333.6765692574643L592.7446874999999,334.9136755807065L593.5478645833333,332.4842856270932L594.3510416666667,334.00569588797487L595.15421875,330.93598175048885L595.9573958333333,332.8659188406814L596.7605729166667,333.52289145333486L597.56375,333.47678811209596L598.3669270833334,335.70767756870873L599.1701041666666,331.463608878L600.7764583333333,329.5989848545625L601.5796354166666,333.3628104073666L602.3828125,334.2874385288789L603.1859895833334,332.3690272739961L603.9891666666667,335.39519936697883L604.79234375,334.9661821637841L605.5955208333334,333.43196541922487L606.3986979166666,334.8009785243449L607.201875,336.1610270908906L608.0050520833333,335.1505955287394L608.8082291666667,332.0245328630725L609.61140625,334.6639491489961L610.4145833333333,333.03112248012053L611.2177604166667,332.4484274727963L612.0209375000001,335.43233816964346L612.8241145833333,331.9272035871239L613.6272916666667,334.68700081961555L614.4304687499999,334.75103323800283L615.2336458333333,334.80225917271264L616.0368229166667,336.5477828979498L617.6431770833334,335.771709987096L618.4463541666668,336.21097237723274L619.24953125,335.9189845493867L620.0527083333333,334.1235155378075L620.8558854166666,333.1489421299531L621.6590625,335.4400220598499L622.4622395833334,334.9981983729777L623.2654166666666,334.59479413713785L624.06859375,335.42337363106924L624.8717708333334,333.2744456699922L625.6749479166667,336.15590449741967L626.478125,335.55015781947606L627.2813020833333,333.5395398821155L628.0844791666666,333.94422476632315L628.88765625,335.2722571236753L629.6908333333333,334.43855503627293L630.4940104166667,335.55656106131477L631.2971875000001,335.8165326799671L632.1003645833334,334.21572222028516L632.9035416666666,334.0172217232846L633.7067187499999,335.0046016148164L634.5098958333333,335.343973432269L635.3130729166667,336.4350858415882L636.11625,336.74244144984715L636.9194270833334,335.3362895420625L637.7226041666667,335.8459875924253L638.52578125,337.17658124651285L639.3289583333333,336.50039890834324L640.1321354166666,334.70364924839623L640.9353125,335.4592317853661L641.7384895833334,335.59241921561164L642.5416666666666,336.7309156145374L644.1480208333334,336.74372209821485L644.9511979166667,337.60944039481086L645.754375,334.57558441162166L646.5575520833332,334.3015256609241L647.3607291666666,335.8805650983544L648.16390625,337.7515923636306L648.9670833333333,334.62040710449276L649.7702604166667,335.22231183733317L650.5734375000001,333.904524666923L651.3766145833333,335.99070085798047L652.1797916666667,334.3770839146211L652.9829687499999,337.41862378801676L653.7861458333333,335.3362895420625L654.5893229166667,336.66688319615014L655.3925,336.75140598842137L656.1956770833333,335.5834546770374L656.9988541666667,335.06735338483594L657.80203125,337.79257311139844L658.6052083333334,345.64422825404637L659.4083854166666,347.46146828787727L660.2115625,346.07196480887336L661.0147395833333,346.50226266043586L661.8179166666666,349.61039624895426L662.62109375,349.974100385394L663.4242708333334,348.6627164568226L664.2274479166667,348.65247126988066L665.030625,347.8584692818784L665.8338020833334,349.2530953543533L666.6369791666666,349.11990792410774L667.44015625,347.64844294956816L668.2433333333333,348.94317844935887L669.0465104166667,351.52112361363066L669.8496875,350.38518851144033L670.6528645833333,349.41829899379246L671.4560416666667,351.4276362827852L672.2592187500001,349.2927954537534L673.0623958333333,352.5046615600592L673.8655729166667,350.84878322056426L674.6687499999999,351.5031945364822L675.4719270833333,352.8273849487311L676.2751041666667,350.12009429931703L677.07828125,350.7681023733963L677.8814583333334,353.71871621268195L678.6846354166668,352.13711547851625L679.4878125,351.88995034354133L680.2909895833333,353.54326738630084L681.89734375,351.77725328717975L682.7005208333334,349.9075066702713L683.5036979166666,351.2060841151652L684.306875,350.7783475603382L685.1100520833334,351.921966552735L685.9132291666667,350.49276297433096L686.71640625,353.05534035818977L687.5195833333333,354.29884992327067L688.3227604166666,353.5253383091524L689.1259375,352.35738699776846L689.9291145833333,351.06009020124225L691.5354687500001,348.1542990548276L692.3386458333334,352.52643258231086L693.1418229166666,350.8167670113706L693.9449999999999,352.3087223597941L694.7481770833333,354.64590563092975L695.5513541666667,350.9640415736613L696.35453125,352.95288848877016L697.1577083333334,351.916843959264L697.9608854166667,350.3672594342919L698.7640625,349.4195796421602L699.5672395833333,352.04106685093535L700.3704166666666,352.5430810110916L701.17359375,353.59705461774615L702.7799479166666,349.9625745500843L703.583125,352.1742542811808L704.3863020833334,352.75951058524055L705.1894791666667,349.32481166294707L705.99265625,353.6341934204108L706.7958333333332,353.3127506801066L707.5990104166666,350.1431459699364L708.4021875,351.0549676077713L709.2053645833333,355.20554896763457L710.8117187500001,350.74889264788004L711.6148958333333,350.96788351876455L712.4180729166667,353.643157958985L713.2212499999999,351.8835471017026L714.0244270833333,352.82610430036334L714.8276041666667,352.148641313826L715.63078125,352.91318838937L716.4339583333333,353.638035365514L717.2371354166667,353.37422180175844L718.0403125,353.8877617972244L718.8434895833334,351.9834376743868L719.6466666666666,352.80305262974395L720.44984375,353.70847102574004L721.2530208333333,351.3828135899141L722.0561979166666,351.08570316859715L722.859375,353.37422180175844L724.4657291666667,353.80708095005645L725.26890625,354.6087668282651L726.0720833333334,353.2448763166161L726.8752604166666,356.1263351440436L727.6784375,353.4433768136167L728.4816145833333,353.4011154174811L729.2847916666667,352.2190769740519L730.08796875,355.2823878696993L730.8911458333333,353.0322886875704L731.6943229166667,356.28001294817307L732.4975000000001,353.4459381103522L733.3006770833333,355.0236968994147L734.1038541666667,355.8906958443784L734.9070312499999,355.3745945521769L735.7102083333333,353.789151872908L736.5133854166667,353.90056828090184L737.3165625,353.85318429129524L738.1197395833334,353.97100394112783L738.9229166666668,352.9259948730475L739.72609375,354.0901042393282L740.5292708333333,352.71212659563395L741.3324479166666,352.37403542654914L742.135625,353.34220559256477L742.9388020833334,354.0452815464571L743.7419791666666,353.05405970982207L744.54515625,352.73645891462115L745.3483333333334,352.98874664306703L746.1515104166667,354.5152794974197L746.9546875,354.13876887730254L747.7578645833333,353.95947810581816L748.5610416666666,351.6722401210246L749.36421875,353.9671619960246L750.1673958333333,354.39361790248387L750.9705729166667,352.4060516357428L751.7737500000001,356.22110312325674L752.5769270833334,353.27945382254524L753.3801041666666,354.2181690761027L754.1832812499999,352.7940880911697L754.9864583333333,352.0910121372774L756.5928125,355.79848916190076L757.3959895833334,354.3026918683739L758.1991666666667,356.4132003784186L759.00234375,353.4036767142166L760.6086979166666,357.4236319405698L761.411875,353.346047537668L762.2150520833334,353.6751741681786L763.0182291666666,357.61060660226065L763.82140625,353.93514578683096L765.4277604166667,352.11790575300006L766.2309375,353.9389877319342L767.0341145833332,353.919778006418L767.8372916666666,355.0403453281954L768.64046875,355.153042384557L769.4436458333333,353.4497800554554L770.2468229166667,355.13639395577627L771.0500000000001,352.631445748466L771.8531770833333,353.4420961652489L772.6563541666667,357.4735772269119L775.0658854166667,354.156697954451L775.8690625,354.6164507184716L776.6722395833333,354.428195408413L777.4754166666667,353.29482160295817L778.27859375,356.15579005650176L779.0817708333334,350.8769574846546L779.8849479166666,356.8883209228522L780.688125,353.5317415509911L781.4913020833333,354.6792024884911L782.2944791666666,355.5180271693644L783.9008333333334,358.8835710797997L784.7040104166667,355.44503021240297L785.5071875,355.54107883998387L786.3103645833334,356.45674242292193L787.1135416666666,357.88082340785496L787.91671875,357.54529353550566L788.7198958333333,356.78330775669707L789.5230729166667,355.14920043945375L790.32625,355.2849491664347L791.1294270833333,356.0021122523723L791.9326041666667,356.98565019880084L792.7357812500001,358.7785579136446L793.5389583333333,359.3522883823946L794.3421354166667,354.9596644810274L795.1453124999999,356.5374232700899L796.7516666666667,356.1173706054694L797.55484375,354.29500797816746L798.3580208333334,358.308559962682L799.1611979166668,358.3700310843338L799.964375,355.21579415457654L800.7675520833333,359.0065133231033L801.5707291666666,355.99058641706256L802.37390625,355.5743756975453L803.1770833333334,355.6819501604359L803.9802604166666,357.5440128871379L804.7834375,355.56669180733877L806.3897916666667,357.35703822544707L807.19296875,356.34788731166356L807.9961458333333,356.62578800746434L808.7993229166666,355.00320652553074L809.6025,358.378995622908L811.2088541666667,353.95691680908266L812.0120312500001,357.13548605782705L813.6183854166666,357.4364384242473L814.4215624999999,356.7564141409744L815.2247395833333,357.02278900146547L816.0279166666667,357.79886191231924L816.83109375,357.16622161865297L817.6342708333334,356.9843695504331L818.4374479166667,355.94576372419147L819.240625,356.9613178798137L820.0438020833333,356.17243848528244L820.8469791666666,352.7735977172858L821.65015625,355.54107883998387L822.4533333333334,358.97065516880645L823.2565104166666,356.38886805943145L824.0596875,356.5950524466385L824.8628645833334,355.84971509661057L825.6660416666667,356.4221649169928L826.46921875,356.62194606236113L827.2723958333332,357.14445059640127L828.0755729166666,356.300503322057L828.87875,357.4876643589571L829.6819270833333,358.937358311245L830.4851041666667,354.2309755597802L831.2882812500001,357.9999237060553L832.0914583333333,357.46589333670545L832.8946354166667,357.161099025182L834.5009895833333,355.97137669154637L835.3041666666667,357.75019727434494L836.10734375,356.88704027448443L836.9105208333333,356.6360331944063L837.7136979166667,356.25183868408266L838.516875,355.49241420200957L839.3200520833334,359.02188110351625L840.1232291666666,356.6385944911418L840.92640625,358.373873029437L841.7295833333333,356.0597414289208L842.5327604166666,357.8846653529582L843.3359375,356.7871497018003L844.1391145833334,356.6040169852127L844.9422916666667,355.87917000906873L845.74546875,357.55938066755084L846.5486458333334,358.73757716587676L847.3518229166666,358.5544444492891L848.155,355.2964750017445L848.9581770833333,357.61316789899615L850.56453125,355.34770093645426L851.3677083333333,356.4644263131284L852.1708854166667,356.77434321812285L852.9740625000001,353.80451965332094L853.7772395833333,358.69275447300566L854.5804166666667,358.35210200718535L855.3835937499999,358.96553257533543L856.9899479166667,354.99296133858877L857.793125,356.32739693777967L858.5963020833334,357.71818106515127L859.3994791666668,356.235190255302L860.20265625,357.42235129220205L861.0058333333333,355.5013787405838L861.8090104166666,360.301248822894L863.4153645833334,357.8475265502936L864.2185416666666,358.3572246006563L865.02171875,357.5299257550927L865.8248958333334,355.54107883998387L866.6280729166667,357.65799059186725L867.43125,356.5886492047997L868.2344270833333,358.74141911097996L869.0376041666666,357.08426012311725L869.84078125,354.211765834264L871.4471354166667,357.3698447091245L872.2503125000001,356.8524627685553L873.0534895833334,357.8500878470291L873.8566666666666,356.9561952863427L874.6598437499999,359.3356399536139L875.4630208333333,356.6782945905419L876.2661979166667,358.3316116333014L877.069375,357.11243438720766L877.8725520833334,357.7361101422997L878.6757291666667,357.1085924421044L879.47890625,358.41357312883713L880.2820833333333,357.04456002371717L881.0852604166666,355.44246891566746L881.8884375,356.2467160906117L882.6916145833334,357.6272550310414L883.4947916666666,357.6451841081898L884.29796875,357.05864715576234L885.1011458333334,356.7167140415743L885.9043229166667,356.8780757359102L886.7075,357.18799264090467L887.5106770833332,355.29263305664125L888.3138541666666,353.9441103254052L889.11703125,357.3839318411697L890.7233854166667,358.2970341273723L891.5265625000001,358.21507263183656L892.3297395833333,356.0046735491078L893.1329166666667,357.76940699986113L893.9360937499999,358.5992671421602L894.7392708333333,358.10493687221043L895.5424479166667,356.3747809273862L896.345625,357.28788321358877L897.1488020833333,357.49534824916356L898.75515625,355.48344966343535L899.5583333333334,355.72549220493926L900.3615104166666,359.92089625767363L901.1646875,358.38924080985L901.9678645833333,355.96241215297215L902.7710416666666,356.54894910539963L903.57421875,358.76575142996717L904.3773958333334,358.3008760724755L905.1805729166667,356.49644252232207L905.98375,357.00101797921377L906.7869270833334,355.76135035923613L907.5901041666666,357.07785688127854L908.39328125,354.99296133858877L909.1964583333333,358.44174739292754L910.8028125,357.6118872506284L911.6059895833333,355.72421155657145L912.4091666666667,357.8167909894677L913.2123437500001,355.7306147984102L914.0155208333333,357.9038750784744L914.8186979166667,357.41850934709885L915.6218749999999,355.7575084141329L916.4250520833333,357.19567653111113L917.2282291666667,355.29903629847996L918.03140625,356.9100919451039L918.8345833333334,356.56431688581256L919.6377604166668,357.7130584716803L920.4409375,357.89619118826795L921.2441145833333,359.0103552682065L922.0472916666666,356.3568518502378L922.85046875,357.7450746808739L923.6536458333334,356.3901487077992L924.4568229166666,358.21763392857207L925.26,358.8387483869286L926.0631770833334,358.6568963187088L926.8663541666667,357.1905539376401" style="fill: none;" fill="none"></path></g></g></g></g></g></g><g transform="translate(53, 376)" clip-path="url(#clip_1)"><clipPath id="clip_1"><rect width="963" height="24"></rect></clipPath><g><g><line x1="0" y1="0" x2="0" y2="5" style="visibility: inherit;" fill="rgb(0, 0, 0)" stroke="rgb(204, 204, 204)" stroke-width="1px"></line><line x1="80.31770833333333" y1="0" x2="80.31770833333333" y2="5" style="visibility: inherit;" fill="rgb(0, 0, 0)" stroke="rgb(204, 204, 204)" stroke-width="1px"></line><line x1="160.63541666666666" y1="0" x2="160.63541666666666" y2="5" style="visibility: inherit;" fill="rgb(0, 0, 0)" stroke="rgb(204, 204, 204)" stroke-width="1px"></line><line x1="240.953125" y1="0" x2="240.953125" y2="5" style="visibility: inherit;" fill="rgb(0, 0, 0)" stroke="rgb(204, 204, 204)" stroke-width="1px"></line><line x1="321.2708333333333" y1="0" x2="321.2708333333333" y2="5" style="visibility: inherit;" fill="rgb(0, 0, 0)" stroke="rgb(204, 204, 204)" stroke-width="1px"></line><line x1="401.5885416666667" y1="0" x2="401.5885416666667" y2="5" style="visibility: inherit;" fill="rgb(0, 0, 0)" stroke="rgb(204, 204, 204)" stroke-width="1px"></line><line x1="481.90625" y1="0" x2="481.90625" y2="5" style="visibility: inherit;" fill="rgb(0, 0, 0)" stroke="rgb(204, 204, 204)" stroke-width="1px"></line><line x1="562.2239583333334" y1="0" x2="562.2239583333334" y2="5" style="visibility: inherit;" fill="rgb(0, 0, 0)" stroke="rgb(204, 204, 204)" stroke-width="1px"></line><line x1="642.5416666666666" y1="0" x2="642.5416666666666" y2="5" style="visibility: inherit;" fill="rgb(0, 0, 0)" stroke="rgb(204, 204, 204)" stroke-width="1px"></line><line x1="722.859375" y1="0" x2="722.859375" y2="5" style="visibility: inherit;" fill="rgb(0, 0, 0)" stroke="rgb(204, 204, 204)" stroke-width="1px"></line><line x1="803.1770833333334" y1="0" x2="803.1770833333334" y2="5" style="visibility: inherit;" fill="rgb(0, 0, 0)" stroke="rgb(204, 204, 204)" stroke-width="1px"></line><line x1="883.4947916666666" y1="0" x2="883.4947916666666" y2="5" style="visibility: inherit;" fill="rgb(0, 0, 0)" stroke="rgb(204, 204, 204)" stroke-width="1px"></line><line x1="963.8125" y1="0" x2="963.8125" y2="5" style="visibility: inherit;" fill="rgb(0, 0, 0)" stroke="rgb(204, 204, 204)" stroke-width="1px"></line></g><g transform="translate(0, 8)"><text x="0" y="0" dx="0em" dy="0.95em" style="text-anchor: middle; visibility: hidden; font-family: Roboto, sans-serif; font-size: 12px; font-weight: 200;" fill="rgb(255, 255, 255)" stroke="none" stroke-width="1px">-100</text><text x="80.31770833333333" y="0" dx="0em" dy="0.95em" style="text-anchor: middle; visibility: inherit; font-family: Roboto, sans-serif; font-size: 12px; font-weight: 200;" fill="rgb(255, 255, 255)" stroke="none" stroke-width="1px">0</text><text x="160.63541666666666" y="0" dx="0em" dy="0.95em" style="text-anchor: middle; visibility: inherit; font-family: Roboto, sans-serif; font-size: 12px; font-weight: 200;" fill="rgb(255, 255, 255)" stroke="none" stroke-width="1px">100</text><text x="240.953125" y="0" dx="0em" dy="0.95em" style="text-anchor: middle; visibility: inherit; font-family: Roboto, sans-serif; font-size: 12px; font-weight: 200;" fill="rgb(255, 255, 255)" stroke="none" stroke-width="1px">200</text><text x="321.2708333333333" y="0" dx="0em" dy="0.95em" style="text-anchor: middle; visibility: inherit; font-family: Roboto, sans-serif; font-size: 12px; font-weight: 200;" fill="rgb(255, 255, 255)" stroke="none" stroke-width="1px">300</text><text x="401.5885416666667" y="0" dx="0em" dy="0.95em" style="text-anchor: middle; visibility: inherit; font-family: Roboto, sans-serif; font-size: 12px; font-weight: 200;" fill="rgb(255, 255, 255)" stroke="none" stroke-width="1px">400</text><text x="481.90625" y="0" dx="0em" dy="0.95em" style="text-anchor: middle; visibility: inherit; font-family: Roboto, sans-serif; font-size: 12px; font-weight: 200;" fill="rgb(255, 255, 255)" stroke="none" stroke-width="1px">500</text><text x="562.2239583333334" y="0" dx="0em" dy="0.95em" style="text-anchor: middle; visibility: inherit; font-family: Roboto, sans-serif; font-size: 12px; font-weight: 200;" fill="rgb(255, 255, 255)" stroke="none" stroke-width="1px">600</text><text x="642.5416666666666" y="0" dx="0em" dy="0.95em" style="text-anchor: middle; visibility: inherit; font-family: Roboto, sans-serif; font-size: 12px; font-weight: 200;" fill="rgb(255, 255, 255)" stroke="none" stroke-width="1px">700</text><text x="722.859375" y="0" dx="0em" dy="0.95em" style="text-anchor: middle; visibility: inherit; font-family: Roboto, sans-serif; font-size: 12px; font-weight: 200;" fill="rgb(255, 255, 255)" stroke="none" stroke-width="1px">800</text><text x="803.1770833333334" y="0" dx="0em" dy="0.95em" style="text-anchor: middle; visibility: inherit; font-family: Roboto, sans-serif; font-size: 12px; font-weight: 200;" fill="rgb(255, 255, 255)" stroke="none" stroke-width="1px">900</text><text x="883.4947916666666" y="0" dx="0em" dy="0.95em" style="text-anchor: middle; visibility: inherit; font-family: Roboto, sans-serif; font-size: 12px; font-weight: 200;" fill="rgb(255, 255, 255)" stroke="none" stroke-width="1px">1k</text><text x="963.8125" y="0" dx="0em" dy="0.95em" style="text-anchor: middle; visibility: hidden; font-family: Roboto, sans-serif; font-size: 12px; font-weight: 200;" fill="rgb(255, 255, 255)" stroke="none" stroke-width="1px">1.1k</text></g><line x1="0" y1="0" x2="963.8125" y2="0" fill="rgb(0, 0, 0)" stroke="rgb(204, 204, 204)" stroke-width="1px"></line></g></g></g></g></svg>