<svg viewBox="0 0 1017 400" xmlns="http://www.w3.org/2000/svg"><g><g><g><g><g><line x1="72.34375" y1="377" x2="67.34375" y2="377" style="visibility: inherit;" fill="rgb(0, 0, 0)" stroke="rgb(204, 204, 204)" stroke-width="1px"></line><line x1="72.34375" y1="342.7272727272727" x2="67.34375" y2="342.7272727272727" style="visibility: inherit;" fill="rgb(0, 0, 0)" stroke="rgb(204, 204, 204)" stroke-width="1px"></line><line x1="72.34375" y1="308.45454545454544" x2="67.34375" y2="308.45454545454544" style="visibility: inherit;" fill="rgb(0, 0, 0)" stroke="rgb(204, 204, 204)" stroke-width="1px"></line><line x1="72.34375" y1="274.1818181818182" x2="67.34375" y2="274.1818181818182" style="visibility: inherit;" fill="rgb(0, 0, 0)" stroke="rgb(204, 204, 204)" stroke-width="1px"></line><line x1="72.34375" y1="239.9090909090909" x2="67.34375" y2="239.9090909090909" style="visibility: inherit;" fill="rgb(0, 0, 0)" stroke="rgb(204, 204, 204)" stroke-width="1px"></line><line x1="72.34375" y1="205.63636363636363" x2="67.34375" y2="205.63636363636363" style="visibility: inherit;" fill="rgb(0, 0, 0)" stroke="rgb(204, 204, 204)" stroke-width="1px"></line><line x1="72.34375" y1="171.36363636363637" x2="67.34375" y2="171.36363636363637" style="visibility: inherit;" fill="rgb(0, 0, 0)" stroke="rgb(204, 204, 204)" stroke-width="1px"></line><line x1="72.34375" y1="137.0909090909091" x2="67.34375" y2="137.0909090909091" style="visibility: inherit;" fill="rgb(0, 0, 0)" stroke="rgb(204, 204, 204)" stroke-width="1px"></line><line x1="72.34375" y1="102.81818181818181" x2="67.34375" y2="102.81818181818181" style="visibility: inherit;" fill="rgb(0, 0, 0)" stroke="rgb(204, 204, 204)" stroke-width="1px"></line><line x1="72.34375" y1="68.54545454545458" x2="67.34375" y2="68.54545454545458" style="visibility: inherit;" fill="rgb(0, 0, 0)" stroke="rgb(204, 204, 204)" stroke-width="1px"></line><line x1="72.34375" y1="34.27272727272729" x2="67.34375" y2="34.27272727272729" style="visibility: inherit;" fill="rgb(0, 0, 0)" stroke="rgb(204, 204, 204)" stroke-width="1px"></line><line x1="72.34375" y1="0" x2="67.34375" y2="0" style="visibility: inherit;" fill="rgb(0, 0, 0)" stroke="rgb(204, 204, 204)" stroke-width="1px"></line></g><g transform="translate(62.34375, 0)"><text x="0" y="377" dx="0em" dy="0.3em" style="text-anchor: end; visibility: hidden; font-family: Roboto, sans-serif; font-size: 12px; font-weight: 200;" fill="rgb(255, 255, 255)" stroke="none" stroke-width="1px">0</text><text x="0" y="342.7272727272727" dx="0em" dy="0.3em" style="text-anchor: end; visibility: inherit; font-family: Roboto, sans-serif; font-size: 12px; font-weight: 200;" fill="rgb(255, 255, 255)" stroke="none" stroke-width="1px">1e-4</text><text x="0" y="308.45454545454544" dx="0em" dy="0.3em" style="text-anchor: end; visibility: inherit; font-family: Roboto, sans-serif; font-size: 12px; font-weight: 200;" fill="rgb(255, 255, 255)" stroke="none" stroke-width="1px">2e-4</text><text x="0" y="274.1818181818182" dx="0em" dy="0.3em" style="text-anchor: end; visibility: inherit; font-family: Roboto, sans-serif; font-size: 12px; font-weight: 200;" fill="rgb(255, 255, 255)" stroke="none" stroke-width="1px">3e-4</text><text x="0" y="239.9090909090909" dx="0em" dy="0.3em" style="text-anchor: end; visibility: inherit; font-family: Roboto, sans-serif; font-size: 12px; font-weight: 200;" fill="rgb(255, 255, 255)" stroke="none" stroke-width="1px">4e-4</text><text x="0" y="205.63636363636363" dx="0em" dy="0.3em" style="text-anchor: end; visibility: inherit; font-family: Roboto, sans-serif; font-size: 12px; font-weight: 200;" fill="rgb(255, 255, 255)" stroke="none" stroke-width="1px">5e-4</text><text x="0" y="171.36363636363637" dx="0em" dy="0.3em" style="text-anchor: end; visibility: inherit; font-family: Roboto, sans-serif; font-size: 12px; font-weight: 200;" fill="rgb(255, 255, 255)" stroke="none" stroke-width="1px">6e-4</text><text x="0" y="137.0909090909091" dx="0em" dy="0.3em" style="text-anchor: end; visibility: inherit; font-family: Roboto, sans-serif; font-size: 12px; font-weight: 200;" fill="rgb(255, 255, 255)" stroke="none" stroke-width="1px">7e-4</text><text x="0" y="102.81818181818181" dx="0em" dy="0.3em" style="text-anchor: end; visibility: inherit; font-family: Roboto, sans-serif; font-size: 12px; font-weight: 200;" fill="rgb(255, 255, 255)" stroke="none" stroke-width="1px">8e-4</text><text x="0" y="68.54545454545458" dx="0em" dy="0.3em" style="text-anchor: end; visibility: inherit; font-family: Roboto, sans-serif; font-size: 12px; font-weight: 200;" fill="rgb(255, 255, 255)" stroke="none" stroke-width="1px">9e-4</text><text x="0" y="34.27272727272729" dx="0em" dy="0.3em" style="text-anchor: end; visibility: inherit; font-family: Roboto, sans-serif; font-size: 12px; font-weight: 200;" fill="rgb(255, 255, 255)" stroke="none" stroke-width="1px">1e-3</text><text x="0" y="0" dx="0em" dy="0.3em" style="text-anchor: end; visibility: hidden; font-family: Roboto, sans-serif; font-size: 12px; font-weight: 200;" fill="rgb(255, 255, 255)" stroke="none" stroke-width="1px">1.1e-3</text></g><line x1="72.34375" y1="0" x2="72.34375" y2="377" fill="rgb(0, 0, 0)" stroke="rgb(204, 204, 204)" stroke-width="1px"></line></g></g><g transform="translate(72, 0)" clip-path="url(#clip_0)"><clipPath id="clip_0"><rect width="944" height="377"></rect></clipPath><g><g><g><line x1="0" y1="0" x2="0" y2="377" fill="rgb(0, 0, 0)" stroke="rgb(189, 189, 189)" stroke-width="1px" opacity="0.25"></line><line x1="72.66586538461539" y1="0" x2="72.66586538461539" y2="377" fill="rgb(0, 0, 0)" stroke="rgb(189, 189, 189)" stroke-width="1px" opacity="0.25"></line><line x1="145.33173076923077" y1="0" x2="145.33173076923077" y2="377" fill="rgb(0, 0, 0)" stroke="rgb(189, 189, 189)" stroke-width="1px" opacity="0.25"></line><line x1="217.99759615384616" y1="0" x2="217.99759615384616" y2="377" fill="rgb(0, 0, 0)" stroke="rgb(189, 189, 189)" stroke-width="1px" opacity="0.25"></line><line x1="290.66346153846155" y1="0" x2="290.66346153846155" y2="377" fill="rgb(0, 0, 0)" stroke="rgb(189, 189, 189)" stroke-width="1px" opacity="0.25"></line><line x1="363.32932692307696" y1="0" x2="363.32932692307696" y2="377" fill="rgb(0, 0, 0)" stroke="rgb(189, 189, 189)" stroke-width="1px" opacity="0.25"></line><line x1="435.9951923076923" y1="0" x2="435.9951923076923" y2="377" fill="rgb(0, 0, 0)" stroke="rgb(189, 189, 189)" stroke-width="1px" opacity="0.25"></line><line x1="508.6610576923077" y1="0" x2="508.6610576923077" y2="377" fill="rgb(0, 0, 0)" stroke="rgb(189, 189, 189)" stroke-width="1px" opacity="0.25"></line><line x1="581.3269230769231" y1="0" x2="581.3269230769231" y2="377" fill="rgb(0, 0, 0)" stroke="rgb(189, 189, 189)" stroke-width="1px" opacity="0.25"></line><line x1="653.9927884615385" y1="0" x2="653.9927884615385" y2="377" fill="rgb(0, 0, 0)" stroke="rgb(189, 189, 189)" stroke-width="1px" opacity="0.25"></line><line x1="726.6586538461539" y1="0" x2="726.6586538461539" y2="377" fill="rgb(0, 0, 0)" stroke="rgb(189, 189, 189)" stroke-width="1px" opacity="0.25"></line><line x1="799.3245192307692" y1="0" x2="799.3245192307692" y2="377" fill="rgb(0, 0, 0)" stroke="rgb(189, 189, 189)" stroke-width="1px" opacity="0.25"></line><line x1="871.9903846153846" y1="0" x2="871.9903846153846" y2="377" fill="rgb(0, 0, 0)" stroke="rgb(189, 189, 189)" stroke-width="1px" opacity="0.25"></line><line x1="944.65625" y1="0" x2="944.65625" y2="377" fill="rgb(0, 0, 0)" stroke="rgb(189, 189, 189)" stroke-width="1px" opacity="0.25"></line></g><g><line x1="0" y1="377" x2="944.65625" y2="377" fill="rgb(0, 0, 0)" stroke="rgb(189, 189, 189)" stroke-width="1px" opacity="0.25"></line><line x1="0" y1="342.7272727272727" x2="944.65625" y2="342.7272727272727" fill="rgb(0, 0, 0)" stroke="rgb(189, 189, 189)" stroke-width="1px" opacity="0.25"></line><line x1="0" y1="308.45454545454544" x2="944.65625" y2="308.45454545454544" fill="rgb(0, 0, 0)" stroke="rgb(189, 189, 189)" stroke-width="1px" opacity="0.25"></line><line x1="0" y1="274.1818181818182" x2="944.65625" y2="274.1818181818182" fill="rgb(0, 0, 0)" stroke="rgb(189, 189, 189)" stroke-width="1px" opacity="0.25"></line><line x1="0" y1="239.9090909090909" x2="944.65625" y2="239.9090909090909" fill="rgb(0, 0, 0)" stroke="rgb(189, 189, 189)" stroke-width="1px" opacity="0.25"></line><line x1="0" y1="205.63636363636363" x2="944.65625" y2="205.63636363636363" fill="rgb(0, 0, 0)" stroke="rgb(189, 189, 189)" stroke-width="1px" opacity="0.25"></line><line x1="0" y1="171.36363636363637" x2="944.65625" y2="171.36363636363637" fill="rgb(0, 0, 0)" stroke="rgb(189, 189, 189)" stroke-width="1px" opacity="0.25"></line><line x1="0" y1="137.0909090909091" x2="944.65625" y2="137.0909090909091" fill="rgb(0, 0, 0)" stroke="rgb(189, 189, 189)" stroke-width="1px" opacity="0.25"></line><line x1="0" y1="102.81818181818181" x2="944.65625" y2="102.81818181818181" fill="rgb(0, 0, 0)" stroke="rgb(189, 189, 189)" stroke-width="1px" opacity="0.25"></line><line x1="0" y1="68.54545454545458" x2="944.65625" y2="68.54545454545458" fill="rgb(0, 0, 0)" stroke="rgb(189, 189, 189)" stroke-width="1px" opacity="0.25"></line><line x1="0" y1="34.27272727272729" x2="944.65625" y2="34.27272727272729" fill="rgb(0, 0, 0)" stroke="rgb(189, 189, 189)" stroke-width="1px" opacity="0.25"></line><line x1="0" y1="0" x2="944.65625" y2="0" fill="rgb(0, 0, 0)" stroke="rgb(189, 189, 189)" stroke-width="1px" opacity="0.25"></line></g></g></g><g><g><line x1="0" y1="377" x2="944.65625" y2="377" fill="rgb(0, 0, 0)" stroke="rgb(153, 153, 153)" stroke-width="1.5px"></line></g></g><g><g><line x1="72.66586538461539" y1="0" x2="72.66586538461539" y2="377" fill="rgb(0, 0, 0)" stroke="rgb(153, 153, 153)" stroke-width="1.5px"></line></g></g><g><g><g><g><g><path stroke="rgb(255, 112, 67)" stroke-width="2px" d="M72.66586538461539,34.27271099405533L76.29915865384616,34.27271099405533L79.93245192307693,34.27271099405533L83.5657451923077,34.272710994055416L87.19903846153846,34.272710994055416L90.83233173076924,34.27271099405533L94.465625,34.27271099405533L98.09891826923078,34.27271099405533L101.73221153846154,34.27271099405533L105.36550480769232,34.27271099405533L108.99879807692308,34.27271099405533L112.63209134615386,34.27271099405529L116.26538461538462,34.27271099405529L119.89867788461538,34.27271099405533L123.53197115384616,34.27271099405533L127.16526442307692,34.27271099405529L130.7985576923077,34.27271099405529L134.43185096153846,34.27271099405533L138.06514423076925,34.272710994055416L141.69843749999998,34.27271099405533L145.33173076923077,34.27271099405533L148.96502403846154,34.27271099405533L152.59831730769233,34.27271099405533L156.23161057692306,34.27271099405533L159.86490384615385,34.27271099405533L163.4981971153846,34.27271099405533L167.1314903846154,34.272710994055416L170.76478365384614,34.27271099405533L174.39807692307693,34.27271099405533L178.0313701923077,34.272710994055416L181.66466346153848,34.27271099405533L185.29795673076922,34.272710994055416L188.93125,34.27271099405533L192.56454326923077,34.272710994055416L196.19783653846156,34.272710994055416L199.8311298076923,34.272710994055416L203.46442307692308,34.272710994055416L207.09771634615385,34.272710994055416L210.73100961538464,34.2727109940555L214.36430288461537,34.272710994055416L217.99759615384616,34.272710994055416L221.63088942307692,34.272710994055416L225.2641826923077,34.272710994055416L228.89747596153845,34.272710994055416L232.53076923076924,34.272710994055416L236.1640625,34.272710994055416L239.79735576923076,34.272710994055416L243.43064903846152,34.272710994055416L247.06394230769232,34.27271099405533L250.69723557692308,34.27271099405533L254.33052884615384,34.272710994055416L257.9638221153846,34.272710994055416L261.5971153846154,34.27271099405533L265.23040865384615,34.272710994055416L268.8637019230769,34.2727109940555L272.4969951923077,34.272710994055416L276.1302884615385,34.272710994055416L279.76358173076926,34.27271099405533L283.39687499999997,34.27271099405533L287.0301682692307,34.272710994055416L290.66346153846155,34.272710994055416L294.2967548076923,34.272710994055416L297.9300480769231,34.272710994055416L301.56334134615383,34.272710994055416L305.19663461538465,34.272710994055416L308.8299278846154,34.27271099405533L312.4632211538461,34.27271099405533L316.0965144230769,34.27271099405533L319.7298076923077,34.27271099405533L323.36310096153846,34.27271099405533L326.9963942307692,34.272710994055416L330.6296875,34.272710994055416L334.2629807692308,34.272710994055416L337.89627403846157,34.2727109940555L341.5295673076923,34.2727109940555L345.16286057692304,34.2727109940555L348.79615384615386,34.2727109940555L352.4294471153846,34.2727109940555L356.0627403846154,34.2727109940555L359.69603365384614,34.2727109940555L363.32932692307696,34.2727109940555L366.9626201923077,34.2727109940555L370.59591346153843,34.2727109940555L374.2292067307692,34.2727109940555L377.8625,34.2727109940555L381.4957932692308,34.2727109940555L385.12908653846154,34.2727109940555L388.7623798076923,34.2727109940555L392.3956730769231,34.2727109940555L396.0289663461539,34.2727109940555L399.6622596153846,34.2727109940555L403.29555288461535,34.2727109940555L406.92884615384617,34.2727109940555L410.5621394230769,34.2727109940555L414.1954326923077,34.2727109940555L417.82872596153845,34.2727109940555L421.4620192307693,34.2727109940555L425.09531250000003,34.2727109940555L428.72860576923074,34.2727109940555L432.3618990384615,34.2727109940555L435.9951923076923,34.2727109940555L439.6284855769231,34.2727109940555L443.26177884615385,34.2727109940555L446.8950721153846,34.2727109940555L450.5283653846154,34.2727109940555L454.1616586538462,34.2727109940555L457.7949519230769,34.2727109940555L461.42824519230766,34.2727109940555L465.0615384615385,34.2727109940555L468.69483173076924,34.2727109940555L472.328125,34.2727109940555L475.96141826923076,34.2727109940555L479.5947115384615,34.2727109940555L483.2280048076923,34.2727109940555L486.86129807692305,34.2727109940555L490.49459134615387,34.2727109940555L494.12788461538463,34.2727109940555L497.7611778846154,34.2727109940555L501.39447115384615,34.2727109940555L505.0277644230769,34.2727109940555L508.6610576923077,34.2727109940555L512.2943509615384,34.2727109940555L515.9276442307691,34.2727109940555L519.5609375,34.2727109940555L523.1942307692308,34.2727109940555L526.8275240384615,34.2727109940555L530.4608173076923,34.2727109940555L534.0941105769231,34.2727109940555L537.7274038461538,34.2727109940555L541.3606971153846,34.2727109940555L544.9939903846154,34.2727109940555L548.6272836538462,34.2727109940555L552.260576923077,34.2727109940555L555.8938701923078,34.2727109940555L559.5271634615385,34.2727109940555L563.1604567307692,34.2727109940555L566.7937499999999,34.2727109940555L570.4270432692307,34.2727109940555L574.0603365384615,34.2727109940555L577.6936298076923,34.2727109940555L581.3269230769231,34.2727109940555L584.9602163461539,34.2727109940555L588.5935096153846,34.2727109940555L592.2268028846154,34.2727109940555L595.8600961538461,34.2727109940555L599.4933894230769,34.2727109940555L603.1266826923077,34.2727109940555L606.7599759615385,34.2727109940555L610.3932692307693,34.2727109940555L614.0265625000001,157.65453603366316L617.6598557692308,231.6836310574278L621.2931490384615,276.10108807168655L624.9264423076922,302.7515622802418L628.559735576923,318.7418468053749L632.1930288461538,328.3360175204548L635.8263221153846,334.09251994950273L639.4596153846154,337.5464214069315L643.0929086538462,339.6187622813888L646.7262019230769,340.8621668060631L650.3594951923077,341.6082095208677L653.9927884615385,342.05583514975046L657.6260817307692,342.32441052708015L661.259375,342.48555575347797L664.8926682692309,342.58224288931666L668.5259615384616,342.64025517081984L672.1592548076924,342.6750625397218L675.7925480769231,342.69594696106293L679.4258413461538,342.7084776138676L683.0591346153846,342.71599600555044L686.6924278846153,342.7205070405601L690.3257211538461,342.7232136615659L693.959014423077,342.72483763416943L697.5923076923077,342.7258120177315L701.2256009615385,342.72639664786874L704.8588942307692,342.7267474259511L708.4921875,342.72695789280056L712.1254807692308,342.72708417291017L715.7587740384615,342.727159940976L719.3920673076923,342.72720540181547L723.025360576923,342.7272326783191L726.6586538461539,342.7272490442213L730.2919471153847,342.72725886376264L733.9252403846154,342.72726475548745L737.5585336538462,342.7272682905223L741.1918269230769,342.72727041154326L744.8251201923076,342.72727168415577L748.4584134615384,342.72727244772335L752.0917067307691,342.72727290586386L755.725,342.72727318074817L759.3582932692308,342.7272733456787L762.9915865384615,342.7272734446371L766.6248798076923,342.7272735040121L770.2581730769231,342.7272735396371L773.8914663461538,342.72727356101217L777.5247596153846,342.7272735738371L781.1580528846154,342.72727358153213L784.7913461538462,342.7272735861492L788.424639423077,342.72727358891933L792.0579326923078,342.7272735905815L795.6912259615385,342.72727359157875L799.3245192307692,342.7272735921771L802.9578124999999,342.7272735925361L806.5911057692307,342.72727359275154L810.2243990384615,342.72727359288075L813.8576923076923,342.72727359295834L817.4909855769231,342.7272735930049L821.1242788461539,342.7272735930328L824.7575721153846,342.7272735930495L828.3908653846154,342.7272735930596L832.0241586538461,342.7272735930656L835.6574519230769,342.7272735930692L839.2907451923077,342.7272735930714L842.9240384615385,342.7272735930727L846.5573317307693,342.72727359307345L850.1906250000001,342.7272735930739L853.8239182692308,342.72727359307424L857.4572115384615,342.7272735930744L861.0905048076922,342.7272735930745L864.723798076923,342.7272735930746L868.3570913461538,342.7272735930746L871.9903846153846,342.7272735930746" style="fill: none;" fill="none"></path></g></g></g></g><g opacity="0.2"><g><g><g><path stroke="rgb(255, 112, 67)" stroke-width="2px" d="M72.66586538461539,34.27271099405533L76.29915865384616,34.27271099405533L79.93245192307693,34.27271099405533L83.5657451923077,34.27271099405533L87.19903846153846,34.27271099405533L90.83233173076924,34.27271099405533L94.465625,34.27271099405533L98.09891826923078,34.27271099405533L101.73221153846154,34.27271099405533L105.36550480769232,34.27271099405533L108.99879807692308,34.27271099405533L112.63209134615386,34.27271099405533L116.26538461538462,34.27271099405533L119.89867788461538,34.27271099405533L123.53197115384616,34.27271099405533L127.16526442307692,34.27271099405533L130.7985576923077,34.27271099405533L134.43185096153846,34.27271099405533L138.06514423076925,34.27271099405533L141.69843749999998,34.27271099405533L145.33173076923077,34.27271099405533L148.96502403846154,34.27271099405533L152.59831730769233,34.27271099405533L156.23161057692306,34.27271099405533L159.86490384615385,34.27271099405533L163.4981971153846,34.27271099405533L167.1314903846154,34.27271099405533L170.76478365384614,34.27271099405533L174.39807692307693,34.27271099405533L178.0313701923077,34.27271099405533L181.66466346153848,34.27271099405533L185.29795673076922,34.27271099405533L188.93125,34.27271099405533L192.56454326923077,34.27271099405533L196.19783653846156,34.27271099405533L199.8311298076923,34.27271099405533L203.46442307692308,34.27271099405533L207.09771634615385,34.27271099405533L210.73100961538464,34.27271099405533L214.36430288461537,34.27271099405533L217.99759615384616,34.27271099405533L221.63088942307692,34.27271099405533L225.2641826923077,34.27271099405533L228.89747596153845,34.27271099405533L232.53076923076924,34.27271099405533L236.1640625,34.27271099405533L239.79735576923076,34.27271099405533L243.43064903846152,34.27271099405533L247.06394230769232,34.27271099405533L250.69723557692308,34.27271099405533L254.33052884615384,34.27271099405533L257.9638221153846,34.27271099405533L261.5971153846154,34.27271099405533L265.23040865384615,34.27271099405533L268.8637019230769,34.27271099405533L272.4969951923077,34.27271099405533L276.1302884615385,34.27271099405533L279.76358173076926,34.27271099405533L283.39687499999997,34.27271099405533L287.0301682692307,34.27271099405533L290.66346153846155,34.27271099405533L294.2967548076923,34.27271099405533L297.9300480769231,34.27271099405533L301.56334134615383,34.27271099405533L305.19663461538465,34.27271099405533L308.8299278846154,34.27271099405533L312.4632211538461,34.27271099405533L316.0965144230769,34.27271099405533L319.7298076923077,34.27271099405533L323.36310096153846,34.27271099405533L326.9963942307692,34.27271099405533L330.6296875,34.27271099405533L334.2629807692308,34.27271099405533L337.89627403846157,34.27271099405533L341.5295673076923,34.27271099405533L345.16286057692304,34.27271099405533L348.79615384615386,34.27271099405533L352.4294471153846,34.27271099405533L356.0627403846154,34.27271099405533L359.69603365384614,34.27271099405533L363.32932692307696,34.27271099405533L366.9626201923077,34.27271099405533L370.59591346153843,34.27271099405533L374.2292067307692,34.27271099405533L377.8625,34.27271099405533L381.4957932692308,34.27271099405533L385.12908653846154,34.27271099405533L388.7623798076923,34.27271099405533L392.3956730769231,34.27271099405533L396.0289663461539,34.27271099405533L399.6622596153846,34.27271099405533L403.29555288461535,34.27271099405533L406.92884615384617,34.27271099405533L410.5621394230769,34.27271099405533L414.1954326923077,34.27271099405533L417.82872596153845,34.27271099405533L421.4620192307693,34.27271099405533L425.09531250000003,34.27271099405533L428.72860576923074,34.27271099405533L432.3618990384615,34.27271099405533L435.9951923076923,34.27271099405533L439.6284855769231,34.27271099405533L443.26177884615385,34.27271099405533L446.8950721153846,34.27271099405533L450.5283653846154,34.27271099405533L454.1616586538462,34.27271099405533L457.7949519230769,34.27271099405533L461.42824519230766,34.27271099405533L465.0615384615385,34.27271099405533L468.69483173076924,34.27271099405533L472.328125,34.27271099405533L475.96141826923076,34.27271099405533L479.5947115384615,34.27271099405533L483.2280048076923,34.27271099405533L486.86129807692305,34.27271099405533L490.49459134615387,34.27271099405533L494.12788461538463,34.27271099405533L497.7611778846154,34.27271099405533L501.39447115384615,34.27271099405533L505.0277644230769,34.27271099405533L508.6610576923077,34.27271099405533L512.2943509615384,34.27271099405533L515.9276442307691,34.27271099405533L519.5609375,34.27271099405533L523.1942307692308,34.27271099405533L526.8275240384615,34.27271099405533L530.4608173076923,34.27271099405533L534.0941105769231,34.27271099405533L537.7274038461538,34.27271099405533L541.3606971153846,34.27271099405533L544.9939903846154,34.27271099405533L548.6272836538462,34.27271099405533L552.260576923077,34.27271099405533L555.8938701923078,34.27271099405533L559.5271634615385,34.27271099405533L563.1604567307692,34.27271099405533L566.7937499999999,34.27271099405533L570.4270432692307,34.27271099405533L574.0603365384615,34.27271099405533L577.6936298076923,34.27271099405533L581.3269230769231,34.27271099405533L584.9602163461539,34.27271099405533L588.5935096153846,34.27271099405533L592.2268028846154,34.27271099405533L595.8600961538461,34.27271099405533L599.4933894230769,34.27271099405533L603.1266826923077,34.27271099405533L606.7599759615385,34.27271099405533L610.3932692307693,34.27271099405533L614.0265625000001,342.72727359307464L617.6598557692308,342.72727359307464L621.2931490384615,342.72727359307464L624.9264423076922,342.72727359307464L628.559735576923,342.72727359307464L632.1930288461538,342.72727359307464L635.8263221153846,342.72727359307464L639.4596153846154,342.72727359307464L643.0929086538462,342.72727359307464L646.7262019230769,342.72727359307464L650.3594951923077,342.72727359307464L653.9927884615385,342.72727359307464L657.6260817307692,342.72727359307464L661.259375,342.72727359307464L664.8926682692309,342.72727359307464L668.5259615384616,342.72727359307464L672.1592548076924,342.72727359307464L675.7925480769231,342.72727359307464L679.4258413461538,342.72727359307464L683.0591346153846,342.72727359307464L686.6924278846153,342.72727359307464L690.3257211538461,342.72727359307464L693.959014423077,342.72727359307464L697.5923076923077,342.72727359307464L701.2256009615385,342.72727359307464L704.8588942307692,342.72727359307464L708.4921875,342.72727359307464L712.1254807692308,342.72727359307464L715.7587740384615,342.72727359307464L719.3920673076923,342.72727359307464L723.025360576923,342.72727359307464L726.6586538461539,342.72727359307464L730.2919471153847,342.72727359307464L733.9252403846154,342.72727359307464L737.5585336538462,342.72727359307464L741.1918269230769,342.72727359307464L744.8251201923076,342.72727359307464L748.4584134615384,342.72727359307464L752.0917067307691,342.72727359307464L755.725,342.72727359307464L759.3582932692308,342.72727359307464L762.9915865384615,342.72727359307464L766.6248798076923,342.72727359307464L770.2581730769231,342.72727359307464L773.8914663461538,342.72727359307464L777.5247596153846,342.72727359307464L781.1580528846154,342.72727359307464L784.7913461538462,342.72727359307464L788.424639423077,342.72727359307464L792.0579326923078,342.72727359307464L795.6912259615385,342.72727359307464L799.3245192307692,342.72727359307464L802.9578124999999,342.72727359307464L806.5911057692307,342.72727359307464L810.2243990384615,342.72727359307464L813.8576923076923,342.72727359307464L817.4909855769231,342.72727359307464L821.1242788461539,342.72727359307464L824.7575721153846,342.72727359307464L828.3908653846154,342.72727359307464L832.0241586538461,342.72727359307464L835.6574519230769,342.72727359307464L839.2907451923077,342.72727359307464L842.9240384615385,342.72727359307464L846.5573317307693,342.72727359307464L850.1906250000001,342.72727359307464L853.8239182692308,342.72727359307464L857.4572115384615,342.72727359307464L861.0905048076922,342.72727359307464L864.723798076923,342.72727359307464L868.3570913461538,342.72727359307464L871.9903846153846,342.72727359307464" style="fill: none;" fill="none"></path></g></g></g></g></g></g><g transform="translate(72, 377)" clip-path="url(#clip_1)"><clipPath id="clip_1"><rect width="944" height="23"></rect></clipPath><g><g><line x1="0" y1="0" x2="0" y2="5" style="visibility: inherit;" fill="rgb(0, 0, 0)" stroke="rgb(204, 204, 204)" stroke-width="1px"></line><line x1="72.66586538461539" y1="0" x2="72.66586538461539" y2="5" style="visibility: inherit;" fill="rgb(0, 0, 0)" stroke="rgb(204, 204, 204)" stroke-width="1px"></line><line x1="145.33173076923077" y1="0" x2="145.33173076923077" y2="5" style="visibility: inherit;" fill="rgb(0, 0, 0)" stroke="rgb(204, 204, 204)" stroke-width="1px"></line><line x1="217.99759615384616" y1="0" x2="217.99759615384616" y2="5" style="visibility: inherit;" fill="rgb(0, 0, 0)" stroke="rgb(204, 204, 204)" stroke-width="1px"></line><line x1="290.66346153846155" y1="0" x2="290.66346153846155" y2="5" style="visibility: inherit;" fill="rgb(0, 0, 0)" stroke="rgb(204, 204, 204)" stroke-width="1px"></line><line x1="363.32932692307696" y1="0" x2="363.32932692307696" y2="5" style="visibility: inherit;" fill="rgb(0, 0, 0)" stroke="rgb(204, 204, 204)" stroke-width="1px"></line><line x1="435.9951923076923" y1="0" x2="435.9951923076923" y2="5" style="visibility: inherit;" fill="rgb(0, 0, 0)" stroke="rgb(204, 204, 204)" stroke-width="1px"></line><line x1="508.6610576923077" y1="0" x2="508.6610576923077" y2="5" style="visibility: inherit;" fill="rgb(0, 0, 0)" stroke="rgb(204, 204, 204)" stroke-width="1px"></line><line x1="581.3269230769231" y1="0" x2="581.3269230769231" y2="5" style="visibility: inherit;" fill="rgb(0, 0, 0)" stroke="rgb(204, 204, 204)" stroke-width="1px"></line><line x1="653.9927884615385" y1="0" x2="653.9927884615385" y2="5" style="visibility: inherit;" fill="rgb(0, 0, 0)" stroke="rgb(204, 204, 204)" stroke-width="1px"></line><line x1="726.6586538461539" y1="0" x2="726.6586538461539" y2="5" style="visibility: inherit;" fill="rgb(0, 0, 0)" stroke="rgb(204, 204, 204)" stroke-width="1px"></line><line x1="799.3245192307692" y1="0" x2="799.3245192307692" y2="5" style="visibility: inherit;" fill="rgb(0, 0, 0)" stroke="rgb(204, 204, 204)" stroke-width="1px"></line><line x1="871.9903846153846" y1="0" x2="871.9903846153846" y2="5" style="visibility: inherit;" fill="rgb(0, 0, 0)" stroke="rgb(204, 204, 204)" stroke-width="1px"></line><line x1="944.65625" y1="0" x2="944.65625" y2="5" style="visibility: inherit;" fill="rgb(0, 0, 0)" stroke="rgb(204, 204, 204)" stroke-width="1px"></line></g><g transform="translate(0, 8)"><text x="0" y="0" dx="0em" dy="0.95em" style="text-anchor: middle; visibility: hidden; font-family: Roboto, sans-serif; font-size: 12px; font-weight: 200;" fill="rgb(255, 255, 255)" stroke="none" stroke-width="1px">-20</text><text x="72.66586538461539" y="0" dx="0em" dy="0.95em" style="text-anchor: middle; visibility: inherit; font-family: Roboto, sans-serif; font-size: 12px; font-weight: 200;" fill="rgb(255, 255, 255)" stroke="none" stroke-width="1px">0</text><text x="145.33173076923077" y="0" dx="0em" dy="0.95em" style="text-anchor: middle; visibility: inherit; font-family: Roboto, sans-serif; font-size: 12px; font-weight: 200;" fill="rgb(255, 255, 255)" stroke="none" stroke-width="1px">20</text><text x="217.99759615384616" y="0" dx="0em" dy="0.95em" style="text-anchor: middle; visibility: inherit; font-family: Roboto, sans-serif; font-size: 12px; font-weight: 200;" fill="rgb(255, 255, 255)" stroke="none" stroke-width="1px">40</text><text x="290.66346153846155" y="0" dx="0em" dy="0.95em" style="text-anchor: middle; visibility: inherit; font-family: Roboto, sans-serif; font-size: 12px; font-weight: 200;" fill="rgb(255, 255, 255)" stroke="none" stroke-width="1px">60</text><text x="363.32932692307696" y="0" dx="0em" dy="0.95em" style="text-anchor: middle; visibility: inherit; font-family: Roboto, sans-serif; font-size: 12px; font-weight: 200;" fill="rgb(255, 255, 255)" stroke="none" stroke-width="1px">80</text><text x="435.9951923076923" y="0" dx="0em" dy="0.95em" style="text-anchor: middle; visibility: inherit; font-family: Roboto, sans-serif; font-size: 12px; font-weight: 200;" fill="rgb(255, 255, 255)" stroke="none" stroke-width="1px">100</text><text x="508.6610576923077" y="0" dx="0em" dy="0.95em" style="text-anchor: middle; visibility: inherit; font-family: Roboto, sans-serif; font-size: 12px; font-weight: 200;" fill="rgb(255, 255, 255)" stroke="none" stroke-width="1px">120</text><text x="581.3269230769231" y="0" dx="0em" dy="0.95em" style="text-anchor: middle; visibility: inherit; font-family: Roboto, sans-serif; font-size: 12px; font-weight: 200;" fill="rgb(255, 255, 255)" stroke="none" stroke-width="1px">140</text><text x="653.9927884615385" y="0" dx="0em" dy="0.95em" style="text-anchor: middle; visibility: inherit; font-family: Roboto, sans-serif; font-size: 12px; font-weight: 200;" fill="rgb(255, 255, 255)" stroke="none" stroke-width="1px">160</text><text x="726.6586538461539" y="0" dx="0em" dy="0.95em" style="text-anchor: middle; visibility: inherit; font-family: Roboto, sans-serif; font-size: 12px; font-weight: 200;" fill="rgb(255, 255, 255)" stroke="none" stroke-width="1px">180</text><text x="799.3245192307692" y="0" dx="0em" dy="0.95em" style="text-anchor: middle; visibility: inherit; font-family: Roboto, sans-serif; font-size: 12px; font-weight: 200;" fill="rgb(255, 255, 255)" stroke="none" stroke-width="1px">200</text><text x="871.9903846153846" y="0" dx="0em" dy="0.95em" style="text-anchor: middle; visibility: inherit; font-family: Roboto, sans-serif; font-size: 12px; font-weight: 200;" fill="rgb(255, 255, 255)" stroke="none" stroke-width="1px">220</text><text x="944.65625" y="0" dx="0em" dy="0.95em" style="text-anchor: middle; visibility: hidden; font-family: Roboto, sans-serif; font-size: 12px; font-weight: 200;" fill="rgb(255, 255, 255)" stroke="none" stroke-width="1px">240</text></g><line x1="0" y1="0" x2="944.65625" y2="0" fill="rgb(0, 0, 0)" stroke="rgb(204, 204, 204)" stroke-width="1px"></line></g></g></g></g></svg>