<svg viewBox="0 0 1017 400" xmlns="http://www.w3.org/2000/svg"><g><g><g><g><g><line x1="41.171875" y1="377" x2="36.171875" y2="377" style="visibility: inherit;" fill="rgb(0, 0, 0)" stroke="rgb(204, 204, 204)" stroke-width="1px"></line><line x1="41.171875" y1="329.875" x2="36.171875" y2="329.875" style="visibility: inherit;" fill="rgb(0, 0, 0)" stroke="rgb(204, 204, 204)" stroke-width="1px"></line><line x1="41.171875" y1="282.74999999999994" x2="36.171875" y2="282.74999999999994" style="visibility: inherit;" fill="rgb(0, 0, 0)" stroke="rgb(204, 204, 204)" stroke-width="1px"></line><line x1="41.171875" y1="235.62499999999991" x2="36.171875" y2="235.62499999999991" style="visibility: inherit;" fill="rgb(0, 0, 0)" stroke="rgb(204, 204, 204)" stroke-width="1px"></line><line x1="41.171875" y1="188.50000000000009" x2="36.171875" y2="188.50000000000009" style="visibility: inherit;" fill="rgb(0, 0, 0)" stroke="rgb(204, 204, 204)" stroke-width="1px"></line><line x1="41.171875" y1="141.37500000000009" x2="36.171875" y2="141.37500000000009" style="visibility: inherit;" fill="rgb(0, 0, 0)" stroke="rgb(204, 204, 204)" stroke-width="1px"></line><line x1="41.171875" y1="94.25000000000004" x2="36.171875" y2="94.25000000000004" style="visibility: inherit;" fill="rgb(0, 0, 0)" stroke="rgb(204, 204, 204)" stroke-width="1px"></line><line x1="41.171875" y1="47.12500000000004" x2="36.171875" y2="47.12500000000004" style="visibility: inherit;" fill="rgb(0, 0, 0)" stroke="rgb(204, 204, 204)" stroke-width="1px"></line><line x1="41.171875" y1="0" x2="36.171875" y2="0" style="visibility: inherit;" fill="rgb(0, 0, 0)" stroke="rgb(204, 204, 204)" stroke-width="1px"></line></g><g transform="translate(31.171875, 0)"><text x="0" y="377" dx="0em" dy="0.3em" style="text-anchor: end; visibility: hidden; font-family: Roboto, sans-serif; font-size: 12px; font-weight: 200;" fill="rgb(255, 255, 255)" stroke="none" stroke-width="1px">1.9</text><text x="0" y="329.875" dx="0em" dy="0.3em" style="text-anchor: end; visibility: inherit; font-family: Roboto, sans-serif; font-size: 12px; font-weight: 200;" fill="rgb(255, 255, 255)" stroke="none" stroke-width="1px">2</text><text x="0" y="282.74999999999994" dx="0em" dy="0.3em" style="text-anchor: end; visibility: inherit; font-family: Roboto, sans-serif; font-size: 12px; font-weight: 200;" fill="rgb(255, 255, 255)" stroke="none" stroke-width="1px">2.1</text><text x="0" y="235.62499999999991" dx="0em" dy="0.3em" style="text-anchor: end; visibility: inherit; font-family: Roboto, sans-serif; font-size: 12px; font-weight: 200;" fill="rgb(255, 255, 255)" stroke="none" stroke-width="1px">2.2</text><text x="0" y="188.50000000000009" dx="0em" dy="0.3em" style="text-anchor: end; visibility: inherit; font-family: Roboto, sans-serif; font-size: 12px; font-weight: 200;" fill="rgb(255, 255, 255)" stroke="none" stroke-width="1px">2.3</text><text x="0" y="141.37500000000009" dx="0em" dy="0.3em" style="text-anchor: end; visibility: inherit; font-family: Roboto, sans-serif; font-size: 12px; font-weight: 200;" fill="rgb(255, 255, 255)" stroke="none" stroke-width="1px">2.4</text><text x="0" y="94.25000000000004" dx="0em" dy="0.3em" style="text-anchor: end; visibility: inherit; font-family: Roboto, sans-serif; font-size: 12px; font-weight: 200;" fill="rgb(255, 255, 255)" stroke="none" stroke-width="1px">2.5</text><text x="0" y="47.12500000000004" dx="0em" dy="0.3em" style="text-anchor: end; visibility: inherit; font-family: Roboto, sans-serif; font-size: 12px; font-weight: 200;" fill="rgb(255, 255, 255)" stroke="none" stroke-width="1px">2.6</text><text x="0" y="0" dx="0em" dy="0.3em" style="text-anchor: end; visibility: hidden; font-family: Roboto, sans-serif; font-size: 12px; font-weight: 200;" fill="rgb(255, 255, 255)" stroke="none" stroke-width="1px">2.7</text></g><line x1="41.171875" y1="0" x2="41.171875" y2="377" fill="rgb(0, 0, 0)" stroke="rgb(204, 204, 204)" stroke-width="1px"></line></g></g><g transform="translate(41, 0)" clip-path="url(#clip_0)"><clipPath id="clip_0"><rect width="975" height="377"></rect></clipPath><g><g><g><line x1="0" y1="0" x2="0" y2="377" fill="rgb(0, 0, 0)" stroke="rgb(189, 189, 189)" stroke-width="1px" opacity="0.25"></line><line x1="75.06370192307693" y1="0" x2="75.06370192307693" y2="377" fill="rgb(0, 0, 0)" stroke="rgb(189, 189, 189)" stroke-width="1px" opacity="0.25"></line><line x1="150.12740384615387" y1="0" x2="150.12740384615387" y2="377" fill="rgb(0, 0, 0)" stroke="rgb(189, 189, 189)" stroke-width="1px" opacity="0.25"></line><line x1="225.19110576923077" y1="0" x2="225.19110576923077" y2="377" fill="rgb(0, 0, 0)" stroke="rgb(189, 189, 189)" stroke-width="1px" opacity="0.25"></line><line x1="300.25480769230774" y1="0" x2="300.25480769230774" y2="377" fill="rgb(0, 0, 0)" stroke="rgb(189, 189, 189)" stroke-width="1px" opacity="0.25"></line><line x1="375.31850961538464" y1="0" x2="375.31850961538464" y2="377" fill="rgb(0, 0, 0)" stroke="rgb(189, 189, 189)" stroke-width="1px" opacity="0.25"></line><line x1="450.38221153846155" y1="0" x2="450.38221153846155" y2="377" fill="rgb(0, 0, 0)" stroke="rgb(189, 189, 189)" stroke-width="1px" opacity="0.25"></line><line x1="525.4459134615385" y1="0" x2="525.4459134615385" y2="377" fill="rgb(0, 0, 0)" stroke="rgb(189, 189, 189)" stroke-width="1px" opacity="0.25"></line><line x1="600.5096153846155" y1="0" x2="600.5096153846155" y2="377" fill="rgb(0, 0, 0)" stroke="rgb(189, 189, 189)" stroke-width="1px" opacity="0.25"></line><line x1="675.5733173076923" y1="0" x2="675.5733173076923" y2="377" fill="rgb(0, 0, 0)" stroke="rgb(189, 189, 189)" stroke-width="1px" opacity="0.25"></line><line x1="750.6370192307693" y1="0" x2="750.6370192307693" y2="377" fill="rgb(0, 0, 0)" stroke="rgb(189, 189, 189)" stroke-width="1px" opacity="0.25"></line><line x1="825.7007211538462" y1="0" x2="825.7007211538462" y2="377" fill="rgb(0, 0, 0)" stroke="rgb(189, 189, 189)" stroke-width="1px" opacity="0.25"></line><line x1="900.7644230769231" y1="0" x2="900.7644230769231" y2="377" fill="rgb(0, 0, 0)" stroke="rgb(189, 189, 189)" stroke-width="1px" opacity="0.25"></line><line x1="975.828125" y1="0" x2="975.828125" y2="377" fill="rgb(0, 0, 0)" stroke="rgb(189, 189, 189)" stroke-width="1px" opacity="0.25"></line></g><g><line x1="0" y1="377" x2="975.828125" y2="377" fill="rgb(0, 0, 0)" stroke="rgb(189, 189, 189)" stroke-width="1px" opacity="0.25"></line><line x1="0" y1="329.875" x2="975.828125" y2="329.875" fill="rgb(0, 0, 0)" stroke="rgb(189, 189, 189)" stroke-width="1px" opacity="0.25"></line><line x1="0" y1="282.74999999999994" x2="975.828125" y2="282.74999999999994" fill="rgb(0, 0, 0)" stroke="rgb(189, 189, 189)" stroke-width="1px" opacity="0.25"></line><line x1="0" y1="235.62499999999991" x2="975.828125" y2="235.62499999999991" fill="rgb(0, 0, 0)" stroke="rgb(189, 189, 189)" stroke-width="1px" opacity="0.25"></line><line x1="0" y1="188.50000000000009" x2="975.828125" y2="188.50000000000009" fill="rgb(0, 0, 0)" stroke="rgb(189, 189, 189)" stroke-width="1px" opacity="0.25"></line><line x1="0" y1="141.37500000000009" x2="975.828125" y2="141.37500000000009" fill="rgb(0, 0, 0)" stroke="rgb(189, 189, 189)" stroke-width="1px" opacity="0.25"></line><line x1="0" y1="94.25000000000004" x2="975.828125" y2="94.25000000000004" fill="rgb(0, 0, 0)" stroke="rgb(189, 189, 189)" stroke-width="1px" opacity="0.25"></line><line x1="0" y1="47.12500000000004" x2="975.828125" y2="47.12500000000004" fill="rgb(0, 0, 0)" stroke="rgb(189, 189, 189)" stroke-width="1px" opacity="0.25"></line><line x1="0" y1="0" x2="975.828125" y2="0" fill="rgb(0, 0, 0)" stroke="rgb(189, 189, 189)" stroke-width="1px" opacity="0.25"></line></g></g></g><g><g><line x1="0" y1="1272.3749999999998" x2="975.828125" y2="1272.3749999999998" fill="rgb(0, 0, 0)" stroke="rgb(153, 153, 153)" stroke-width="1.5px"></line></g></g><g><g><line x1="75.06370192307693" y1="0" x2="75.06370192307693" y2="377" fill="rgb(0, 0, 0)" stroke="rgb(153, 153, 153)" stroke-width="1.5px"></line></g></g><g><g><g><g><g><path stroke="rgb(255, 112, 67)" stroke-width="2px" d="M101.33599759615385,-12.381393414639094L105.0891826923077,1.821494167654452L108.84236778846154,17.62626824588849L112.59555288461539,26.503053573066175L116.34873798076924,37.203218197981414L120.10192307692309,51.95997613177665L123.85510817307691,52.579593733825554L127.60829326923077,68.00364607434618L131.3614783653846,74.88356396509654L135.11466346153847,81.9813900148541L138.8678485576923,83.82034275144188L142.62103365384615,90.25214159372278L146.37421874999998,100.05030451995643L150.12740384615387,107.05861249104987L153.8805889423077,112.43654290633104L157.63377403846155,115.41616332314736L161.38695913461538,111.62894101774677L165.14014423076924,115.00767490522932L168.89332932692307,126.46998318218823L172.64651442307692,131.06978758591836L176.39969951923078,135.42488101193084L180.15288461538464,138.4378285486663L183.90606971153846,139.29592881571423L187.65925480769232,139.03666448713247L191.41243990384615,139.04550340318036L195.165625,144.7826073438279L198.91881009615383,150.7081793498218L202.6719951923077,150.60017311096615L206.42518028846155,155.8451203381817L210.1783653846154,152.70314352211776L213.93155048076923,160.88166280741925L217.6847355769231,165.39297102595376L221.43792067307692,171.789081645843L225.19110576923077,174.256334588621L228.9442908653846,175.98723745768763L232.6974759615385,173.02644424606586L236.45066105769232,177.0774499481139L240.20384615384617,182.06052870237266L243.95703125,174.35923673273837L247.71021634615383,176.22182529910444L251.46340144230766,181.57632120707154L255.21658653846154,186.2339458481612L258.96977163461537,188.41272668936455L262.7229567307692,187.8984549575937L266.476141826923,194.2612925847889L270.22932692307694,201.14210038666252L273.9825120192308,204.71074379256348L277.7356971153846,204.42794340116362L281.48888221153845,203.26729422368118L285.2420673076923,200.60721324418424L288.99525240384617,204.3436561735542L292.74843749999997,210.36109113169167L296.5016225961538,209.05612144155774L300.25480769230774,210.68629506399307L304.00799278846154,213.96960422498034L307.7611778846154,217.38564036549374L311.5143629807692,221.3379673615767L315.2675480769231,223.3603447470471L319.0207331730769,219.7883124943617L322.77391826923076,220.43904131627346L326.5271033653846,222.67677055583175L330.2802884615385,227.90683769456024L334.03347355769233,230.52683267159114L337.78665865384613,230.97123733259946L341.53984375,226.9922186320883L345.29302884615385,230.45516446744574L349.0462139423077,236.10217289635654L352.79939903846156,235.4548198491878L356.55258413461536,229.70349083605691L360.3057692307693,236.13420428194573L364.0589543269231,238.0558610758661L367.8121394230769,239.7880663872646L371.5653245192307,247.74268994336649L375.31850961538464,252.48867870333993L379.07169471153844,251.90275557615269L382.8248798076923,253.38613462315752L386.57806490384615,255.25764825264665L390.33125,256.4192064661983L394.08443509615387,256.38970048780453L397.83762019230767,248.9172588798715L401.5908052884615,249.16613127072523L405.3439903846154,258.45636795329966L409.09717548076924,257.7079483411784L412.8503605769231,254.46759997261017L416.6035456730769,254.8838744786528L420.3567307692308,263.68824037475275L424.1099158653846,257.2742355141813L427.86310096153846,261.68835636817056L431.61628605769226,262.5030644467033L435.3694711538462,261.0479273158645L439.12265625000003,261.5762683724364L442.87584134615383,270.19903088659055L446.6290264423077,276.7793249908089L450.38221153846155,274.97008425134425L454.1353966346154,275.17756327472927L457.8885817307692,271.3340402631927L461.64176682692306,273.9636708610635L465.394951923077,277.35602346142423L469.1481370192308,276.3336778824348L472.90132211538463,275.24163927703034L476.65450721153843,277.99058543484773L480.40769230769234,278.5904698302828L484.16087740384614,276.8752980190804L487.9140625,279.1647049879009L491.66724759615386,284.3396251377449L495.42043269230766,287.65324247938304L499.1736177884615,287.2956703010912L502.9268028846153,285.6941300096342L506.6799879807693,278.11187044753L510.4331730769231,283.5210110424361L514.1863581730769,288.4932531641961L517.9395432692307,298.20147996706027L521.6927283653846,296.46992956139L525.4459134615385,287.97001437269057L529.1990985576923,287.8659868712569L532.952283653846,289.4940150782672L536.70546875,285.24044848711526L540.4586538461539,290.12862020272746L544.2118389423077,288.26267186128337L547.9650240384616,291.81458887650507L551.7182091346153,293.2313875507947L555.4713942307692,290.9437579722187L559.224579326923,291.03332006996766L562.9777644230769,292.60020623246373L566.7309495192308,302.7911790707083L570.4841346153846,307.3212461291774L574.2373197115385,304.19778286332036L577.9905048076923,308.1266482526906L581.7436899038462,304.06994909375L585.4968749999999,303.5865429778639L589.2500600961538,309.70872002480905L593.0032451923076,310.05493229412116L596.7564302884616,308.56996785273003L600.5096153846155,306.507263914763L604.2628004807692,307.5618133878821L608.0159855769231,313.75282270527555L611.7691706730769,314.7175681282085L615.5223557692308,316.6977488332391L619.2755408653845,316.90180936654804L623.0287259615384,319.4469288063073L626.7819110576924,322.30437065792216L630.5350961538462,317.5729985095985L634.2882812500001,321.1327335988239L638.0414663461538,321.4936841103288L641.7946514423077,324.9014440639527L645.5478365384615,322.142889300806L649.3010216346154,326.272385966672L653.0542067307692,329.15835867637L656.8073918269231,327.50356997438433L660.560576923077,327.1674327694665L664.3137620192308,326.0638563539558L668.0669471153847,326.8285709563477L671.8201322115384,327.82351166865726L675.5733173076923,327.78805364883857L679.3265024038461,330.7646284205729L683.0796875,334.8755527080902L686.832872596154,329.31611274133974L690.5860576923077,331.7629884865931L694.3392427884615,332.89279129427973L698.0924278846154,333.689656664862L701.8456129807693,339.05916263457175L705.5987980769231,331.2361915218594L709.3519831730769,329.80393257783425L713.1051682692307,333.09105193046673L716.8583533653847,330.926421448159L720.6115384615385,324.2876912859487L724.3647235576923,332.07743387862484L728.1179086538461,331.02689453032275L731.87109375,326.02655518094707L735.6242788461539,323.2784756424427L739.3774639423077,327.32208160176265L743.1306490384615,326.87364876040454L746.8838341346153,333.13615299325363L750.6370192307693,336.72377514279594L754.3902043269231,336.07285010478927L758.1433894230769,345.348219631088L761.8965745192307,345.10879020570053L765.6497596153846,338.28379972385375L769.4029447115385,337.4785302019537L773.1561298076923,337.07585943558337L776.909314903846,333.07799032222346L780.6625,335.05995829636515L784.4156850961539,332.8521379931846L788.1688701923077,338.3121450128603L791.9220552884616,334.4031974424391L795.6752403846153,330.75388455089734L799.4284254807692,332.20701775370117L803.181610576923,336.8774771298056L806.9347956730769,330.7256180527857L810.6879807692308,328.92929814356864L814.4411658653846,340.3447707539695L818.1943509615385,334.51882000243046L821.9475360576923,335.6061775533878L825.7007211538462,338.6361310630157L829.4539062499999,339.62290268833124L833.2070913461538,339.0443414669912L836.9602764423076,335.80290129313954L840.7134615384616,338.9224502595072L844.4666466346155,343.5159511179807L848.2198317307692,338.80879712170844L851.9730168269231,340.81535472909496L855.7262019230769,342.1815520312779L859.4793870192308,342.93084645190197L863.2325721153845,346.8740942234895L866.9857572115384,344.51934548348794L870.7389423076924,351.28057434636725L874.4921274038462,342.2599372057818L878.2453125000001,339.2247568362178L881.9984975961538,338.5004332657588L885.7516826923077,333.81673957085206L889.5048677884615,337.113700909469L893.2580528846154,339.31991292420236L897.0112379807692,342.67564329733375L900.7644230769231,340.4588575674887" style="fill: none;" fill="none"></path></g></g></g></g><g opacity="0.2"><g><g><g><path stroke="rgb(255, 112, 67)" stroke-width="2px" d="M93.82962740384616,-7.477119088172829L97.5828125,10.70232975482949L101.33599759615385,17.03565496206292L105.0891826923077,22.76799458265313L108.84236778846154,41.09451580047616L112.59555288461539,39.7377197742463L116.34873798076924,53.1952353119851L120.10192307692309,74.0469296574593L123.85510817307691,53.507806241512384L127.60829326923077,91.12159419059758L131.3614783653846,85.19858855009083L135.11466346153847,92.62512552738194L138.8678485576923,86.57830494642262L142.62103365384615,99.89886003732686L146.37421874999998,114.7466533184052L150.12740384615387,117.5706900954247L153.8805889423077,120.50326156616215L157.63377403846155,119.8855351209641L161.38695913461538,105.94815242290501L165.14014423076924,120.07575172185902L168.89332932692307,143.6633967161179L172.64651442307692,137.96948242187503L176.39969951923078,141.95751446485522L180.15288461538464,142.95724707841876L183.90606971153846,140.5830787420273L187.65925480769232,138.64776808023456L191.41243990384615,139.05876177549365L195.165625,153.38826256990436L198.91881009615383,159.5965369343758L202.6719951923077,150.43816375732425L206.42518028846155,163.71254104375842L210.1783653846154,147.99017834663394L213.93155048076923,173.14944165945056L217.6847355769231,172.15993332862857L221.43792067307692,181.38324755430224L225.19110576923077,177.9572139978409L228.9442908653846,178.5835917592049L232.6974759615385,168.5852544307709L236.45066105769232,183.15395849943164L240.20384615384617,189.53514683246613L243.95703125,162.80729877948764L247.71021634615383,179.0157081484795L251.46340144230766,189.60806506872177L255.21658653846154,193.22038280963898L258.96977163461537,191.6808979511261L262.7229567307692,187.12704735994342L266.476141826923,203.80554902553558L270.22932692307694,211.4633120894432L273.9825120192308,210.06370890140533L277.7356971153846,204.00374281406403L281.48888221153845,201.5263204574585L285.2420673076923,196.6170917749405L288.99525240384617,209.94832056760788L292.74843749999997,219.38724356889725L296.5016225961538,207.0986669063568L300.25480769230774,213.13155549764633L304.00799278846154,218.89456796646118L307.7611778846154,222.50969457626343L311.5143629807692,227.26645785570145L315.2675480769231,226.39391082525253L319.0207331730769,214.43026411533356L322.77391826923076,221.41513454914093L326.5271033653846,226.03336441516876L330.2802884615385,235.75193840265274L334.03347355769233,234.45682513713837L337.78665865384613,231.63784432411194L341.53984375,221.02369058132172L345.29302884615385,235.64958322048187L349.0462139423077,244.57268553972244L352.79939903846156,234.48379027843475L356.55258413461536,221.07649731636047L360.3057692307693,245.78027445077896L364.0589543269231,240.93834626674652L367.8121394230769,242.3863743543625L371.5653245192307,259.6746252775192L375.31850961538464,259.60766184329987L379.07169471153844,251.02387088537216L382.8248798076923,255.61120319366455L386.57806490384615,258.06491869688034L390.33125,258.1615437865257L394.08443509615387,256.3454415202141L397.83762019230767,237.7085964679718L401.5908052884615,249.53943985700607L405.3439903846154,272.3917229771614L409.09717548076924,256.5853189229965L412.8503605769231,249.60707741975784L416.6035456730769,255.50828623771667L420.3567307692308,276.8947892189026L424.1099158653846,247.65322822332382L427.86310096153846,268.30953764915466L431.61628605769226,263.7251265645027L435.3694711538462,258.865221619606L439.12265625000003,262.36877995729446L442.87584134615383,283.13317465782166L446.6290264423077,286.6497661471367L450.38221153846155,272.25622314214706L454.1353966346154,275.4887818098068L457.8885817307692,265.56875574588776L461.64176682692306,277.9081167578697L465.394951923077,282.4445523619652L469.1481370192308,274.80015951395035L472.90132211538463,273.6035813689232L476.65450721153843,282.11400467157364L480.40769230769234,279.4902964234352L484.16087740384614,274.3025403022766L487.9140625,282.5988154411316L491.66724759615386,292.1020053625107L495.42043269230766,292.62366849184036L499.1736177884615,286.75931203365326L502.9268028846153,283.29181957244873L506.6799879807693,266.73848110437393L510.4331730769231,291.6347219347954L514.1863581730769,295.9516163468361L517.9395432692307,312.7638201713562L521.6927283653846,293.8726039528847L525.4459134615385,275.22014158964157L529.1990985576923,287.7099456191063L532.952283653846,291.9360573887825L536.70546875,278.8600986003876L540.4586538461539,297.46087777614594L544.2118389423077,285.4637493491173L547.9650240384616,297.14246439933777L551.7182091346153,295.35658556222916L555.4713942307692,287.51231360435486L559.224579326923,291.1676632165909L562.9777644230769,294.95053547620773L566.7309495192308,318.0776383280754L570.4841346153846,314.1163467168808L574.2373197115385,299.51258796453476L577.9905048076923,314.0199463367462L581.7436899038462,297.98490035533905L585.4968749999999,302.8614338040352L589.2500600961538,318.8919855952263L593.0032451923076,310.5742506980896L596.7564302884616,306.3425211906433L600.5096153846155,303.4132080078125L604.2628004807692,309.1436375975609L608.0159855769231,323.03933668136597L611.7691706730769,316.1646862626076L615.5223557692308,319.6680198907852L619.2755408653845,317.20790016651154L623.0287259615384,323.2646079659462L626.7819110576924,326.5905334353447L630.5350961538462,310.4759402871132L634.2882812500001,326.4723362326622L638.0414663461538,322.03510987758636L641.7946514423077,330.0130839943885L645.5478365384615,318.00505715608597L649.3010216346154,332.4666309654712L653.0542067307692,333.48731774091715L656.8073918269231,325.0213869214058L660.560576923077,326.66322696208954L664.3137620192308,324.40849173069L668.0669471153847,327.97564285993576L671.8201322115384,329.3159227371216L675.5733173076923,327.7348666191101L679.3265024038461,335.22949057817453L683.0796875,341.0419391393661L686.832872596154,320.976952791214L690.5860576923077,335.43330210447306L694.3392427884615,334.5874955058097L698.0924278846154,334.8849547207355L701.8456129807693,347.11342158913607L705.5987980769231,319.50173485279083L709.3519831730769,327.65554416179657L713.1051682692307,338.0217309594154L716.8583533653847,327.6794757246971L720.6115384615385,314.32959604263306L724.3647235576923,343.7620477676391L728.1179086538461,329.4510855078697L731.87109375,318.52604615688324L735.6242788461539,319.1563563346863L739.3774639423077,333.3874905407428L743.1306490384615,326.2009994983673L746.8838341346153,342.52990934252733L750.6370192307693,342.10520836710924L754.3902043269231,335.096462547779L758.1433894230769,359.261273920536L761.8965745192307,344.74964606761927L765.6497596153846,328.0463140010834L769.4029447115385,336.27062591910357L773.1561298076923,336.47185328602785L776.909314903846,327.08118665218353L780.6625,338.03291025757784L784.4156850961539,329.540407538414L788.1688701923077,346.5021555423736L791.9220552884616,328.53977608680725L795.6752403846153,325.2799152135849L799.4284254807692,334.38671755790705L803.181610576923,343.88316619396204L806.9347956730769,321.49782943725586L810.6879807692308,326.2348182797432L814.4411658653846,357.46797966957087L818.1943509615385,325.77989387512207L821.9475360576923,337.2372138798236L825.7007211538462,343.18106132745737L829.4539062499999,341.10306012630457L833.2070913461538,338.1764996349811L836.9602764423076,330.9407410323619L840.7134615384616,343.6017737090587L844.4666466346155,350.4062024056911L848.2198317307692,331.7480661273002L851.9730168269231,343.8251911401748L855.7262019230769,344.2308479845523L859.4793870192308,344.054788082838L863.2325721153845,352.78896588087076L866.9857572115384,340.9872223734855L870.7389423076924,361.422417640686L874.4921274038462,328.72898149490356L878.2453125000001,334.67198628187174L881.9984975961538,337.41394791007036L885.7516826923077,326.791199028492L889.5048677884615,342.0591429173946L893.2580528846154,342.62923094630236L897.0112379807692,347.7092388570308L900.7644230769231,337.13367897272104" style="fill: none;" fill="none"></path></g></g></g></g></g></g><g transform="translate(41, 377)" clip-path="url(#clip_1)"><clipPath id="clip_1"><rect width="975" height="23"></rect></clipPath><g><g><line x1="0" y1="0" x2="0" y2="5" style="visibility: inherit;" fill="rgb(0, 0, 0)" stroke="rgb(204, 204, 204)" stroke-width="1px"></line><line x1="75.06370192307693" y1="0" x2="75.06370192307693" y2="5" style="visibility: inherit;" fill="rgb(0, 0, 0)" stroke="rgb(204, 204, 204)" stroke-width="1px"></line><line x1="150.12740384615387" y1="0" x2="150.12740384615387" y2="5" style="visibility: inherit;" fill="rgb(0, 0, 0)" stroke="rgb(204, 204, 204)" stroke-width="1px"></line><line x1="225.19110576923077" y1="0" x2="225.19110576923077" y2="5" style="visibility: inherit;" fill="rgb(0, 0, 0)" stroke="rgb(204, 204, 204)" stroke-width="1px"></line><line x1="300.25480769230774" y1="0" x2="300.25480769230774" y2="5" style="visibility: inherit;" fill="rgb(0, 0, 0)" stroke="rgb(204, 204, 204)" stroke-width="1px"></line><line x1="375.31850961538464" y1="0" x2="375.31850961538464" y2="5" style="visibility: inherit;" fill="rgb(0, 0, 0)" stroke="rgb(204, 204, 204)" stroke-width="1px"></line><line x1="450.38221153846155" y1="0" x2="450.38221153846155" y2="5" style="visibility: inherit;" fill="rgb(0, 0, 0)" stroke="rgb(204, 204, 204)" stroke-width="1px"></line><line x1="525.4459134615385" y1="0" x2="525.4459134615385" y2="5" style="visibility: inherit;" fill="rgb(0, 0, 0)" stroke="rgb(204, 204, 204)" stroke-width="1px"></line><line x1="600.5096153846155" y1="0" x2="600.5096153846155" y2="5" style="visibility: inherit;" fill="rgb(0, 0, 0)" stroke="rgb(204, 204, 204)" stroke-width="1px"></line><line x1="675.5733173076923" y1="0" x2="675.5733173076923" y2="5" style="visibility: inherit;" fill="rgb(0, 0, 0)" stroke="rgb(204, 204, 204)" stroke-width="1px"></line><line x1="750.6370192307693" y1="0" x2="750.6370192307693" y2="5" style="visibility: inherit;" fill="rgb(0, 0, 0)" stroke="rgb(204, 204, 204)" stroke-width="1px"></line><line x1="825.7007211538462" y1="0" x2="825.7007211538462" y2="5" style="visibility: inherit;" fill="rgb(0, 0, 0)" stroke="rgb(204, 204, 204)" stroke-width="1px"></line><line x1="900.7644230769231" y1="0" x2="900.7644230769231" y2="5" style="visibility: inherit;" fill="rgb(0, 0, 0)" stroke="rgb(204, 204, 204)" stroke-width="1px"></line><line x1="975.828125" y1="0" x2="975.828125" y2="5" style="visibility: inherit;" fill="rgb(0, 0, 0)" stroke="rgb(204, 204, 204)" stroke-width="1px"></line></g><g transform="translate(0, 8)"><text x="0" y="0" dx="0em" dy="0.95em" style="text-anchor: middle; visibility: hidden; font-family: Roboto, sans-serif; font-size: 12px; font-weight: 200;" fill="rgb(255, 255, 255)" stroke="none" stroke-width="1px">-20</text><text x="75.06370192307693" y="0" dx="0em" dy="0.95em" style="text-anchor: middle; visibility: inherit; font-family: Roboto, sans-serif; font-size: 12px; font-weight: 200;" fill="rgb(255, 255, 255)" stroke="none" stroke-width="1px">0</text><text x="150.12740384615387" y="0" dx="0em" dy="0.95em" style="text-anchor: middle; visibility: inherit; font-family: Roboto, sans-serif; font-size: 12px; font-weight: 200;" fill="rgb(255, 255, 255)" stroke="none" stroke-width="1px">20</text><text x="225.19110576923077" y="0" dx="0em" dy="0.95em" style="text-anchor: middle; visibility: inherit; font-family: Roboto, sans-serif; font-size: 12px; font-weight: 200;" fill="rgb(255, 255, 255)" stroke="none" stroke-width="1px">40</text><text x="300.25480769230774" y="0" dx="0em" dy="0.95em" style="text-anchor: middle; visibility: inherit; font-family: Roboto, sans-serif; font-size: 12px; font-weight: 200;" fill="rgb(255, 255, 255)" stroke="none" stroke-width="1px">60</text><text x="375.31850961538464" y="0" dx="0em" dy="0.95em" style="text-anchor: middle; visibility: inherit; font-family: Roboto, sans-serif; font-size: 12px; font-weight: 200;" fill="rgb(255, 255, 255)" stroke="none" stroke-width="1px">80</text><text x="450.38221153846155" y="0" dx="0em" dy="0.95em" style="text-anchor: middle; visibility: inherit; font-family: Roboto, sans-serif; font-size: 12px; font-weight: 200;" fill="rgb(255, 255, 255)" stroke="none" stroke-width="1px">100</text><text x="525.4459134615385" y="0" dx="0em" dy="0.95em" style="text-anchor: middle; visibility: inherit; font-family: Roboto, sans-serif; font-size: 12px; font-weight: 200;" fill="rgb(255, 255, 255)" stroke="none" stroke-width="1px">120</text><text x="600.5096153846155" y="0" dx="0em" dy="0.95em" style="text-anchor: middle; visibility: inherit; font-family: Roboto, sans-serif; font-size: 12px; font-weight: 200;" fill="rgb(255, 255, 255)" stroke="none" stroke-width="1px">140</text><text x="675.5733173076923" y="0" dx="0em" dy="0.95em" style="text-anchor: middle; visibility: inherit; font-family: Roboto, sans-serif; font-size: 12px; font-weight: 200;" fill="rgb(255, 255, 255)" stroke="none" stroke-width="1px">160</text><text x="750.6370192307693" y="0" dx="0em" dy="0.95em" style="text-anchor: middle; visibility: inherit; font-family: Roboto, sans-serif; font-size: 12px; font-weight: 200;" fill="rgb(255, 255, 255)" stroke="none" stroke-width="1px">180</text><text x="825.7007211538462" y="0" dx="0em" dy="0.95em" style="text-anchor: middle; visibility: inherit; font-family: Roboto, sans-serif; font-size: 12px; font-weight: 200;" fill="rgb(255, 255, 255)" stroke="none" stroke-width="1px">200</text><text x="900.7644230769231" y="0" dx="0em" dy="0.95em" style="text-anchor: middle; visibility: inherit; font-family: Roboto, sans-serif; font-size: 12px; font-weight: 200;" fill="rgb(255, 255, 255)" stroke="none" stroke-width="1px">220</text><text x="975.828125" y="0" dx="0em" dy="0.95em" style="text-anchor: middle; visibility: hidden; font-family: Roboto, sans-serif; font-size: 12px; font-weight: 200;" fill="rgb(255, 255, 255)" stroke="none" stroke-width="1px">240</text></g><line x1="0" y1="0" x2="975.828125" y2="0" fill="rgb(0, 0, 0)" stroke="rgb(204, 204, 204)" stroke-width="1px"></line></g></g></g></g></svg>