<svg viewBox="0 0 1017 400" xmlns="http://www.w3.org/2000/svg"><g><g><g><g><g><line x1="72.34375" y1="377" x2="67.34375" y2="377" style="visibility: inherit;" fill="rgb(0, 0, 0)" stroke="rgb(204, 204, 204)" stroke-width="1px"></line><line x1="72.34375" y1="342.7272727272727" x2="67.34375" y2="342.7272727272727" style="visibility: inherit;" fill="rgb(0, 0, 0)" stroke="rgb(204, 204, 204)" stroke-width="1px"></line><line x1="72.34375" y1="308.45454545454544" x2="67.34375" y2="308.45454545454544" style="visibility: inherit;" fill="rgb(0, 0, 0)" stroke="rgb(204, 204, 204)" stroke-width="1px"></line><line x1="72.34375" y1="274.1818181818182" x2="67.34375" y2="274.1818181818182" style="visibility: inherit;" fill="rgb(0, 0, 0)" stroke="rgb(204, 204, 204)" stroke-width="1px"></line><line x1="72.34375" y1="239.9090909090909" x2="67.34375" y2="239.9090909090909" style="visibility: inherit;" fill="rgb(0, 0, 0)" stroke="rgb(204, 204, 204)" stroke-width="1px"></line><line x1="72.34375" y1="205.63636363636363" x2="67.34375" y2="205.63636363636363" style="visibility: inherit;" fill="rgb(0, 0, 0)" stroke="rgb(204, 204, 204)" stroke-width="1px"></line><line x1="72.34375" y1="171.36363636363637" x2="67.34375" y2="171.36363636363637" style="visibility: inherit;" fill="rgb(0, 0, 0)" stroke="rgb(204, 204, 204)" stroke-width="1px"></line><line x1="72.34375" y1="137.0909090909091" x2="67.34375" y2="137.0909090909091" style="visibility: inherit;" fill="rgb(0, 0, 0)" stroke="rgb(204, 204, 204)" stroke-width="1px"></line><line x1="72.34375" y1="102.81818181818181" x2="67.34375" y2="102.81818181818181" style="visibility: inherit;" fill="rgb(0, 0, 0)" stroke="rgb(204, 204, 204)" stroke-width="1px"></line><line x1="72.34375" y1="68.54545454545458" x2="67.34375" y2="68.54545454545458" style="visibility: inherit;" fill="rgb(0, 0, 0)" stroke="rgb(204, 204, 204)" stroke-width="1px"></line><line x1="72.34375" y1="34.27272727272729" x2="67.34375" y2="34.27272727272729" style="visibility: inherit;" fill="rgb(0, 0, 0)" stroke="rgb(204, 204, 204)" stroke-width="1px"></line><line x1="72.34375" y1="0" x2="67.34375" y2="0" style="visibility: inherit;" fill="rgb(0, 0, 0)" stroke="rgb(204, 204, 204)" stroke-width="1px"></line></g><g transform="translate(62.34375, 0)"><text x="0" y="377" dx="0em" dy="0.3em" style="text-anchor: end; visibility: hidden; font-family: Roboto, sans-serif; font-size: 12px; font-weight: 200;" fill="rgb(255, 255, 255)" stroke="none" stroke-width="1px">0</text><text x="0" y="342.7272727272727" dx="0em" dy="0.3em" style="text-anchor: end; visibility: inherit; font-family: Roboto, sans-serif; font-size: 12px; font-weight: 200;" fill="rgb(255, 255, 255)" stroke="none" stroke-width="1px">1e-4</text><text x="0" y="308.45454545454544" dx="0em" dy="0.3em" style="text-anchor: end; visibility: inherit; font-family: Roboto, sans-serif; font-size: 12px; font-weight: 200;" fill="rgb(255, 255, 255)" stroke="none" stroke-width="1px">2e-4</text><text x="0" y="274.1818181818182" dx="0em" dy="0.3em" style="text-anchor: end; visibility: inherit; font-family: Roboto, sans-serif; font-size: 12px; font-weight: 200;" fill="rgb(255, 255, 255)" stroke="none" stroke-width="1px">3e-4</text><text x="0" y="239.9090909090909" dx="0em" dy="0.3em" style="text-anchor: end; visibility: inherit; font-family: Roboto, sans-serif; font-size: 12px; font-weight: 200;" fill="rgb(255, 255, 255)" stroke="none" stroke-width="1px">4e-4</text><text x="0" y="205.63636363636363" dx="0em" dy="0.3em" style="text-anchor: end; visibility: inherit; font-family: Roboto, sans-serif; font-size: 12px; font-weight: 200;" fill="rgb(255, 255, 255)" stroke="none" stroke-width="1px">5e-4</text><text x="0" y="171.36363636363637" dx="0em" dy="0.3em" style="text-anchor: end; visibility: inherit; font-family: Roboto, sans-serif; font-size: 12px; font-weight: 200;" fill="rgb(255, 255, 255)" stroke="none" stroke-width="1px">6e-4</text><text x="0" y="137.0909090909091" dx="0em" dy="0.3em" style="text-anchor: end; visibility: inherit; font-family: Roboto, sans-serif; font-size: 12px; font-weight: 200;" fill="rgb(255, 255, 255)" stroke="none" stroke-width="1px">7e-4</text><text x="0" y="102.81818181818181" dx="0em" dy="0.3em" style="text-anchor: end; visibility: inherit; font-family: Roboto, sans-serif; font-size: 12px; font-weight: 200;" fill="rgb(255, 255, 255)" stroke="none" stroke-width="1px">8e-4</text><text x="0" y="68.54545454545458" dx="0em" dy="0.3em" style="text-anchor: end; visibility: inherit; font-family: Roboto, sans-serif; font-size: 12px; font-weight: 200;" fill="rgb(255, 255, 255)" stroke="none" stroke-width="1px">9e-4</text><text x="0" y="34.27272727272729" dx="0em" dy="0.3em" style="text-anchor: end; visibility: inherit; font-family: Roboto, sans-serif; font-size: 12px; font-weight: 200;" fill="rgb(255, 255, 255)" stroke="none" stroke-width="1px">1e-3</text><text x="0" y="0" dx="0em" dy="0.3em" style="text-anchor: end; visibility: hidden; font-family: Roboto, sans-serif; font-size: 12px; font-weight: 200;" fill="rgb(255, 255, 255)" stroke="none" stroke-width="1px">1.1e-3</text></g><line x1="72.34375" y1="0" x2="72.34375" y2="377" fill="rgb(0, 0, 0)" stroke="rgb(204, 204, 204)" stroke-width="1px"></line></g></g><g transform="translate(72, 0)" clip-path="url(#clip_0)"><clipPath id="clip_0"><rect width="944" height="377"></rect></clipPath><g><g><g><line x1="0" y1="0" x2="0" y2="377" fill="rgb(0, 0, 0)" stroke="rgb(189, 189, 189)" stroke-width="1px" opacity="0.25"></line><line x1="67.47544642857143" y1="0" x2="67.47544642857143" y2="377" fill="rgb(0, 0, 0)" stroke="rgb(189, 189, 189)" stroke-width="1px" opacity="0.25"></line><line x1="134.95089285714286" y1="0" x2="134.95089285714286" y2="377" fill="rgb(0, 0, 0)" stroke="rgb(189, 189, 189)" stroke-width="1px" opacity="0.25"></line><line x1="202.42633928571428" y1="0" x2="202.42633928571428" y2="377" fill="rgb(0, 0, 0)" stroke="rgb(189, 189, 189)" stroke-width="1px" opacity="0.25"></line><line x1="269.9017857142857" y1="0" x2="269.9017857142857" y2="377" fill="rgb(0, 0, 0)" stroke="rgb(189, 189, 189)" stroke-width="1px" opacity="0.25"></line><line x1="337.37723214285717" y1="0" x2="337.37723214285717" y2="377" fill="rgb(0, 0, 0)" stroke="rgb(189, 189, 189)" stroke-width="1px" opacity="0.25"></line><line x1="404.85267857142856" y1="0" x2="404.85267857142856" y2="377" fill="rgb(0, 0, 0)" stroke="rgb(189, 189, 189)" stroke-width="1px" opacity="0.25"></line><line x1="472.328125" y1="0" x2="472.328125" y2="377" fill="rgb(0, 0, 0)" stroke="rgb(189, 189, 189)" stroke-width="1px" opacity="0.25"></line><line x1="539.8035714285714" y1="0" x2="539.8035714285714" y2="377" fill="rgb(0, 0, 0)" stroke="rgb(189, 189, 189)" stroke-width="1px" opacity="0.25"></line><line x1="607.2790178571429" y1="0" x2="607.2790178571429" y2="377" fill="rgb(0, 0, 0)" stroke="rgb(189, 189, 189)" stroke-width="1px" opacity="0.25"></line><line x1="674.7544642857143" y1="0" x2="674.7544642857143" y2="377" fill="rgb(0, 0, 0)" stroke="rgb(189, 189, 189)" stroke-width="1px" opacity="0.25"></line><line x1="742.2299107142857" y1="0" x2="742.2299107142857" y2="377" fill="rgb(0, 0, 0)" stroke="rgb(189, 189, 189)" stroke-width="1px" opacity="0.25"></line><line x1="809.7053571428571" y1="0" x2="809.7053571428571" y2="377" fill="rgb(0, 0, 0)" stroke="rgb(189, 189, 189)" stroke-width="1px" opacity="0.25"></line><line x1="877.1808035714286" y1="0" x2="877.1808035714286" y2="377" fill="rgb(0, 0, 0)" stroke="rgb(189, 189, 189)" stroke-width="1px" opacity="0.25"></line><line x1="944.65625" y1="0" x2="944.65625" y2="377" fill="rgb(0, 0, 0)" stroke="rgb(189, 189, 189)" stroke-width="1px" opacity="0.25"></line></g><g><line x1="0" y1="377" x2="944.65625" y2="377" fill="rgb(0, 0, 0)" stroke="rgb(189, 189, 189)" stroke-width="1px" opacity="0.25"></line><line x1="0" y1="342.7272727272727" x2="944.65625" y2="342.7272727272727" fill="rgb(0, 0, 0)" stroke="rgb(189, 189, 189)" stroke-width="1px" opacity="0.25"></line><line x1="0" y1="308.45454545454544" x2="944.65625" y2="308.45454545454544" fill="rgb(0, 0, 0)" stroke="rgb(189, 189, 189)" stroke-width="1px" opacity="0.25"></line><line x1="0" y1="274.1818181818182" x2="944.65625" y2="274.1818181818182" fill="rgb(0, 0, 0)" stroke="rgb(189, 189, 189)" stroke-width="1px" opacity="0.25"></line><line x1="0" y1="239.9090909090909" x2="944.65625" y2="239.9090909090909" fill="rgb(0, 0, 0)" stroke="rgb(189, 189, 189)" stroke-width="1px" opacity="0.25"></line><line x1="0" y1="205.63636363636363" x2="944.65625" y2="205.63636363636363" fill="rgb(0, 0, 0)" stroke="rgb(189, 189, 189)" stroke-width="1px" opacity="0.25"></line><line x1="0" y1="171.36363636363637" x2="944.65625" y2="171.36363636363637" fill="rgb(0, 0, 0)" stroke="rgb(189, 189, 189)" stroke-width="1px" opacity="0.25"></line><line x1="0" y1="137.0909090909091" x2="944.65625" y2="137.0909090909091" fill="rgb(0, 0, 0)" stroke="rgb(189, 189, 189)" stroke-width="1px" opacity="0.25"></line><line x1="0" y1="102.81818181818181" x2="944.65625" y2="102.81818181818181" fill="rgb(0, 0, 0)" stroke="rgb(189, 189, 189)" stroke-width="1px" opacity="0.25"></line><line x1="0" y1="68.54545454545458" x2="944.65625" y2="68.54545454545458" fill="rgb(0, 0, 0)" stroke="rgb(189, 189, 189)" stroke-width="1px" opacity="0.25"></line><line x1="0" y1="34.27272727272729" x2="944.65625" y2="34.27272727272729" fill="rgb(0, 0, 0)" stroke="rgb(189, 189, 189)" stroke-width="1px" opacity="0.25"></line><line x1="0" y1="0" x2="944.65625" y2="0" fill="rgb(0, 0, 0)" stroke="rgb(189, 189, 189)" stroke-width="1px" opacity="0.25"></line></g></g></g><g><g><line x1="0" y1="377" x2="944.65625" y2="377" fill="rgb(0, 0, 0)" stroke="rgb(153, 153, 153)" stroke-width="1.5px"></line></g></g><g><g><line x1="67.47544642857143" y1="0" x2="67.47544642857143" y2="377" fill="rgb(0, 0, 0)" stroke="rgb(153, 153, 153)" stroke-width="1.5px"></line></g></g><g><g><g><g><g><path stroke="rgb(255, 112, 67)" stroke-width="2px" d="M67.47544642857143,34.27271099405533L70.84921874999999,34.27271099405533L74.22299107142857,34.27271099405533L77.59676339285714,34.272710994055416L80.97053571428572,34.272710994055416L84.34430803571429,34.27271099405533L87.71808035714287,34.27271099405533L91.09185267857143,34.27271099405533L94.465625,34.27271099405533L97.83939732142858,34.27271099405533L101.21316964285714,34.27271099405533L104.58694196428571,34.27271099405529L107.96071428571429,34.27271099405529L111.33448660714285,34.27271099405533L114.70825892857142,34.27271099405533L118.08203125,34.27271099405529L121.45580357142856,34.27271099405529L124.82957589285715,34.27271099405533L128.2033482142857,34.272710994055416L131.5771205357143,34.27271099405533L134.95089285714286,34.27271099405533L138.32466517857142,34.27271099405533L141.69843749999998,34.27271099405533L145.07220982142857,34.27271099405533L148.44598214285713,34.27271099405533L151.81975446428572,34.27271099405533L155.19352678571428,34.272710994055416L158.56729910714284,34.27271099405533L161.94107142857143,34.27271099405533L165.31484375,34.272710994055416L168.68861607142858,34.27271099405533L172.06238839285714,34.272710994055416L175.43616071428573,34.27271099405533L178.80993303571427,34.272710994055416L182.18370535714286,34.272710994055416L185.55747767857142,34.272710994055416L188.93125,34.272710994055416L192.30502232142857,34.272710994055416L195.67879464285716,34.2727109940555L199.05256696428572,34.272710994055416L202.42633928571428,34.272710994055416L205.80011160714287,34.272710994055416L209.17388392857143,34.272710994055416L212.54765625000002,34.272710994055416L215.92142857142858,34.272710994055416L219.29520089285714,34.272710994055416L222.6689732142857,34.272710994055416L226.0427455357143,34.272710994055416L229.41651785714285,34.27271099405533L232.79029017857144,34.27271099405533L236.1640625,34.272710994055416L239.53783482142856,34.272710994055416L242.91160714285712,34.27271099405533L246.28537946428574,34.272710994055416L249.6591517857143,34.2727109940555L253.03292410714286,34.272710994055416L256.4066964285714,34.272710994055416L259.78046875,34.27271099405533L263.1542410714286,34.27271099405533L266.52801339285713,34.272710994055416L269.9017857142857,34.272710994055416L273.2755580357143,34.272710994055416L276.64933035714284,34.272710994055416L280.02310267857143,34.272710994055416L283.39687499999997,34.272710994055416L286.77064732142856,34.27271099405533L290.14441964285714,34.27271099405533L293.51819196428573,34.27271099405533L296.89196428571427,34.27271099405533L300.26573660714286,34.27271099405533L303.63950892857144,34.272710994055416L307.01328125000003,34.272710994055416L310.38705357142857,34.272710994055416L313.76082589285716,34.2727109940555L317.1345982142857,34.2727109940555L320.5083705357143,34.2727109940555L323.88214285714287,34.2727109940555L327.2559151785714,34.2727109940555L330.6296875,34.2727109940555L334.0034598214286,34.2727109940555L337.37723214285717,34.2727109940555L340.7510044642857,34.2727109940555L344.1247767857143,34.2727109940555L347.4985491071429,34.2727109940555L350.87232142857147,34.2727109940555L354.24609375,34.2727109940555L357.61986607142853,34.2727109940555L360.9936383928571,34.2727109940555L364.3674107142857,34.2727109940555L367.7411830357143,34.2727109940555L371.11495535714283,34.2727109940555L374.4887276785714,34.2727109940555L377.8625,34.2727109940555L381.2362723214286,34.2727109940555L384.61004464285713,34.2727109940555L387.9838169642857,34.2727109940555L391.3575892857143,34.2727109940555L394.73136160714284,34.2727109940555L398.10513392857143,34.2727109940555L401.47890624999997,34.2727109940555L404.85267857142856,34.2727109940555L408.22645089285714,34.2727109940555L411.60022321428573,34.2727109940555L414.97399553571427,34.2727109940555L418.34776785714286,34.2727109940555L421.72154017857144,34.2727109940555L425.09531250000003,34.2727109940555L428.46908482142857,34.2727109940555L431.84285714285716,34.2727109940555L435.2166294642857,34.2727109940555L438.5904017857143,34.2727109940555L441.96417410714287,34.2727109940555L445.3379464285714,34.2727109940555L448.71171875,34.2727109940555L452.0854910714286,34.2727109940555L455.45926339285717,34.2727109940555L458.8330357142857,34.2727109940555L462.2068080357143,34.2727109940555L465.5805803571429,34.2727109940555L468.95435267857147,34.2727109940555L472.328125,34.2727109940555L475.70189732142853,34.2727109940555L479.0756696428571,34.2727109940555L482.44944196428565,34.2727109940555L485.82321428571424,34.2727109940555L489.1969866071429,34.2727109940555L492.5707589285715,34.2727109940555L495.94453125,34.2727109940555L499.3183035714286,34.2727109940555L502.69207589285713,34.2727109940555L506.0658482142857,34.2727109940555L509.43962053571425,34.2727109940555L512.8133928571428,34.2727109940555L516.1871651785714,34.2727109940555L519.5609375,34.2727109940555L522.9347098214286,34.2727109940555L526.3084821428572,34.2727109940555L529.6822544642857,34.2727109940555L533.0560267857143,34.2727109940555L536.4297991071428,34.2727109940555L539.8035714285714,34.2727109940555L543.17734375,34.2727109940555L546.5511160714286,34.2727109940555L549.9248883928572,34.2727109940555L553.2986607142857,34.2727109940555L556.6724330357143,34.2727109940555L560.0462053571429,34.2727109940555L563.4199776785714,34.2727109940555L566.7937499999999,34.2727109940555L570.1675223214286,157.65453603366316L573.5412946428571,231.6836310574278L576.9150669642858,276.10108807168655L580.2888392857143,302.7515622802418L583.6626116071429,318.7418468053749L587.0363839285715,328.3360175204548L590.41015625,334.09251994950273L593.7839285714285,337.5464214069315L597.1577008928571,339.6187622813888L600.5314732142857,340.8621668060631L603.9052455357142,341.6082095208677L607.2790178571429,342.05583514975046L610.6527901785714,342.32441052708015L614.0265625000001,342.48555575347797L617.4003348214286,342.58224288931666L620.7741071428571,342.64025517081984L624.1478794642857,342.6750625397218L627.5216517857143,342.69594696106293L630.8954241071428,342.7084776138676L634.2691964285714,342.71599600555044L637.64296875,342.7205070405601L641.0167410714286,342.7232136615659L644.3905133928572,342.72483763416943L647.7642857142857,342.7258120177315L651.1380580357143,342.72639664786874L654.5118303571428,342.7267474259511L657.8856026785714,342.72695789280056L661.259375,342.72708417291017L664.6331473214286,342.727159940976L668.0069196428572,342.72720540181547L671.3806919642857,342.7272326783191L674.7544642857143,342.7272490442213L678.1282366071429,342.72725886376264L681.5020089285714,342.72726475548745L684.8757812499999,342.7272682905223L688.2495535714286,342.72727041154326L691.6233258928571,342.72727168415577L694.9970982142858,342.72727244772335L698.3708705357143,342.72727290586386L701.7446428571429,342.72727318074817L705.1184151785715,342.7272733456787L708.4921875,342.7272734446371L711.8659598214285,342.7272735040121L715.2397321428571,342.7272735396371L718.6135044642857,342.72727356101217L721.9872767857142,342.7272735738371L725.3610491071429,342.72727358153213L728.7348214285714,342.7272735861492L732.1085937500001,342.72727358891933L735.4823660714286,342.7272735905815L738.8561383928571,342.72727359157875L742.2299107142857,342.7272735921771L745.6036830357143,342.7272735925361L748.9774553571428,342.72727359275154L752.3512276785714,342.72727359288075L755.725,342.72727359295834L759.0987723214286,342.7272735930049L762.4725446428572,342.7272735930328L765.8463169642857,342.7272735930495L769.2200892857143,342.7272735930596L772.5938616071428,342.7272735930656L775.9676339285714,342.7272735930692L779.34140625,342.7272735930714L782.7151785714286,342.7272735930727L786.0889508928572,342.72727359307345L789.4627232142857,342.7272735930739L792.8364955357143,342.72727359307424L796.2102678571429,342.7272735930744L799.5840401785714,342.7272735930745L802.9578124999999,342.7272735930746L806.3315848214286,342.7272735930746L809.7053571428571,342.7272735930746L813.0791294642858,342.72727359307464L816.4529017857143,342.72727359307464L819.8266741071429,342.72727359307464L823.2004464285715,342.72727359307464L826.57421875,342.72727359307464L829.9479910714285,342.72727359307464L833.3217633928571,342.72727359307464L836.6955357142857,342.72727359307464L840.0693080357142,342.72727359307464L843.4430803571429,342.72727359307464L846.8168526785714,342.72727359307464L850.1906250000001,342.72727359307464L853.5643973214286,342.72727359307464L856.9381696428571,342.72727359307464L860.3119419642857,342.72727359307464L863.6857142857143,342.72727359307464L867.0594866071428,342.72727359307464L870.4332589285714,342.72727359307464L873.80703125,342.72727359307464L877.1808035714286,342.72727359307464L880.5545758928572,342.72727359307464L883.9283482142857,342.72727359307464L887.3021205357143,342.72727359307464L890.6758928571428,342.72727359307464L894.0496651785714,342.72727359307464L897.4234375,342.72727359307464L900.7972098214286,342.72727359307464L904.1709821428572,342.72727359307464L907.5447544642857,342.72727359307464" style="fill: none;" fill="none"></path></g></g></g></g><g opacity="0.2"><g><g><g><path stroke="rgb(255, 112, 67)" stroke-width="2px" d="M67.47544642857143,34.27271099405533L70.84921874999999,34.27271099405533L74.22299107142857,34.27271099405533L77.59676339285714,34.27271099405533L80.97053571428572,34.27271099405533L84.34430803571429,34.27271099405533L87.71808035714287,34.27271099405533L91.09185267857143,34.27271099405533L94.465625,34.27271099405533L97.83939732142858,34.27271099405533L101.21316964285714,34.27271099405533L104.58694196428571,34.27271099405533L107.96071428571429,34.27271099405533L111.33448660714285,34.27271099405533L114.70825892857142,34.27271099405533L118.08203125,34.27271099405533L121.45580357142856,34.27271099405533L124.82957589285715,34.27271099405533L128.2033482142857,34.27271099405533L131.5771205357143,34.27271099405533L134.95089285714286,34.27271099405533L138.32466517857142,34.27271099405533L141.69843749999998,34.27271099405533L145.07220982142857,34.27271099405533L148.44598214285713,34.27271099405533L151.81975446428572,34.27271099405533L155.19352678571428,34.27271099405533L158.56729910714284,34.27271099405533L161.94107142857143,34.27271099405533L165.31484375,34.27271099405533L168.68861607142858,34.27271099405533L172.06238839285714,34.27271099405533L175.43616071428573,34.27271099405533L178.80993303571427,34.27271099405533L182.18370535714286,34.27271099405533L185.55747767857142,34.27271099405533L188.93125,34.27271099405533L192.30502232142857,34.27271099405533L195.67879464285716,34.27271099405533L199.05256696428572,34.27271099405533L202.42633928571428,34.27271099405533L205.80011160714287,34.27271099405533L209.17388392857143,34.27271099405533L212.54765625000002,34.27271099405533L215.92142857142858,34.27271099405533L219.29520089285714,34.27271099405533L222.6689732142857,34.27271099405533L226.0427455357143,34.27271099405533L229.41651785714285,34.27271099405533L232.79029017857144,34.27271099405533L236.1640625,34.27271099405533L239.53783482142856,34.27271099405533L242.91160714285712,34.27271099405533L246.28537946428574,34.27271099405533L249.6591517857143,34.27271099405533L253.03292410714286,34.27271099405533L256.4066964285714,34.27271099405533L259.78046875,34.27271099405533L263.1542410714286,34.27271099405533L266.52801339285713,34.27271099405533L269.9017857142857,34.27271099405533L273.2755580357143,34.27271099405533L276.64933035714284,34.27271099405533L280.02310267857143,34.27271099405533L283.39687499999997,34.27271099405533L286.77064732142856,34.27271099405533L290.14441964285714,34.27271099405533L293.51819196428573,34.27271099405533L296.89196428571427,34.27271099405533L300.26573660714286,34.27271099405533L303.63950892857144,34.27271099405533L307.01328125000003,34.27271099405533L310.38705357142857,34.27271099405533L313.76082589285716,34.27271099405533L317.1345982142857,34.27271099405533L320.5083705357143,34.27271099405533L323.88214285714287,34.27271099405533L327.2559151785714,34.27271099405533L330.6296875,34.27271099405533L334.0034598214286,34.27271099405533L337.37723214285717,34.27271099405533L340.7510044642857,34.27271099405533L344.1247767857143,34.27271099405533L347.4985491071429,34.27271099405533L350.87232142857147,34.27271099405533L354.24609375,34.27271099405533L357.61986607142853,34.27271099405533L360.9936383928571,34.27271099405533L364.3674107142857,34.27271099405533L367.7411830357143,34.27271099405533L371.11495535714283,34.27271099405533L374.4887276785714,34.27271099405533L377.8625,34.27271099405533L381.2362723214286,34.27271099405533L384.61004464285713,34.27271099405533L387.9838169642857,34.27271099405533L391.3575892857143,34.27271099405533L394.73136160714284,34.27271099405533L398.10513392857143,34.27271099405533L401.47890624999997,34.27271099405533L404.85267857142856,34.27271099405533L408.22645089285714,34.27271099405533L411.60022321428573,34.27271099405533L414.97399553571427,34.27271099405533L418.34776785714286,34.27271099405533L421.72154017857144,34.27271099405533L425.09531250000003,34.27271099405533L428.46908482142857,34.27271099405533L431.84285714285716,34.27271099405533L435.2166294642857,34.27271099405533L438.5904017857143,34.27271099405533L441.96417410714287,34.27271099405533L445.3379464285714,34.27271099405533L448.71171875,34.27271099405533L452.0854910714286,34.27271099405533L455.45926339285717,34.27271099405533L458.8330357142857,34.27271099405533L462.2068080357143,34.27271099405533L465.5805803571429,34.27271099405533L468.95435267857147,34.27271099405533L472.328125,34.27271099405533L475.70189732142853,34.27271099405533L479.0756696428571,34.27271099405533L482.44944196428565,34.27271099405533L485.82321428571424,34.27271099405533L489.1969866071429,34.27271099405533L492.5707589285715,34.27271099405533L495.94453125,34.27271099405533L499.3183035714286,34.27271099405533L502.69207589285713,34.27271099405533L506.0658482142857,34.27271099405533L509.43962053571425,34.27271099405533L512.8133928571428,34.27271099405533L516.1871651785714,34.27271099405533L519.5609375,34.27271099405533L522.9347098214286,34.27271099405533L526.3084821428572,34.27271099405533L529.6822544642857,34.27271099405533L533.0560267857143,34.27271099405533L536.4297991071428,34.27271099405533L539.8035714285714,34.27271099405533L543.17734375,34.27271099405533L546.5511160714286,34.27271099405533L549.9248883928572,34.27271099405533L553.2986607142857,34.27271099405533L556.6724330357143,34.27271099405533L560.0462053571429,34.27271099405533L563.4199776785714,34.27271099405533L566.7937499999999,34.27271099405533L570.1675223214286,342.72727359307464L573.5412946428571,342.72727359307464L576.9150669642858,342.72727359307464L580.2888392857143,342.72727359307464L583.6626116071429,342.72727359307464L587.0363839285715,342.72727359307464L590.41015625,342.72727359307464L593.7839285714285,342.72727359307464L597.1577008928571,342.72727359307464L600.5314732142857,342.72727359307464L603.9052455357142,342.72727359307464L607.2790178571429,342.72727359307464L610.6527901785714,342.72727359307464L614.0265625000001,342.72727359307464L617.4003348214286,342.72727359307464L620.7741071428571,342.72727359307464L624.1478794642857,342.72727359307464L627.5216517857143,342.72727359307464L630.8954241071428,342.72727359307464L634.2691964285714,342.72727359307464L637.64296875,342.72727359307464L641.0167410714286,342.72727359307464L644.3905133928572,342.72727359307464L647.7642857142857,342.72727359307464L651.1380580357143,342.72727359307464L654.5118303571428,342.72727359307464L657.8856026785714,342.72727359307464L661.259375,342.72727359307464L664.6331473214286,342.72727359307464L668.0069196428572,342.72727359307464L671.3806919642857,342.72727359307464L674.7544642857143,342.72727359307464L678.1282366071429,342.72727359307464L681.5020089285714,342.72727359307464L684.8757812499999,342.72727359307464L688.2495535714286,342.72727359307464L691.6233258928571,342.72727359307464L694.9970982142858,342.72727359307464L698.3708705357143,342.72727359307464L701.7446428571429,342.72727359307464L705.1184151785715,342.72727359307464L708.4921875,342.72727359307464L711.8659598214285,342.72727359307464L715.2397321428571,342.72727359307464L718.6135044642857,342.72727359307464L721.9872767857142,342.72727359307464L725.3610491071429,342.72727359307464L728.7348214285714,342.72727359307464L732.1085937500001,342.72727359307464L735.4823660714286,342.72727359307464L738.8561383928571,342.72727359307464L742.2299107142857,342.72727359307464L745.6036830357143,342.72727359307464L748.9774553571428,342.72727359307464L752.3512276785714,342.72727359307464L755.725,342.72727359307464L759.0987723214286,342.72727359307464L762.4725446428572,342.72727359307464L765.8463169642857,342.72727359307464L769.2200892857143,342.72727359307464L772.5938616071428,342.72727359307464L775.9676339285714,342.72727359307464L779.34140625,342.72727359307464L782.7151785714286,342.72727359307464L786.0889508928572,342.72727359307464L789.4627232142857,342.72727359307464L792.8364955357143,342.72727359307464L796.2102678571429,342.72727359307464L799.5840401785714,342.72727359307464L802.9578124999999,342.72727359307464L806.3315848214286,342.72727359307464L809.7053571428571,342.72727359307464L813.0791294642858,342.72727359307464L816.4529017857143,342.72727359307464L819.8266741071429,342.72727359307464L823.2004464285715,342.72727359307464L826.57421875,342.72727359307464L829.9479910714285,342.72727359307464L833.3217633928571,342.72727359307464L836.6955357142857,342.72727359307464L840.0693080357142,342.72727359307464L843.4430803571429,342.72727359307464L846.8168526785714,342.72727359307464L850.1906250000001,342.72727359307464L853.5643973214286,342.72727359307464L856.9381696428571,342.72727359307464L860.3119419642857,342.72727359307464L863.6857142857143,342.72727359307464L867.0594866071428,342.72727359307464L870.4332589285714,342.72727359307464L873.80703125,342.72727359307464L877.1808035714286,342.72727359307464L880.5545758928572,342.72727359307464L883.9283482142857,342.72727359307464L887.3021205357143,342.72727359307464L890.6758928571428,342.72727359307464L894.0496651785714,342.72727359307464L897.4234375,342.72727359307464L900.7972098214286,342.72727359307464L904.1709821428572,342.72727359307464L907.5447544642857,342.72727359307464" style="fill: none;" fill="none"></path></g></g></g></g></g></g><g transform="translate(72, 377)" clip-path="url(#clip_1)"><clipPath id="clip_1"><rect width="944" height="23"></rect></clipPath><g><g><line x1="0" y1="0" x2="0" y2="5" style="visibility: inherit;" fill="rgb(0, 0, 0)" stroke="rgb(204, 204, 204)" stroke-width="1px"></line><line x1="67.47544642857143" y1="0" x2="67.47544642857143" y2="5" style="visibility: inherit;" fill="rgb(0, 0, 0)" stroke="rgb(204, 204, 204)" stroke-width="1px"></line><line x1="134.95089285714286" y1="0" x2="134.95089285714286" y2="5" style="visibility: inherit;" fill="rgb(0, 0, 0)" stroke="rgb(204, 204, 204)" stroke-width="1px"></line><line x1="202.42633928571428" y1="0" x2="202.42633928571428" y2="5" style="visibility: inherit;" fill="rgb(0, 0, 0)" stroke="rgb(204, 204, 204)" stroke-width="1px"></line><line x1="269.9017857142857" y1="0" x2="269.9017857142857" y2="5" style="visibility: inherit;" fill="rgb(0, 0, 0)" stroke="rgb(204, 204, 204)" stroke-width="1px"></line><line x1="337.37723214285717" y1="0" x2="337.37723214285717" y2="5" style="visibility: inherit;" fill="rgb(0, 0, 0)" stroke="rgb(204, 204, 204)" stroke-width="1px"></line><line x1="404.85267857142856" y1="0" x2="404.85267857142856" y2="5" style="visibility: inherit;" fill="rgb(0, 0, 0)" stroke="rgb(204, 204, 204)" stroke-width="1px"></line><line x1="472.328125" y1="0" x2="472.328125" y2="5" style="visibility: inherit;" fill="rgb(0, 0, 0)" stroke="rgb(204, 204, 204)" stroke-width="1px"></line><line x1="539.8035714285714" y1="0" x2="539.8035714285714" y2="5" style="visibility: inherit;" fill="rgb(0, 0, 0)" stroke="rgb(204, 204, 204)" stroke-width="1px"></line><line x1="607.2790178571429" y1="0" x2="607.2790178571429" y2="5" style="visibility: inherit;" fill="rgb(0, 0, 0)" stroke="rgb(204, 204, 204)" stroke-width="1px"></line><line x1="674.7544642857143" y1="0" x2="674.7544642857143" y2="5" style="visibility: inherit;" fill="rgb(0, 0, 0)" stroke="rgb(204, 204, 204)" stroke-width="1px"></line><line x1="742.2299107142857" y1="0" x2="742.2299107142857" y2="5" style="visibility: inherit;" fill="rgb(0, 0, 0)" stroke="rgb(204, 204, 204)" stroke-width="1px"></line><line x1="809.7053571428571" y1="0" x2="809.7053571428571" y2="5" style="visibility: inherit;" fill="rgb(0, 0, 0)" stroke="rgb(204, 204, 204)" stroke-width="1px"></line><line x1="877.1808035714286" y1="0" x2="877.1808035714286" y2="5" style="visibility: inherit;" fill="rgb(0, 0, 0)" stroke="rgb(204, 204, 204)" stroke-width="1px"></line><line x1="944.65625" y1="0" x2="944.65625" y2="5" style="visibility: inherit;" fill="rgb(0, 0, 0)" stroke="rgb(204, 204, 204)" stroke-width="1px"></line></g><g transform="translate(0, 8)"><text x="0" y="0" dx="0em" dy="0.95em" style="text-anchor: middle; visibility: hidden; font-family: Roboto, sans-serif; font-size: 12px; font-weight: 200;" fill="rgb(255, 255, 255)" stroke="none" stroke-width="1px">-20</text><text x="67.47544642857143" y="0" dx="0em" dy="0.95em" style="text-anchor: middle; visibility: inherit; font-family: Roboto, sans-serif; font-size: 12px; font-weight: 200;" fill="rgb(255, 255, 255)" stroke="none" stroke-width="1px">0</text><text x="134.95089285714286" y="0" dx="0em" dy="0.95em" style="text-anchor: middle; visibility: inherit; font-family: Roboto, sans-serif; font-size: 12px; font-weight: 200;" fill="rgb(255, 255, 255)" stroke="none" stroke-width="1px">20</text><text x="202.42633928571428" y="0" dx="0em" dy="0.95em" style="text-anchor: middle; visibility: inherit; font-family: Roboto, sans-serif; font-size: 12px; font-weight: 200;" fill="rgb(255, 255, 255)" stroke="none" stroke-width="1px">40</text><text x="269.9017857142857" y="0" dx="0em" dy="0.95em" style="text-anchor: middle; visibility: inherit; font-family: Roboto, sans-serif; font-size: 12px; font-weight: 200;" fill="rgb(255, 255, 255)" stroke="none" stroke-width="1px">60</text><text x="337.37723214285717" y="0" dx="0em" dy="0.95em" style="text-anchor: middle; visibility: inherit; font-family: Roboto, sans-serif; font-size: 12px; font-weight: 200;" fill="rgb(255, 255, 255)" stroke="none" stroke-width="1px">80</text><text x="404.85267857142856" y="0" dx="0em" dy="0.95em" style="text-anchor: middle; visibility: inherit; font-family: Roboto, sans-serif; font-size: 12px; font-weight: 200;" fill="rgb(255, 255, 255)" stroke="none" stroke-width="1px">100</text><text x="472.328125" y="0" dx="0em" dy="0.95em" style="text-anchor: middle; visibility: inherit; font-family: Roboto, sans-serif; font-size: 12px; font-weight: 200;" fill="rgb(255, 255, 255)" stroke="none" stroke-width="1px">120</text><text x="539.8035714285714" y="0" dx="0em" dy="0.95em" style="text-anchor: middle; visibility: inherit; font-family: Roboto, sans-serif; font-size: 12px; font-weight: 200;" fill="rgb(255, 255, 255)" stroke="none" stroke-width="1px">140</text><text x="607.2790178571429" y="0" dx="0em" dy="0.95em" style="text-anchor: middle; visibility: inherit; font-family: Roboto, sans-serif; font-size: 12px; font-weight: 200;" fill="rgb(255, 255, 255)" stroke="none" stroke-width="1px">160</text><text x="674.7544642857143" y="0" dx="0em" dy="0.95em" style="text-anchor: middle; visibility: inherit; font-family: Roboto, sans-serif; font-size: 12px; font-weight: 200;" fill="rgb(255, 255, 255)" stroke="none" stroke-width="1px">180</text><text x="742.2299107142857" y="0" dx="0em" dy="0.95em" style="text-anchor: middle; visibility: inherit; font-family: Roboto, sans-serif; font-size: 12px; font-weight: 200;" fill="rgb(255, 255, 255)" stroke="none" stroke-width="1px">200</text><text x="809.7053571428571" y="0" dx="0em" dy="0.95em" style="text-anchor: middle; visibility: inherit; font-family: Roboto, sans-serif; font-size: 12px; font-weight: 200;" fill="rgb(255, 255, 255)" stroke="none" stroke-width="1px">220</text><text x="877.1808035714286" y="0" dx="0em" dy="0.95em" style="text-anchor: middle; visibility: inherit; font-family: Roboto, sans-serif; font-size: 12px; font-weight: 200;" fill="rgb(255, 255, 255)" stroke="none" stroke-width="1px">240</text><text x="944.65625" y="0" dx="0em" dy="0.95em" style="text-anchor: middle; visibility: hidden; font-family: Roboto, sans-serif; font-size: 12px; font-weight: 200;" fill="rgb(255, 255, 255)" stroke="none" stroke-width="1px">260</text></g><line x1="0" y1="0" x2="944.65625" y2="0" fill="rgb(0, 0, 0)" stroke="rgb(204, 204, 204)" stroke-width="1px"></line></g></g></g></g></svg>