<svg viewBox="0 0 1017 400" xmlns="http://www.w3.org/2000/svg"><g><g><g><g><g><line x1="51.5625" y1="377" x2="46.5625" y2="377" style="visibility: inherit;" fill="rgb(0, 0, 0)" stroke="rgb(204, 204, 204)" stroke-width="1px"></line><line x1="51.5625" y1="342.72727272727275" x2="46.5625" y2="342.72727272727275" style="visibility: inherit;" fill="rgb(0, 0, 0)" stroke="rgb(204, 204, 204)" stroke-width="1px"></line><line x1="51.5625" y1="308.4545454545455" x2="46.5625" y2="308.4545454545455" style="visibility: inherit;" fill="rgb(0, 0, 0)" stroke="rgb(204, 204, 204)" stroke-width="1px"></line><line x1="51.5625" y1="274.18181818181813" x2="46.5625" y2="274.18181818181813" style="visibility: inherit;" fill="rgb(0, 0, 0)" stroke="rgb(204, 204, 204)" stroke-width="1px"></line><line x1="51.5625" y1="239.90909090909085" x2="46.5625" y2="239.90909090909085" style="visibility: inherit;" fill="rgb(0, 0, 0)" stroke="rgb(204, 204, 204)" stroke-width="1px"></line><line x1="51.5625" y1="205.6363636363637" x2="46.5625" y2="205.6363636363637" style="visibility: inherit;" fill="rgb(0, 0, 0)" stroke="rgb(204, 204, 204)" stroke-width="1px"></line><line x1="51.5625" y1="171.36363636363637" x2="46.5625" y2="171.36363636363637" style="visibility: inherit;" fill="rgb(0, 0, 0)" stroke="rgb(204, 204, 204)" stroke-width="1px"></line><line x1="51.5625" y1="137.0909090909091" x2="46.5625" y2="137.0909090909091" style="visibility: inherit;" fill="rgb(0, 0, 0)" stroke="rgb(204, 204, 204)" stroke-width="1px"></line><line x1="51.5625" y1="102.81818181818177" x2="46.5625" y2="102.81818181818177" style="visibility: inherit;" fill="rgb(0, 0, 0)" stroke="rgb(204, 204, 204)" stroke-width="1px"></line><line x1="51.5625" y1="68.54545454545445" x2="46.5625" y2="68.54545454545445" style="visibility: inherit;" fill="rgb(0, 0, 0)" stroke="rgb(204, 204, 204)" stroke-width="1px"></line><line x1="51.5625" y1="34.27272727272732" x2="46.5625" y2="34.27272727272732" style="visibility: inherit;" fill="rgb(0, 0, 0)" stroke="rgb(204, 204, 204)" stroke-width="1px"></line><line x1="51.5625" y1="0" x2="46.5625" y2="0" style="visibility: inherit;" fill="rgb(0, 0, 0)" stroke="rgb(204, 204, 204)" stroke-width="1px"></line></g><g transform="translate(41.5625, 0)"><text x="0" y="377" dx="0em" dy="0.3em" style="text-anchor: end; visibility: hidden; font-family: Roboto, sans-serif; font-size: 12px; font-weight: 200;" fill="rgb(255, 255, 255)" stroke="none" stroke-width="1px">0.9</text><text x="0" y="342.72727272727275" dx="0em" dy="0.3em" style="text-anchor: end; visibility: inherit; font-family: Roboto, sans-serif; font-size: 12px; font-weight: 200;" fill="rgb(255, 255, 255)" stroke="none" stroke-width="1px">0.95</text><text x="0" y="308.4545454545455" dx="0em" dy="0.3em" style="text-anchor: end; visibility: inherit; font-family: Roboto, sans-serif; font-size: 12px; font-weight: 200;" fill="rgb(255, 255, 255)" stroke="none" stroke-width="1px">1</text><text x="0" y="274.18181818181813" dx="0em" dy="0.3em" style="text-anchor: end; visibility: inherit; font-family: Roboto, sans-serif; font-size: 12px; font-weight: 200;" fill="rgb(255, 255, 255)" stroke="none" stroke-width="1px">1.05</text><text x="0" y="239.90909090909085" dx="0em" dy="0.3em" style="text-anchor: end; visibility: inherit; font-family: Roboto, sans-serif; font-size: 12px; font-weight: 200;" fill="rgb(255, 255, 255)" stroke="none" stroke-width="1px">1.1</text><text x="0" y="205.6363636363637" dx="0em" dy="0.3em" style="text-anchor: end; visibility: inherit; font-family: Roboto, sans-serif; font-size: 12px; font-weight: 200;" fill="rgb(255, 255, 255)" stroke="none" stroke-width="1px">1.15</text><text x="0" y="171.36363636363637" dx="0em" dy="0.3em" style="text-anchor: end; visibility: inherit; font-family: Roboto, sans-serif; font-size: 12px; font-weight: 200;" fill="rgb(255, 255, 255)" stroke="none" stroke-width="1px">1.2</text><text x="0" y="137.0909090909091" dx="0em" dy="0.3em" style="text-anchor: end; visibility: inherit; font-family: Roboto, sans-serif; font-size: 12px; font-weight: 200;" fill="rgb(255, 255, 255)" stroke="none" stroke-width="1px">1.25</text><text x="0" y="102.81818181818177" dx="0em" dy="0.3em" style="text-anchor: end; visibility: inherit; font-family: Roboto, sans-serif; font-size: 12px; font-weight: 200;" fill="rgb(255, 255, 255)" stroke="none" stroke-width="1px">1.3</text><text x="0" y="68.54545454545445" dx="0em" dy="0.3em" style="text-anchor: end; visibility: inherit; font-family: Roboto, sans-serif; font-size: 12px; font-weight: 200;" fill="rgb(255, 255, 255)" stroke="none" stroke-width="1px">1.35</text><text x="0" y="34.27272727272732" dx="0em" dy="0.3em" style="text-anchor: end; visibility: inherit; font-family: Roboto, sans-serif; font-size: 12px; font-weight: 200;" fill="rgb(255, 255, 255)" stroke="none" stroke-width="1px">1.4</text><text x="0" y="0" dx="0em" dy="0.3em" style="text-anchor: end; visibility: hidden; font-family: Roboto, sans-serif; font-size: 12px; font-weight: 200;" fill="rgb(255, 255, 255)" stroke="none" stroke-width="1px">1.45</text></g><line x1="51.5625" y1="0" x2="51.5625" y2="377" fill="rgb(0, 0, 0)" stroke="rgb(204, 204, 204)" stroke-width="1px"></line></g></g><g transform="translate(51, 0)" clip-path="url(#clip_0)"><clipPath id="clip_0"><rect width="965" height="377"></rect></clipPath><g><g><g><line x1="0" y1="0" x2="0" y2="377" fill="rgb(0, 0, 0)" stroke="rgb(189, 189, 189)" stroke-width="1px" opacity="0.25"></line><line x1="68.95982142857143" y1="0" x2="68.95982142857143" y2="377" fill="rgb(0, 0, 0)" stroke="rgb(189, 189, 189)" stroke-width="1px" opacity="0.25"></line><line x1="137.91964285714286" y1="0" x2="137.91964285714286" y2="377" fill="rgb(0, 0, 0)" stroke="rgb(189, 189, 189)" stroke-width="1px" opacity="0.25"></line><line x1="206.87946428571428" y1="0" x2="206.87946428571428" y2="377" fill="rgb(0, 0, 0)" stroke="rgb(189, 189, 189)" stroke-width="1px" opacity="0.25"></line><line x1="275.8392857142857" y1="0" x2="275.8392857142857" y2="377" fill="rgb(0, 0, 0)" stroke="rgb(189, 189, 189)" stroke-width="1px" opacity="0.25"></line><line x1="344.79910714285717" y1="0" x2="344.79910714285717" y2="377" fill="rgb(0, 0, 0)" stroke="rgb(189, 189, 189)" stroke-width="1px" opacity="0.25"></line><line x1="413.75892857142856" y1="0" x2="413.75892857142856" y2="377" fill="rgb(0, 0, 0)" stroke="rgb(189, 189, 189)" stroke-width="1px" opacity="0.25"></line><line x1="482.71875" y1="0" x2="482.71875" y2="377" fill="rgb(0, 0, 0)" stroke="rgb(189, 189, 189)" stroke-width="1px" opacity="0.25"></line><line x1="551.6785714285714" y1="0" x2="551.6785714285714" y2="377" fill="rgb(0, 0, 0)" stroke="rgb(189, 189, 189)" stroke-width="1px" opacity="0.25"></line><line x1="620.6383928571429" y1="0" x2="620.6383928571429" y2="377" fill="rgb(0, 0, 0)" stroke="rgb(189, 189, 189)" stroke-width="1px" opacity="0.25"></line><line x1="689.5982142857143" y1="0" x2="689.5982142857143" y2="377" fill="rgb(0, 0, 0)" stroke="rgb(189, 189, 189)" stroke-width="1px" opacity="0.25"></line><line x1="758.5580357142857" y1="0" x2="758.5580357142857" y2="377" fill="rgb(0, 0, 0)" stroke="rgb(189, 189, 189)" stroke-width="1px" opacity="0.25"></line><line x1="827.5178571428571" y1="0" x2="827.5178571428571" y2="377" fill="rgb(0, 0, 0)" stroke="rgb(189, 189, 189)" stroke-width="1px" opacity="0.25"></line><line x1="896.4776785714286" y1="0" x2="896.4776785714286" y2="377" fill="rgb(0, 0, 0)" stroke="rgb(189, 189, 189)" stroke-width="1px" opacity="0.25"></line><line x1="965.4375" y1="0" x2="965.4375" y2="377" fill="rgb(0, 0, 0)" stroke="rgb(189, 189, 189)" stroke-width="1px" opacity="0.25"></line></g><g><line x1="0" y1="377" x2="965.4375" y2="377" fill="rgb(0, 0, 0)" stroke="rgb(189, 189, 189)" stroke-width="1px" opacity="0.25"></line><line x1="0" y1="342.72727272727275" x2="965.4375" y2="342.72727272727275" fill="rgb(0, 0, 0)" stroke="rgb(189, 189, 189)" stroke-width="1px" opacity="0.25"></line><line x1="0" y1="308.4545454545455" x2="965.4375" y2="308.4545454545455" fill="rgb(0, 0, 0)" stroke="rgb(189, 189, 189)" stroke-width="1px" opacity="0.25"></line><line x1="0" y1="274.18181818181813" x2="965.4375" y2="274.18181818181813" fill="rgb(0, 0, 0)" stroke="rgb(189, 189, 189)" stroke-width="1px" opacity="0.25"></line><line x1="0" y1="239.90909090909085" x2="965.4375" y2="239.90909090909085" fill="rgb(0, 0, 0)" stroke="rgb(189, 189, 189)" stroke-width="1px" opacity="0.25"></line><line x1="0" y1="205.6363636363637" x2="965.4375" y2="205.6363636363637" fill="rgb(0, 0, 0)" stroke="rgb(189, 189, 189)" stroke-width="1px" opacity="0.25"></line><line x1="0" y1="171.36363636363637" x2="965.4375" y2="171.36363636363637" fill="rgb(0, 0, 0)" stroke="rgb(189, 189, 189)" stroke-width="1px" opacity="0.25"></line><line x1="0" y1="137.0909090909091" x2="965.4375" y2="137.0909090909091" fill="rgb(0, 0, 0)" stroke="rgb(189, 189, 189)" stroke-width="1px" opacity="0.25"></line><line x1="0" y1="102.81818181818177" x2="965.4375" y2="102.81818181818177" fill="rgb(0, 0, 0)" stroke="rgb(189, 189, 189)" stroke-width="1px" opacity="0.25"></line><line x1="0" y1="68.54545454545445" x2="965.4375" y2="68.54545454545445" fill="rgb(0, 0, 0)" stroke="rgb(189, 189, 189)" stroke-width="1px" opacity="0.25"></line><line x1="0" y1="34.27272727272732" x2="965.4375" y2="34.27272727272732" fill="rgb(0, 0, 0)" stroke="rgb(189, 189, 189)" stroke-width="1px" opacity="0.25"></line><line x1="0" y1="0" x2="965.4375" y2="0" fill="rgb(0, 0, 0)" stroke="rgb(189, 189, 189)" stroke-width="1px" opacity="0.25"></line></g></g></g><g><g><line x1="0" y1="993.909090909091" x2="965.4375" y2="993.909090909091" fill="rgb(0, 0, 0)" stroke="rgb(153, 153, 153)" stroke-width="1.5px"></line></g></g><g><g><line x1="68.95982142857143" y1="0" x2="68.95982142857143" y2="377" fill="rgb(0, 0, 0)" stroke="rgb(153, 153, 153)" stroke-width="1.5px"></line></g></g><g><g><g><g><g><path stroke="rgb(255, 112, 67)" stroke-width="2px" d="M103.43973214285714,-14.446407958308173L106.88772321428571,6.786341015733155L110.33571428571429,21.618276119550586L113.78370535714285,37.23874660769502L117.23169642857142,51.523325200906974L120.6796875,65.15299931243432L124.12767857142856,74.886505037366L127.57566964285715,83.6896018082263L131.0236607142857,89.46076789128335L134.4716517857143,88.80072630597299L137.91964285714286,99.92496815601015L141.36763392857142,110.35550362257062L144.81562499999998,118.57357898406832L148.26361607142857,128.91165452895615L151.71160714285713,132.51377945936727L155.15959821428572,130.4092859737784L158.60758928571428,137.14874301617155L162.05558035714284,146.12187247830295L165.50357142857143,152.09420794141744L168.9515625,155.40099442761297L172.39955357142858,156.4089602920776L175.84754464285714,159.78984209886613L179.29553571428573,167.7405373375893L182.74352678571427,170.48134519309494L186.19151785714286,176.0493723797827L189.63950892857142,176.65625012508056L193.0875,181.14081380893953L196.53549107142857,180.39857899402787L199.98348214285716,179.737909196231L203.43147321428572,181.75836842235591L206.87946428571428,185.9059548426121L210.32745535714287,195.83113313054164L213.77544642857143,202.870859796046L217.22343750000002,204.44479050211777L220.67142857142858,208.43898811907422L224.11941964285714,208.3377174792874L227.5674107142857,213.1654900749891L231.0154017857143,207.8233714430003L234.46339285714285,212.90473332202322L237.91138392857144,214.29233432042338L241.359375,219.14054376133384L244.80736607142856,214.05703423061254L248.25535714285712,217.20162225096396L251.70334821428574,217.5901918127427L255.1513392857143,215.9249222325031L258.59933035714283,221.9795472823198L262.0473214285714,227.1822491809941L265.4953125,227.03213252792239L268.9433035714286,231.90884545275563L272.39129464285713,233.33492496616137L275.8392857142857,228.98809808008846L279.2872767857143,232.49144694189755L282.73526785714284,231.31207638588043L286.18325892857143,233.63174058181124L289.63124999999997,236.49881015095L293.07924107142856,239.1366838220041L296.52723214285714,243.3291761118503L299.97522321428573,242.0245444320638L303.42321428571427,247.60034185199848L306.87120535714286,250.62384017437043L310.31919642857144,248.45794968248646L313.76718750000003,243.62179819500093L317.21517857142857,247.2069070628079L320.66316964285716,252.76538569276283L324.1111607142857,253.3430011792574L327.5591517857143,253.33928511445913L331.00714285714287,255.06266109345017L334.4551339285714,252.70568125149023L337.903125,253.97088052560235L341.3511160714286,257.093617293522L344.79910714285717,256.6599257548363L348.2470982142857,253.72123883289015L351.6950892857143,256.89134013617104L355.1430803571429,257.5029636532636L358.59107142857147,258.37403882317267L362.0390625,262.59669353121933L365.48705357142853,263.55571821445693L368.9350446428571,270.08748759912316L372.3830357142857,269.47718993260395L375.8310267857143,272.18683511656695L379.27901785714283,272.3750043181202L382.7270089285714,269.9165426500484L386.175,268.12265596653276L389.6229910714286,270.08338330687053L393.07098214285713,271.56683010161504L396.5189732142857,275.8152839581026L399.9669642857143,274.4437554675796L403.41495535714284,281.12734537982425L406.86294642857143,282.20267871851183L410.31093749999997,277.7316272097171L413.75892857142856,281.35978723336746L417.20691964285714,282.33021379842774L420.65491071428573,284.38640070323436L424.10290178571427,282.6245307857378L427.55089285714286,282.5211250266185L430.99888392857144,285.0017473128072L434.44687500000003,285.85557371103187L437.89486607142857,282.1168885658858L441.34285714285716,279.75689390322L444.7908482142857,287.04423148048187L448.2388392857143,294.2077712886632L451.68683035714287,294.7404174729049L455.1348214285714,296.4542500710621L458.5828125,293.9922797956113L462.0308035714286,291.0428009155582L465.47879464285717,293.6785312899411L468.9267857142857,296.37962755123624L472.3747767857143,298.1799875466164L475.8227678571429,298.83866484408753L479.27075892857147,294.6822861118191L482.71875,296.58913724700875L486.16674107142853,306.2134743581485L489.6147321428571,301.77162194551653L493.06272321428565,303.5276170098336L496.51071428571424,307.54188850770794L499.9587053571429,302.7291538822405L503.4066964285715,309.3025679522496L506.8546875,306.75934270117034L510.3026785714286,311.14197662636735L513.7506696428571,307.3719281688691L517.1986607142857,305.4807433284899L520.6466517857143,304.4016296428626L524.0946428571428,306.57780394545495L527.5426339285714,311.6945654877231L530.990625,310.51231768570307L534.4386160714286,313.98375890865196L537.8866071428572,316.0608710789448L541.3345982142857,309.1656268107967L544.7825892857143,309.5356464188145L548.2305803571428,312.0034458908672L551.6785714285714,312.80393397052495L555.1265625,310.91242201741903L558.5745535714286,315.17047773479334L562.0225446428572,318.7460643321102L565.4705357142857,319.58256101699357L568.9185267857143,319.4106736882212L572.3665178571429,324.1071566741061L575.8145089285714,327.53704077549577L579.2624999999999,330.1002162716746L582.7104910714286,328.7383883294276L586.1584821428571,330.7943865129348L589.6064732142858,333.02646374896955L593.0544642857143,341.315607553262L596.5024553571429,342.62176924948926L599.9504464285715,345.6859654654457L603.3984375,345.9247802732388L606.8464285714285,350.68780253485124L610.2944196428571,350.0096523998586L613.7424107142857,350.53364802394395L617.1904017857142,345.325470063326L620.6383928571429,342.4635142708697L624.0863839285714,341.4238031998204L627.5343750000001,348.037289741062L630.9823660714286,346.70426368207563L634.4303571428571,351.34598087527485L637.8783482142857,350.3163098507792L641.3263392857143,350.72612425712225L644.7743303571428,344.3078805659588L648.2223214285714,349.7357538689165L651.6703125,346.78788055094196L655.1183035714286,348.10625667584657L658.5662946428572,351.4900542277313L662.0142857142857,352.86349460190206L665.4622767857143,353.53395557607433L668.9102678571428,349.30285278789427L672.3582589285714,346.57922658820286L675.80625,352.58783806480744L679.2542410714286,352.76393781591304L682.7022321428572,349.04342388422776L686.1502232142857,350.40158128761504L689.5982142857143,355.17119969468547L693.0462053571429,350.6977659208956L696.4941964285714,347.94954496284623L699.9421874999999,348.45365635170896L703.3901785714286,345.7914774958426L706.8381696428571,346.2391084431815L710.2861607142858,349.4878907701714L713.7341517857143,348.92204789635684L717.1821428571429,351.5589217833436L720.6301339285715,351.49725110210795L724.078125,351.98946819070034L727.5261160714285,353.27737712372084L730.9741071428571,353.1276531710387L734.4220982142857,354.2344500576137L737.8700892857142,354.9495331628835L741.3180803571429,353.40919618834624L744.7660714285714,350.2541923779386L748.2140625000001,349.29622679428354L751.6620535714286,354.68920909070806L755.1100446428571,353.4571196933997L758.5580357142857,350.3273654228153L762.0060267857143,352.47197652894107L765.4540178571428,355.1792178085806L768.9020089285714,353.5297002578052L772.35,353.76106938029955L775.7979910714286,355.7596357927333L779.2459821428572,353.954483022049L782.6939732142857,356.4699793494454L786.1419642857143,352.0780948845031L789.5899553571428,354.0696268066618L793.0379464285714,355.86193006598614L796.4859375,351.61454021226297L799.9339285714286,352.4861850544541L803.3819196428572,351.07318921225726L806.8299107142857,352.6225437406584L810.2779017857143,350.81829969299235L813.7258928571429,349.4344137247781L817.1738839285714,352.93979904164064L820.6218749999999,349.91007667465703L824.0698660714286,350.6350233936964L827.5178571428571,350.0784750083969L830.9658482142858,353.9614364856956L834.4138392857143,350.7176167211709L837.8618303571429,354.8888329270728L841.3098214285715,357.65318989122846L844.7578125,353.54657514800493L848.2058035714285,351.54140592434663L851.6537946428571,354.9547202375831L855.1017857142857,353.4639017368464L858.5497767857142,356.0879856978557L861.9977678571429,356.9938803379195L865.4457589285714,356.483619400095L868.8937500000001,356.6931180515366L872.3417410714286,356.07258555641636L875.7897321428571,354.7126391599718L879.2377232142857,352.05019650118766L882.6857142857143,354.4972406202172L886.1337053571428,358.0398545552913L889.5816964285714,350.28997104810514L893.0296875,357.61606097650264L896.4776785714286,355.78938601057587L899.9256696428572,358.5983257109736L903.3736607142857,355.13120667480854L906.8216517857143,357.9041377261432L910.2696428571428,356.91710856993996L913.7176339285714,359.14001914254106L917.165625,355.3549645425537L920.6136160714286,354.1996185893268L924.0616071428572,357.1890321929832L927.5095982142857,354.71251326450096" style="fill: none;" fill="none"></path></g></g></g></g><g opacity="0.2"><g><g><g><path stroke="rgb(255, 112, 67)" stroke-width="2px" d="M99.99174107142858,-4.865197875283012L103.43973214285714,11.839135169982868L106.88772321428571,38.519916794516796L110.33571428571429,43.81774993376296L113.78370535714285,60.638850212097125L117.23169642857142,72.93340210481122L120.6796875,85.58789777755737L124.12767857142856,89.48264473134817L127.57566964285715,96.89201185920021L131.0236607142857,98.11663783680308L134.4716517857143,87.81072425842285L137.91964285714286,116.6107208512046L141.36763392857142,126.00096360119906L144.81562499999998,130.90052977475253L148.26361607142857,144.4186453819275L151.71160714285713,137.91694125262174L155.15959821428572,127.25255472009832L158.60758928571428,147.25791133533824L162.05558035714284,159.58155289563265L165.50357142857143,161.052705634724L168.9515625,160.36117232929575L172.39955357142858,157.92090875452215L175.84754464285714,164.8611641363664L179.29553571428573,179.666579246521L182.74352678571427,174.59255678003484L186.19151785714286,184.40141292051834L189.63950892857142,177.56656672737816L193.0875,187.8676592653448L196.53549107142857,179.28522677855057L199.98348214285716,178.74690450321543L203.43147321428572,184.78905725479126L206.87946428571428,192.12733446468008L210.32745535714287,210.7189005504955L213.77544642857143,213.43044978922063L217.22343750000002,206.8056865605441L220.67142857142858,214.43028454347092L224.11941964285714,208.1858115196228L227.5674107142857,220.4071489680897L231.0154017857143,199.81019349531692L234.46339285714285,220.5267761403864L237.91138392857144,216.37373581799594L241.359375,226.4128579226407L244.80736607142856,206.43176993456754L248.25535714285712,221.9185042814775L251.70334821428574,218.1730461554094L255.1513392857143,213.42701786214656L258.59933035714283,231.06148485703903L262.0473214285714,234.9863020290028L265.4953125,226.80695754831487L268.9433035714286,239.22391484000465L272.39129464285713,235.47404423626986L275.8392857142857,222.46785775097933L279.2872767857143,237.7464702346108L282.73526785714284,229.5430205518549L286.18325892857143,237.11123687570745L289.63124999999997,240.7994145046581L293.07924107142856,243.09349432858554L296.52723214285714,249.61791454661977L299.97522321428573,240.06759691238403L303.42321428571427,255.9640379819003L306.87120535714286,255.15908765792847L310.31919642857144,245.20911394466054L313.76718750000003,236.36757096377286L317.21517857142857,252.58457036451858L320.66316964285716,261.1031036376953L324.1111607142857,254.20942440899935L327.5591517857143,253.33371101726186L331.00714285714287,257.6477250619368L334.4551339285714,249.17021148855036L337.903125,255.86867943677035L341.3511160714286,261.7777224454013L344.79910714285717,256.00938844680786L348.2470982142857,249.3132084499706L351.6950892857143,261.6464920910922L355.1430803571429,258.4203989289024L358.59107142857147,259.6806515780362L362.0390625,268.9306755932895L365.48705357142853,264.9942552393133L368.9350446428571,279.8851416761225L372.3830357142857,268.56174343282527L375.8310267857143,276.25130289251155L379.27901785714283,272.65725812045014L382.7270089285714,266.22885014794093L386.175,265.4318259412592L389.6229910714286,273.02447431737727L393.07098214285713,273.7920002937317L396.5189732142857,282.1879647428339L399.9669642857143,272.3864627317949L403.41495535714284,291.1527302481912L406.86294642857143,283.81567872654307L410.31093749999997,271.0250499465249L413.75892857142856,286.80202726884323L417.20691964285714,283.7858536460183L420.65491071428573,287.47068106044424L424.10290178571427,279.9817259094932L427.55089285714286,282.36601638793945L430.99888392857144,288.7226807420904L434.44687500000003,287.13631330836904L437.89486607142857,276.50886084816676L441.34285714285716,276.2169019092213L444.7908482142857,297.9752378463745L448.2388392857143,304.95308100093496L451.68683035714287,295.5393867492676L455.1348214285714,299.0249989682978L458.5828125,290.2993243824352L462.0308035714286,286.6185825954784L465.47879464285717,297.63212685151535L468.9267857142857,300.431271943179L472.3747767857143,300.88052753968674L475.8227678571429,299.8266807902943L479.27075892857147,288.44771801341665L482.71875,299.44941394979304L486.16674107142853,320.649980024858L489.6147321428571,295.1088433265686L493.06272321428565,306.1616096063094L496.51071428571424,313.56329575451934L499.9587053571429,295.5100519440391L503.4066964285715,319.1626890572635L506.8546875,302.9445048245517L510.3026785714286,317.7159275141629L513.7506696428571,301.71685548262167L517.1986607142857,302.64396606792104L520.6466517857143,302.7829591144215L524.0946428571428,309.8420653993433L527.5426339285714,319.3697078011253L530.990625,308.738945982673L534.4386160714286,319.19092074307525L537.8866071428572,319.17653933438385L541.3345982142857,298.8227604085749L544.7825892857143,310.09067583084106L548.2305803571428,315.70514509894633L551.6785714285714,314.0046660900116L555.1265625,308.07515408776027L558.5745535714286,321.5575613108548L562.0225446428572,324.10944422808564L565.4705357142857,320.8373060443185L568.9185267857143,319.1528426950628L572.3665178571429,331.1518811529333L575.8145089285714,332.6818669275804L579.2624999999999,333.9449795159427L582.7104910714286,326.69564641605723L586.1584821428571,333.8783837881955L589.6064732142858,336.3745796030218L593.0544642857143,353.7493232597005L596.5024553571429,344.5810117938302L599.9504464285715,350.2822597893802L603.3984375,346.2830024849285L606.8464285714285,357.8323359272697L610.2944196428571,348.9924271973697L613.7424107142857,351.3196414600719L617.1904017857142,337.5132031223991L620.6383928571429,338.17058058218527L624.0863839285714,339.86423659324646L627.5343750000001,357.95751955292445L630.9823660714286,344.70472459359604L634.4303571428571,358.30855666507375L637.8783482142857,348.7718033140356L641.3263392857143,351.3408458666368L644.7743303571428,334.68051502921367L648.2223214285714,357.87756382335317L651.6703125,342.36607057398015L655.1183035714286,350.0838208632036L658.5662946428572,356.5657505555587L662.0142857142857,354.9236551631581L665.4622767857143,354.5396470373327L668.9102678571428,342.9561986056241L672.3582589285714,342.49378728866577L675.80625,361.6007552797144L679.2542410714286,353.02808744257146L682.7022321428572,343.4626529866999L686.1502232142857,352.4388173926961L689.5982142857143,362.32562730529094L693.0462053571429,343.9876152602109L696.4941964285714,343.8272135257721L699.9421874999999,349.2098234350031L703.3901785714286,341.7982092120431L706.8381696428571,346.91055486418986L710.2861607142858,354.3610642606562L713.7341517857143,348.07328358563507L717.1821428571429,355.51423261382365L720.6301339285715,351.4047450802543L724.078125,352.727793823589L727.5261160714285,355.20924052325165L730.9741071428571,352.90306724201554L734.4220982142857,355.89464538747615L737.8700892857142,356.02215782078827L741.3180803571429,351.0986907265403L744.7660714285714,345.52168666232717L748.2140625000001,347.85927841880107L751.6620535714286,362.7786825353449L755.1100446428571,351.6089855974371L758.5580357142857,345.6327340169387L762.0060267857143,355.6888931881298L765.4540178571428,359.24007972803986L768.9020089285714,351.05542393164205L772.35,354.10812306404114L775.7979910714286,358.7574854113839L779.2459821428572,351.2467538660223L782.6939732142857,360.2432238405401L786.1419642857143,345.49026818708944L789.5899553571428,357.0569246898998L793.0379464285714,358.55038495497274L796.4859375,345.2434554316781L799.9339285714286,353.79365231774074L803.3819196428572,348.9536954489621L806.8299107142857,354.94657553326005L810.2779017857143,348.1119336214932L813.7258928571429,347.3585847724568L817.1738839285714,358.1978770169345L820.6218749999999,345.36549312418157L824.0698660714286,351.7224434722554L827.5178571428571,349.2436524304477L830.9658482142858,359.7858787016435L834.4138392857143,345.85188707438385L837.8618303571429,361.14565723592585L841.3098214285715,361.799725337462L844.7578125,347.38665303316986L848.2058035714285,348.5336520888589L851.6537946428571,360.0746917074377L855.1017857142857,351.2276739857414L858.5497767857142,360.02411163936966L861.9977678571429,358.3527222980153L865.4457589285714,355.7182279933583L868.8937500000001,357.00736602869904L872.3417410714286,355.14178681373596L875.7897321428571,352.6727195653049L879.2377232142857,348.05653251301163L882.6857142857143,358.16780679876155L886.1337053571428,363.35377545790243L889.5816964285714,338.66514578732574L893.0296875,368.605195869099L896.4776785714286,353.04937356168574L899.9256696428572,362.81173526157033L903.3736607142857,349.9305281205611L906.8216517857143,362.063534303145L910.2696428571428,355.43656483563507L913.7176339285714,362.47438500144267L917.165625,349.6773826425726L920.6136160714286,352.4665996594863L924.0616071428572,361.6731525984677L927.5095982142857,350.99773487177765" style="fill: none;" fill="none"></path></g></g></g></g></g></g><g transform="translate(51, 377)" clip-path="url(#clip_1)"><clipPath id="clip_1"><rect width="965" height="23"></rect></clipPath><g><g><line x1="0" y1="0" x2="0" y2="5" style="visibility: inherit;" fill="rgb(0, 0, 0)" stroke="rgb(204, 204, 204)" stroke-width="1px"></line><line x1="68.95982142857143" y1="0" x2="68.95982142857143" y2="5" style="visibility: inherit;" fill="rgb(0, 0, 0)" stroke="rgb(204, 204, 204)" stroke-width="1px"></line><line x1="137.91964285714286" y1="0" x2="137.91964285714286" y2="5" style="visibility: inherit;" fill="rgb(0, 0, 0)" stroke="rgb(204, 204, 204)" stroke-width="1px"></line><line x1="206.87946428571428" y1="0" x2="206.87946428571428" y2="5" style="visibility: inherit;" fill="rgb(0, 0, 0)" stroke="rgb(204, 204, 204)" stroke-width="1px"></line><line x1="275.8392857142857" y1="0" x2="275.8392857142857" y2="5" style="visibility: inherit;" fill="rgb(0, 0, 0)" stroke="rgb(204, 204, 204)" stroke-width="1px"></line><line x1="344.79910714285717" y1="0" x2="344.79910714285717" y2="5" style="visibility: inherit;" fill="rgb(0, 0, 0)" stroke="rgb(204, 204, 204)" stroke-width="1px"></line><line x1="413.75892857142856" y1="0" x2="413.75892857142856" y2="5" style="visibility: inherit;" fill="rgb(0, 0, 0)" stroke="rgb(204, 204, 204)" stroke-width="1px"></line><line x1="482.71875" y1="0" x2="482.71875" y2="5" style="visibility: inherit;" fill="rgb(0, 0, 0)" stroke="rgb(204, 204, 204)" stroke-width="1px"></line><line x1="551.6785714285714" y1="0" x2="551.6785714285714" y2="5" style="visibility: inherit;" fill="rgb(0, 0, 0)" stroke="rgb(204, 204, 204)" stroke-width="1px"></line><line x1="620.6383928571429" y1="0" x2="620.6383928571429" y2="5" style="visibility: inherit;" fill="rgb(0, 0, 0)" stroke="rgb(204, 204, 204)" stroke-width="1px"></line><line x1="689.5982142857143" y1="0" x2="689.5982142857143" y2="5" style="visibility: inherit;" fill="rgb(0, 0, 0)" stroke="rgb(204, 204, 204)" stroke-width="1px"></line><line x1="758.5580357142857" y1="0" x2="758.5580357142857" y2="5" style="visibility: inherit;" fill="rgb(0, 0, 0)" stroke="rgb(204, 204, 204)" stroke-width="1px"></line><line x1="827.5178571428571" y1="0" x2="827.5178571428571" y2="5" style="visibility: inherit;" fill="rgb(0, 0, 0)" stroke="rgb(204, 204, 204)" stroke-width="1px"></line><line x1="896.4776785714286" y1="0" x2="896.4776785714286" y2="5" style="visibility: inherit;" fill="rgb(0, 0, 0)" stroke="rgb(204, 204, 204)" stroke-width="1px"></line><line x1="965.4375" y1="0" x2="965.4375" y2="5" style="visibility: inherit;" fill="rgb(0, 0, 0)" stroke="rgb(204, 204, 204)" stroke-width="1px"></line></g><g transform="translate(0, 8)"><text x="0" y="0" dx="0em" dy="0.95em" style="text-anchor: middle; visibility: hidden; font-family: Roboto, sans-serif; font-size: 12px; font-weight: 200;" fill="rgb(255, 255, 255)" stroke="none" stroke-width="1px">-20</text><text x="68.95982142857143" y="0" dx="0em" dy="0.95em" style="text-anchor: middle; visibility: inherit; font-family: Roboto, sans-serif; font-size: 12px; font-weight: 200;" fill="rgb(255, 255, 255)" stroke="none" stroke-width="1px">0</text><text x="137.91964285714286" y="0" dx="0em" dy="0.95em" style="text-anchor: middle; visibility: inherit; font-family: Roboto, sans-serif; font-size: 12px; font-weight: 200;" fill="rgb(255, 255, 255)" stroke="none" stroke-width="1px">20</text><text x="206.87946428571428" y="0" dx="0em" dy="0.95em" style="text-anchor: middle; visibility: inherit; font-family: Roboto, sans-serif; font-size: 12px; font-weight: 200;" fill="rgb(255, 255, 255)" stroke="none" stroke-width="1px">40</text><text x="275.8392857142857" y="0" dx="0em" dy="0.95em" style="text-anchor: middle; visibility: inherit; font-family: Roboto, sans-serif; font-size: 12px; font-weight: 200;" fill="rgb(255, 255, 255)" stroke="none" stroke-width="1px">60</text><text x="344.79910714285717" y="0" dx="0em" dy="0.95em" style="text-anchor: middle; visibility: inherit; font-family: Roboto, sans-serif; font-size: 12px; font-weight: 200;" fill="rgb(255, 255, 255)" stroke="none" stroke-width="1px">80</text><text x="413.75892857142856" y="0" dx="0em" dy="0.95em" style="text-anchor: middle; visibility: inherit; font-family: Roboto, sans-serif; font-size: 12px; font-weight: 200;" fill="rgb(255, 255, 255)" stroke="none" stroke-width="1px">100</text><text x="482.71875" y="0" dx="0em" dy="0.95em" style="text-anchor: middle; visibility: inherit; font-family: Roboto, sans-serif; font-size: 12px; font-weight: 200;" fill="rgb(255, 255, 255)" stroke="none" stroke-width="1px">120</text><text x="551.6785714285714" y="0" dx="0em" dy="0.95em" style="text-anchor: middle; visibility: inherit; font-family: Roboto, sans-serif; font-size: 12px; font-weight: 200;" fill="rgb(255, 255, 255)" stroke="none" stroke-width="1px">140</text><text x="620.6383928571429" y="0" dx="0em" dy="0.95em" style="text-anchor: middle; visibility: inherit; font-family: Roboto, sans-serif; font-size: 12px; font-weight: 200;" fill="rgb(255, 255, 255)" stroke="none" stroke-width="1px">160</text><text x="689.5982142857143" y="0" dx="0em" dy="0.95em" style="text-anchor: middle; visibility: inherit; font-family: Roboto, sans-serif; font-size: 12px; font-weight: 200;" fill="rgb(255, 255, 255)" stroke="none" stroke-width="1px">180</text><text x="758.5580357142857" y="0" dx="0em" dy="0.95em" style="text-anchor: middle; visibility: inherit; font-family: Roboto, sans-serif; font-size: 12px; font-weight: 200;" fill="rgb(255, 255, 255)" stroke="none" stroke-width="1px">200</text><text x="827.5178571428571" y="0" dx="0em" dy="0.95em" style="text-anchor: middle; visibility: inherit; font-family: Roboto, sans-serif; font-size: 12px; font-weight: 200;" fill="rgb(255, 255, 255)" stroke="none" stroke-width="1px">220</text><text x="896.4776785714286" y="0" dx="0em" dy="0.95em" style="text-anchor: middle; visibility: inherit; font-family: Roboto, sans-serif; font-size: 12px; font-weight: 200;" fill="rgb(255, 255, 255)" stroke="none" stroke-width="1px">240</text><text x="965.4375" y="0" dx="0em" dy="0.95em" style="text-anchor: middle; visibility: hidden; font-family: Roboto, sans-serif; font-size: 12px; font-weight: 200;" fill="rgb(255, 255, 255)" stroke="none" stroke-width="1px">260</text></g><line x1="0" y1="0" x2="965.4375" y2="0" fill="rgb(0, 0, 0)" stroke="rgb(204, 204, 204)" stroke-width="1px"></line></g></g></g></g></svg>